<?xml version="1.0" standalone="no"?>
<!DOCTYPE svg PUBLIC "-//W3C//DTD SVG 1.1//EN" "http://www.w3.org/Graphics/SVG/1.1/DTD/svg11.dtd" >
<svg xmlns="http://www.w3.org/2000/svg" xmlns:xlink="http://www.w3.org/1999/xlink" version="1.1">
<metadata>
Created by FontForge 20200314 at Thu Nov 20 23:01:06 2014
 By Unknown
(c) 2014, Copyright by Botio Nikoltchev. All rights reserved.
</metadata>
<defs>
<font id="RopaSoftSCPTTW07-Bold" horiz-adv-x="560" >
  <font-face 
    font-family="RopaSoftSCPTTW07-Bold"
    font-weight="700"
    font-stretch="normal"
    units-per-em="1000"
    panose-1="2 11 8 4 2 1 1 1 1 2"
    ascent="800"
    descent="-200"
    x-height="511"
    cap-height="655"
    bbox="-52 -340 1234 893"
    underline-thickness="50"
    underline-position="-125"
    unicode-range="U+000D-FEFF"
  />
<missing-glyph horiz-adv-x="465" 
d="M53 655h359v-655h-359v655zM316 96v463h-167v-463h167z" />
    <glyph glyph-name="f_f_j.liga" unicode="ffj" horiz-adv-x="1024" 
d="M339 511q27 0 27 -26v-47q0 -26 -27 -26h-173v-105h119q26 0 26 -26v-44q0 -27 -26 -27h-119v-184q0 -26 -26 -26h-58q-26 0 -26 26v459q0 26 26 26h257zM734 511q27 0 27 -26v-47q0 -26 -27 -26h-173v-105h119q26 0 26 -26v-44q0 -27 -26 -27h-119v-184q0 -26 -26 -26
h-58q-26 0 -26 26v459q0 26 26 26h257zM941 511q27 0 27 -26v-346q0 -78 -34 -114.5t-105 -36.5q-10 0 -27 2t-29 4q-24 4 -24 28v43q0 24 20 24q2 0 3.5 -0.5t3.5 -0.5q8 -2 18.5 -3t19.5 -1q23 0 33 11.5t10 40.5v349q0 26 27 26h57z" />
    <glyph glyph-name="f_i.liga" unicode="fi" horiz-adv-x="617" 
d="M339 511q27 0 27 -26v-47q0 -26 -27 -26h-173v-105h119q26 0 26 -26v-44q0 -27 -26 -27h-119v-184q0 -26 -26 -26h-58q-26 0 -26 26v459q0 26 26 26h257zM535 511q26 0 26 -26v-459q0 -26 -26 -26h-58q-26 0 -26 26v459q0 26 26 26h58z" />
    <glyph glyph-name="f_j.liga" unicode="fj" horiz-adv-x="629" 
d="M339 511q27 0 27 -26v-47q0 -26 -27 -26h-173v-105h119q26 0 26 -26v-44q0 -27 -26 -27h-119v-184q0 -26 -26 -26h-58q-26 0 -26 26v459q0 26 26 26h257zM546 511q27 0 27 -26v-346q0 -78 -34 -114.5t-105 -36.5q-10 0 -27 2t-29 4q-24 4 -24 28v43q0 24 20 24
q2 0 3.5 -0.5t3.5 -0.5q8 -2 18.5 -3t19.5 -1q23 0 33 11.5t10 40.5v349q0 26 27 26h57z" />
    <glyph glyph-name="f_l.liga" unicode="fl" horiz-adv-x="783" 
d="M339 511q27 0 27 -26v-47q0 -26 -27 -26h-173v-105h119q26 0 26 -26v-44q0 -27 -26 -27h-119v-184q0 -26 -26 -26h-58q-26 0 -26 26v459q0 26 26 26h257zM535 511q26 0 26 -26v-386h176q27 0 27 -27v-46q0 -26 -27 -26h-260q-26 0 -26 26v459q0 26 26 26h58z" />
    <glyph glyph-name="f_f_l.liga" unicode="ffl" horiz-adv-x="1179" 
d="M339 511q27 0 27 -26v-47q0 -26 -27 -26h-173v-105h119q26 0 26 -26v-44q0 -27 -26 -27h-119v-184q0 -26 -26 -26h-58q-26 0 -26 26v459q0 26 26 26h257zM734 511q27 0 27 -26v-47q0 -26 -27 -26h-173v-105h119q26 0 26 -26v-44q0 -27 -26 -27h-119v-184q0 -26 -26 -26
h-58q-26 0 -26 26v459q0 26 26 26h257zM930 511q26 0 26 -26v-386h176q27 0 27 -27v-46q0 -26 -27 -26h-260q-26 0 -26 26v459q0 26 26 26h58z" />
    <glyph glyph-name="f_f.liga" unicode="ff" horiz-adv-x="790" 
d="M339 511q27 0 27 -26v-47q0 -26 -27 -26h-173v-105h119q26 0 26 -26v-44q0 -27 -26 -27h-119v-184q0 -26 -26 -26h-58q-26 0 -26 26v459q0 26 26 26h257zM734 511q27 0 27 -26v-47q0 -26 -27 -26h-173v-105h119q26 0 26 -26v-44q0 -27 -26 -27h-119v-184q0 -26 -26 -26
h-58q-26 0 -26 26v459q0 26 26 26h257z" />
    <glyph glyph-name="f_f_i.liga" unicode="ffi" horiz-adv-x="1012" 
d="M339 511q27 0 27 -26v-47q0 -26 -27 -26h-173v-105h119q26 0 26 -26v-44q0 -27 -26 -27h-119v-184q0 -26 -26 -26h-58q-26 0 -26 26v459q0 26 26 26h257zM734 511q27 0 27 -26v-47q0 -26 -27 -26h-173v-105h119q26 0 26 -26v-44q0 -27 -26 -27h-119v-184q0 -26 -26 -26
h-58q-26 0 -26 26v459q0 26 26 26h257zM930 511q26 0 26 -26v-459q0 -26 -26 -26h-58q-26 0 -26 26v459q0 26 26 26h58z" />
    <glyph glyph-name=".notdef" horiz-adv-x="465" 
d="M53 655h359v-655h-359v655zM316 96v463h-167v-463h167z" />
    <glyph glyph-name="glyph1" horiz-adv-x="0" 
 />
    <glyph glyph-name="glyph1" horiz-adv-x="0" 
 />
    <glyph glyph-name="uni000D" unicode="&#xd;" horiz-adv-x="137" 
 />
    <glyph glyph-name="space" unicode=" " horiz-adv-x="137" 
 />
    <glyph glyph-name="exclam" unicode="!" horiz-adv-x="211" 
d="M140 695q29 0 29 -28l-7 -439q0 -28 -29 -28h-55q-29 0 -29 28l-6 439q-2 28 28 28h69zM105 135q71 0 71 -61v-26q0 -29 -18 -44.5t-53 -15.5q-34 0 -52 15.5t-18 44.5v26q0 61 70 61z" />
    <glyph glyph-name="quotedbl" unicode="&#x22;" horiz-adv-x="353" 
d="M125 683q28 0 28 -28v-215q0 -28 -28 -28h-60q-29 0 -29 28v215q0 28 29 28h60zM288 683q28 0 28 -28v-215q0 -28 -28 -28h-60q-28 0 -28 28v215q0 28 28 28h60z" />
    <glyph glyph-name="numbersign" unicode="#" horiz-adv-x="569" 
d="M431 613q28 0 28 -28v-88h45q28 0 28 -28v-44q0 -28 -28 -28h-45v-181h45q28 0 28 -28v-44q0 -28 -28 -28h-45v-88q0 -28 -28 -28h-59q-29 0 -29 28v88h-117v-88q0 -28 -28 -28h-59q-29 0 -29 28v88h-44q-29 0 -29 28v44q0 28 29 28h44v181h-44q-29 0 -29 28v44
q0 28 29 28h44v88q0 28 29 28h59q28 0 28 -28v-88h117v88q0 28 29 28h59zM226 397v-181h117v181h-117z" />
    <glyph glyph-name="dollar" unicode="$" horiz-adv-x="435" 
d="M253 695q28 0 28 -28v-57q17 -1 36.5 -3t38.5 -6q13 -3 19 -9.5t6 -20.5v-48q0 -26 -23 -26q-5 0 -8 1q-28 5 -58 8t-53 3q-52 0 -72.5 -17t-20.5 -48v-15q0 -26 10.5 -40t46.5 -25l58 -17q44 -13 73 -27.5t46.5 -35t24.5 -47.5t7 -65v-11q0 -66 -29.5 -108t-101.5 -57
v-61q0 -29 -28 -29h-51q-28 0 -28 29v54q-23 1 -49 4.5t-49 8.5q-26 6 -26 31l1 49q0 26 22 26q7 0 10 -1q33 -7 62.5 -11t49.5 -4q57 0 78.5 16.5t21.5 48.5v18q0 23 -13 36.5t-54 25.5l-58 18q-41 12 -68 26.5t-43 35t-23 49t-7 68.5v7q0 70 33.5 112.5t111.5 53.5v60
q0 28 28 28h51z" />
    <glyph glyph-name="percent" unicode="%" horiz-adv-x="874" 
d="M200 625q82 0 123.5 -42.5t41.5 -123.5v-28q0 -81 -41 -124t-124 -43q-81 0 -123.5 42.5t-42.5 124.5v28q0 81 42.5 123.5t123.5 42.5zM634 613q25 0 25 -18q0 -6 -5 -16l-305 -559q-11 -20 -34 -20h-65q-25 0 -25 18q0 6 5 16l305 559q11 20 34 20h65zM200 524
q-25 0 -38.5 -14.5t-13.5 -47.5v-34q0 -33 13 -48t39 -15t38.5 15t12.5 48v34q0 34 -12.5 48t-38.5 14zM684 349q82 0 123 -43t41 -124v-28q0 -80 -40.5 -123t-123.5 -43q-81 0 -123.5 42.5t-42.5 123.5v28q0 81 42 124t124 43zM684 248q-26 0 -39 -15t-13 -48v-34
q0 -33 13 -47.5t39 -14.5q51 0 51 62v34q0 34 -12.5 48.5t-38.5 14.5z" />
    <glyph glyph-name="ampersand" unicode="&#x26;" horiz-adv-x="523" 
d="M238 667q25 0 49.5 -2.5t49.5 -6.5q26 -4 26 -30l-1 -43q-2 -27 -24 -27q-2 0 -3 0.5t-3 0.5q-20 4 -40.5 6t-41.5 2q-46 0 -66.5 -20.5t-20.5 -58.5v-18q0 -41 24.5 -64.5t72.5 -23.5h81v33q0 29 28 29h55q28 0 28 -29v-33h36q27 0 27 -28v-43q0 -28 -27 -28h-36v-237
q0 -16 -6 -25t-22 -13q-48 -11 -85.5 -15.5t-80.5 -4.5q-65 0 -109 12.5t-72 35.5t-40 55.5t-12 73.5v23q0 53 30.5 95t87.5 59q-50 20 -72.5 56.5t-22.5 84.5v19q0 35 12.5 65t36.5 52.5t59.5 35t81.5 12.5zM257 283q-60 0 -88 -23.5t-28 -64.5v-23q0 -40 28.5 -61
t90.5 -21q40 0 81 10v183h-84z" />
    <glyph glyph-name="quotesingle" unicode="'" horiz-adv-x="190" 
d="M125 683q28 0 28 -28v-215q0 -28 -28 -28h-60q-29 0 -29 28v215q0 28 29 28h60z" />
    <glyph glyph-name="parenleft" unicode="(" horiz-adv-x="241" 
d="M228 774q14 1 21.5 -6.5t7.5 -21.5v-40q0 -27 -28 -30q-19 -3 -30.5 -8t-18 -14t-8.5 -23t-2 -34v-540q0 -40 10.5 -56.5t48.5 -21.5q28 -3 28 -30v-40q0 -14 -7.5 -21.5t-21.5 -6.5q-51 2 -85 14t-54 36t-28 60.5t-8 89.5v493q0 52 8 89t28 61t54 36t85 14z" />
    <glyph glyph-name="parenright" unicode=")" horiz-adv-x="241" 
d="M-16 746q0 14 7.5 21.5t21.5 6.5q51 -2 85 -14t54 -36t28 -61t8 -89v-493q0 -53 -8 -89.5t-28 -60.5t-54 -36t-85 -14q-14 -1 -21.5 6.5t-7.5 21.5v40q0 27 28 30q19 2 30.5 7t18 14t8.5 23t2 34v540q0 40 -11 57t-48 22q-28 3 -28 30v40z" />
    <glyph glyph-name="asterisk" unicode="*" horiz-adv-x="398" 
d="M220 695q27 0 27 -23q0 -5 -1 -8l-11 -74l67 33q8 4 15 4q16 0 22 -18l14 -40q2 -8 2 -11q0 -20 -23 -23l-75 -14l51 -51q10 -10 10 -20q0 -11 -13 -20l-35 -24q-8 -7 -17 -7q-13 0 -21 16l-34 62l-34 -64q-7 -16 -20 -16q-10 0 -18 7l-34 26q-13 9 -13 21q0 10 10 19
l51 52l-74 13q-23 3 -23 22q0 4 3 12l13 39q6 20 22 20q8 0 15 -4l66 -33l-11 73q0 2 -0.5 3.5t-0.5 3.5q0 24 27 24h43z" />
    <glyph glyph-name="plus" unicode="+" horiz-adv-x="394" 
d="M223 488q28 0 28 -28v-113h102q28 0 28 -29v-44q0 -29 -28 -29h-102v-113q0 -28 -28 -28h-52q-28 0 -28 28v113h-102q-28 0 -28 29v44q0 29 28 29h102v113q0 28 28 28h52z" />
    <glyph glyph-name="comma" unicode="," horiz-adv-x="215" 
d="M107 136q70 0 70 -59v-30q0 -30 -7 -52l-43 -136q-6 -20 -26 -20h-35q-22 0 -22 18q0 5 1 8l32 129q-38 11 -38 55v28q0 28 17 43.5t51 15.5z" />
    <glyph glyph-name="hyphen" unicode="-" horiz-adv-x="324" 
d="M250 343q29 0 29 -28v-39q0 -29 -29 -29h-176q-28 0 -28 29v39q0 28 28 28h176z" />
    <glyph glyph-name="period" unicode="." horiz-adv-x="218" 
d="M108 136q72 0 72 -61v-27q0 -29 -18.5 -44.5t-53.5 -15.5q-34 0 -52 15.5t-18 44.5v27q0 61 70 61z" />
    <glyph glyph-name="slash" unicode="/" horiz-adv-x="290" 
d="M273 683q26 0 26 -21q0 -3 -2 -11l-188 -627q-8 -24 -32 -24h-60q-26 0 -26 21q0 3 2 11l189 627q6 24 32 24h59z" />
    <glyph glyph-name="zero" unicode="0" horiz-adv-x="475" 
d="M238 613q91 0 140.5 -50t49.5 -156v-212q0 -105 -49 -156t-141 -51q-93 0 -142 51t-49 156v212q0 106 49.5 156t141.5 50zM238 511q-36 0 -55 -21.5t-19 -72.5v-232q0 -51 19 -73t55 -22q35 0 54.5 22t19.5 73v232q0 51 -19.5 72.5t-54.5 21.5z" />
    <glyph glyph-name="one" unicode="1" horiz-adv-x="314" 
d="M229 601q29 0 29 -28v-545q0 -28 -29 -28h-59q-29 0 -29 28v453h-2l-89 -39q-8 -3 -14 -3q-18 0 -22 21l-11 46q-1 4 -1 11q0 16 20 25l127 52q10 5 17.5 6t17.5 1h45z" />
    <glyph glyph-name="two" unicode="2" horiz-adv-x="392" 
d="M166 613q93 0 141 -42t48 -125v-21q0 -23 -3.5 -44.5t-13.5 -44t-26.5 -47t-41.5 -52.5l-118 -135h181q29 0 29 -28v-46q0 -28 -29 -28h-300q-28 0 -28 28v37q0 10 2.5 18.5t10.5 16.5l180 223q12 15 19.5 27t12 23t6 23t1.5 26v15q0 74 -83 74q-26 0 -53.5 -5.5
t-50.5 -11.5q-8 -2 -11 -2q-21 0 -21 26v45q0 27 33 35q29 6 59.5 10.5t55.5 4.5z" />
    <glyph glyph-name="three" unicode="3" horiz-adv-x="386" 
d="M163 613q85 0 132.5 -42t47.5 -114v-13q0 -44 -21 -79t-59 -52q41 -16 66.5 -53.5t25.5 -85.5v-11q0 -38 -12.5 -70t-37 -55.5t-60 -36.5t-81.5 -13q-24 0 -55 3t-60 8q-13 3 -19.5 9.5t-6.5 20.5v43q0 27 24 27q2 0 3.5 -0.5t3.5 -0.5q26 -5 54 -7.5t48 -2.5
q40 0 61.5 21t21.5 59v12q0 81 -84 81h-71q-29 0 -29 28v41q0 29 29 29h69q73 0 73 77v14q0 64 -73 64q-20 0 -47 -3t-52 -8q-3 -1 -8 -1q-23 0 -23 27v42q0 27 35 32q29 5 57 7.5t48 2.5z" />
    <glyph glyph-name="four" unicode="4" horiz-adv-x="433" 
d="M339 601q28 0 28 -28v-354h30q29 0 29 -28v-44q0 -28 -29 -28h-30v-91q0 -28 -28 -28h-59q-28 0 -28 28v91h-224q-29 0 -29 28v31q0 10 2 18t7 17l203 368q11 20 34 20h94zM126 219h127v23l6 239z" />
    <glyph glyph-name="five" unicode="5" horiz-adv-x="432" 
d="M333 604q29 0 29 -28v-46q0 -28 -29 -28h-179v-156q22 20 53.5 32t66.5 12q63 0 98 -40.5t35 -135.5v-30q0 -97 -48.5 -146.5t-151.5 -49.5q-32 0 -70 5t-68 12q-24 6 -24 32v45q0 27 22 27q6 0 9 -1q16 -3 34 -6.5t35.5 -6t33 -4t24.5 -1.5q87 0 87 90v35q0 38 -15 55.5
t-43 17.5q-26 0 -47.5 -9t-42.5 -30q-9 -8 -16.5 -11.5t-18.5 -3.5h-40q-29 0 -29 29v312q0 29 29 29h266z" />
    <glyph glyph-name="six" unicode="6" horiz-adv-x="457" 
d="M348 605q30 2 30 -27v-44q0 -27 -29 -29q-54 -3 -90 -12.5t-58 -25t-31.5 -38t-9.5 -50.5v-41q32 31 61 44.5t59 13.5q66 0 105 -44t39 -138v-36q0 -94 -49 -142t-143 -48q-93 0 -141 50t-48 144v183q0 110 73.5 172t231.5 68zM249 292q-21 0 -43.5 -14t-45.5 -37v-65
q0 -86 72 -86q75 0 75 81v46q0 75 -58 75z" />
    <glyph glyph-name="seven" unicode="7" horiz-adv-x="384" 
d="M349 600q28 0 28 -28v-29q0 -17 -7 -35l-198 -486q-9 -22 -33 -22h-65q-26 0 -26 20q0 5 3 13l195 463v1h-213q-29 0 -29 29v46q0 28 29 28h316z" />
    <glyph glyph-name="eight" unicode="8" horiz-adv-x="447" 
d="M224 613q83 0 129.5 -39.5t46.5 -116.5v-9q0 -39 -17 -73t-49 -51q42 -17 65.5 -53.5t23.5 -83.5v-19q0 -86 -50.5 -133t-148.5 -47t-149.5 46.5t-51.5 133.5v19q0 46 24 83t66 54q-32 17 -49 51t-17 73v9q0 76 46.5 116t130.5 40zM224 520q-64 0 -64 -63v-23
q0 -34 14.5 -49t49.5 -15t48.5 15t13.5 49v23q0 33 -15 48t-47 15zM224 275q-40 0 -62 -21.5t-22 -59.5v-36q0 -32 21 -52.5t63 -20.5q41 0 62 20.5t21 52.5v36q0 39 -22.5 60t-60.5 21z" />
    <glyph glyph-name="nine" unicode="9" horiz-adv-x="458" 
d="M224 613q91 0 140.5 -49t49.5 -146v-208q0 -116 -51.5 -169t-157.5 -53q-24 0 -54.5 2.5t-56.5 8.5q-25 6 -25 31v44q0 26 23 26q2 0 3.5 -0.5t3.5 -0.5q26 -5 54.5 -7.5t43.5 -2.5q51 0 75.5 26t24.5 84v63q-60 -58 -121 -58q-66 0 -104.5 44t-38.5 138v36
q0 94 48.5 142.5t142.5 48.5zM224 510q-75 0 -75 -81v-46q0 -75 58 -75q21 0 44 14t46 37v65q0 86 -73 86z" />
    <glyph glyph-name="colon" unicode=":" horiz-adv-x="217" 
d="M108 136q72 0 72 -61v-27q0 -29 -18.5 -44.5t-53.5 -15.5q-34 0 -52 15.5t-18 44.5v27q0 61 70 61zM108 480q72 0 72 -61v-27q0 -29 -18.5 -44.5t-53.5 -15.5q-34 0 -52 15.5t-18 44.5v27q0 61 70 61z" />
    <glyph glyph-name="semicolon" unicode=";" horiz-adv-x="217" 
d="M107 136q70 0 70 -59v-30q0 -30 -7 -52l-43 -136q-6 -20 -26 -20h-35q-22 0 -22 18q0 5 1 8l32 129q-38 11 -38 55v28q0 28 17 43.5t51 15.5zM108 480q72 0 72 -61v-27q0 -29 -18.5 -44.5t-53.5 -15.5q-34 0 -52 15.5t-18 44.5v27q0 61 70 61z" />
    <glyph glyph-name="less" unicode="&#x3c;" horiz-adv-x="407" 
d="M356 489q7 3 14 3q20 0 20 -24v-57q0 -24 -22 -33l-207 -85l207 -86q22 -10 22 -34v-56q0 -25 -20 -25q-7 0 -14 3l-317 142q-22 9 -22 33v45q0 24 22 33z" />
    <glyph glyph-name="equal" unicode="=" horiz-adv-x="424" 
d="M367 438q28 0 28 -28v-44q0 -28 -28 -28h-310q-28 0 -28 28v44q0 28 28 28h310zM367 263q28 0 28 -28v-44q0 -28 -28 -28h-310q-28 0 -28 28v44q0 28 28 28h310z" />
    <glyph glyph-name="greater" unicode="&#x3e;" horiz-adv-x="407" 
d="M17 468q0 24 19 24q6 0 14 -3l318 -141q22 -10 22 -33v-45q0 -24 -22 -33l-318 -142q-8 -3 -13 -3q-20 0 -20 25v56q0 24 22 34l207 86l-207 85q-22 9 -22 33v57z" />
    <glyph glyph-name="question" unicode="?" horiz-adv-x="388" 
d="M165 695q99 0 142.5 -37.5t43.5 -110.5v-19q0 -45 -17.5 -84t-61.5 -85l-33 -36q-15 -16 -20 -28t-5 -38v-24q0 -29 -28 -29h-56q-29 0 -29 29v14q0 25 1 42t5.5 30.5t12.5 25.5t22 27l55 63q12 13 19 24t11 21t5.5 20.5t1.5 24.5v15q0 29 -17 42.5t-65 13.5
q-23 0 -50.5 -4.5t-53.5 -10.5q-3 -1 -9 -1q-22 0 -22 26v44q0 26 35 32q30 6 60 9.5t53 3.5zM159 135q71 0 71 -61v-26q0 -29 -18 -44.5t-53 -15.5q-34 0 -52 15.5t-18 44.5v26q0 61 70 61z" />
    <glyph glyph-name="at" unicode="@" horiz-adv-x="917" 
d="M450 695q215 0 318.5 -93t103.5 -275v-53q0 -60 -16 -108t-45.5 -82t-72 -52.5t-95.5 -18.5q-52 0 -87 21.5t-48 62.5q-33 -38 -69.5 -61t-71.5 -23q-54 0 -85 34.5t-31 100.5q0 19 3 40l16 128q11 86 51 129t100 43q35 0 65 -15.5t50 -35.5l1 12q4 26 30 26h52
q30 0 27 -31l-35 -257q-1 -5 -1 -9.5v-9.5q0 -26 9 -38t31 -12q21 0 40 11.5t33.5 32.5t23 51t8.5 66v48q0 133 -73 197.5t-232 64.5q-140 0 -214 -75.5t-74 -213.5v-121q0 -132 64 -195t205 -63h132q29 0 29 -29v-49q0 -28 -29 -28h-132q-199 0 -292.5 90.5t-93.5 273.5
v121q0 90 25 162.5t75 124.5t126.5 80t178.5 28zM448 381q-23 0 -40.5 -18.5t-23.5 -62.5l-14 -105q-1 -8 -1.5 -14t-0.5 -12q0 -27 10.5 -38.5t28.5 -11.5q20 0 42.5 15.5t44.5 46.5l21 165q-14 17 -32 26t-35 9z" />
    <glyph glyph-name="A" unicode="A" horiz-adv-x="536" 
d="M314 655q24 0 32 -24l178 -599q2 -8 2 -11q0 -21 -26 -21h-70q-25 0 -31 24l-29 113h-209l-29 -113q-6 -24 -31 -24h-65q-25 0 -25 20q0 4 2 12l177 599q6 24 32 24h92zM185 239h161l-80 316z" />
    <glyph glyph-name="B" unicode="B" horiz-adv-x="513" 
d="M240 667q56 0 98 -12.5t70 -34t42 -51.5t14 -65v-18q0 -49 -24 -86.5t-75 -57.5q58 -11 91.5 -50.5t33.5 -98.5v-20q0 -41 -14 -74.5t-43.5 -58.5t-76 -38.5t-110.5 -13.5h-36.5t-36.5 0.5t-40.5 1.5t-48.5 2q-28 2 -28 29v613q0 28 29 29q35 2 76.5 3t78.5 1zM232 563
h-27t-30 -2v-179h73q48 0 72.5 23t24.5 64v16q0 38 -26 58t-87 20zM175 282v-185q14 -1 23.5 -2t17.5 -1.5t15 -0.5h17q66 0 94 24t28 65v18q0 39 -27 60.5t-89 21.5h-79z" />
    <glyph glyph-name="C" unicode="C" horiz-adv-x="464" 
d="M272 667q30 0 61 -3.5t66 -11.5q25 -6 25 -31v-50q0 -27 -23 -27q-5 0 -8 1q-25 5 -52.5 9.5t-55.5 4.5q-33 0 -55 -5.5t-35.5 -18t-19 -33.5t-5.5 -51v-246q0 -60 25.5 -83.5t89.5 -23.5q28 0 55 4.5t53 9.5q3 1 8 1q21 0 23 -26l1 -53q0 -25 -26 -31q-32 -6 -64 -10.5
t-63 -4.5q-62 0 -104 13t-68 39.5t-37.5 65.5t-11.5 91v261q0 53 11.5 92t38 65t68.5 39t103 13z" />
    <glyph glyph-name="D" unicode="D" horiz-adv-x="548" 
d="M248 666q125 0 189.5 -68.5t64.5 -196.5v-156q0 -122 -64 -189.5t-199 -67.5q-40 0 -79 1.5t-77 3.5q-27 1 -27 29v612q0 27 23 28q35 2 78 3t91 1zM244 561h-34.5t-34.5 -2v-461q22 -2 38.5 -3t30.5 -1q65 0 102 36.5t37 108.5v168q0 79 -36.5 116.5t-102.5 37.5z" />
    <glyph glyph-name="E" unicode="E" horiz-adv-x="467" 
d="M392 655q29 0 29 -28v-53q0 -29 -29 -29h-217v-158h197q29 0 29 -28v-52q0 -29 -29 -29h-197v-168h217q29 0 29 -29v-53q0 -28 -29 -28h-308q-28 0 -28 28v599q0 28 28 28h308z" />
    <glyph glyph-name="F" unicode="F" horiz-adv-x="450" 
d="M392 655q29 0 29 -28v-53q0 -29 -29 -29h-217v-158h153q29 0 29 -28v-52q0 -29 -29 -29h-153v-250q0 -28 -28 -28h-63q-28 0 -28 28v599q0 28 28 28h308z" />
    <glyph glyph-name="G" unicode="G" horiz-adv-x="535" 
d="M273 667q33 0 77.5 -5.5t81.5 -12.5q25 -6 25 -31l-1 -50q-2 -26 -23 -26q-5 0 -8 1q-32 6 -74 12t-74 6q-59 0 -83 -22.5t-24 -76.5v-266q0 -54 23.5 -77t79.5 -23q20 0 43 2.5t46 6.5v176h-68q-28 0 -28 28v52q0 28 28 28h160q28 0 28 -28v-304q0 -15 -6 -23.5
t-23 -13.5q-38 -12 -88 -22t-96 -10q-60 0 -102 13t-67.5 39.5t-37 65.5t-11.5 91v261q0 108 51 158.5t171 50.5z" />
    <glyph glyph-name="H" unicode="H" horiz-adv-x="557" 
d="M473 655q28 0 28 -28v-599q0 -28 -28 -28h-63q-28 0 -28 28v255h-207v-255q0 -28 -28 -28h-63q-28 0 -28 28v599q0 28 28 28h63q28 0 28 -28v-236h207v236q0 28 28 28h63z" />
    <glyph glyph-name="I" unicode="I" horiz-adv-x="231" 
d="M147 655q28 0 28 -28v-599q0 -28 -28 -28h-63q-28 0 -28 28v599q0 28 28 28h63z" />
    <glyph glyph-name="J" unicode="J" horiz-adv-x="303" 
d="M219 655q28 0 28 -28v-461q0 -91 -40 -134.5t-123 -43.5q-11 0 -29.5 1.5t-32.5 4.5q-25 6 -25 31v46q0 28 23 28q2 0 3.5 -0.5t3.5 -0.5q11 -2 22.5 -3t24.5 -1q26 0 39.5 14.5t13.5 51.5v467q0 28 29 28h63z" />
    <glyph glyph-name="K" unicode="K" horiz-adv-x="533" 
d="M472 655q24 0 24 -17q0 -9 -6 -18l-213 -285l233 -300q7 -10 7 -18q0 -17 -24 -17h-80q-21 0 -35 18l-203 271v-261q0 -28 -28 -28h-63q-28 0 -28 28v599q0 28 28 28h63q28 0 28 -28v-267l200 277q12 18 35 18h62z" />
    <glyph glyph-name="L" unicode="L" horiz-adv-x="443" 
d="M147 655q28 0 28 -28v-519h220q29 0 29 -28v-52q0 -28 -29 -28h-311q-28 0 -28 28v599q0 28 28 28h63z" />
    <glyph glyph-name="M" unicode="M" horiz-adv-x="680" 
d="M543 0q-29 0 -29 28l-5 428l-98 -359q-6 -25 -32 -25h-79q-25 0 -31 25l-98 359l-5 -428q-2 -28 -29 -28h-57q-28 0 -28 28l6 599q0 28 28 28h102q25 0 31 -24l122 -441l121 441q6 24 31 24h100q29 0 29 -28l6 -599q0 -28 -28 -28h-57z" />
    <glyph glyph-name="N" unicode="N" horiz-adv-x="559" 
d="M368 0q-23 0 -32 23l-165 440v-435q0 -28 -28 -28h-59q-28 0 -28 28v599q0 28 28 28h111q24 0 33 -23l160 -440v435q0 28 28 28h59q28 0 28 -28v-599q0 -28 -28 -28h-107z" />
    <glyph glyph-name="O" unicode="O" horiz-adv-x="553" 
d="M276 667q118 0 172 -57.5t54 -163.5v-237q0 -104 -54 -162.5t-172 -58.5q-59 0 -101.5 15t-70 43.5t-40.5 69.5t-13 93v237q0 106 53.5 163.5t171.5 57.5zM276 559q-106 0 -106 -104v-254q0 -105 106 -105t106 105v253q0 51 -26 78t-80 27z" />
    <glyph glyph-name="P" unicode="P" horiz-adv-x="499" 
d="M238 667q62 0 107 -13t74.5 -38t44 -60.5t14.5 -79.5v-22q0 -96 -56 -150t-171 -54q-16 0 -34 1.5t-42 5.5v-229q0 -28 -28 -28h-63q-28 0 -28 28v605q0 28 23 29q34 2 74 3t85 2zM238 563q-23 0 -36 -0.5t-27 -1.5v-199q23 -3 38.5 -4.5t29.5 -1.5q115 0 115 102v15
q0 44 -28 67t-92 23z" />
    <glyph glyph-name="Q" unicode="Q" horiz-adv-x="553" 
d="M276 667q118 0 172 -57.5t54 -163.5v-237q0 -66 -23 -108.5t-69 -67.5l93 -21q22 -4 22 -30v-49q0 -26 -18 -26q-3 0 -9 1t-21.5 6t-42.5 14.5t-71 27.5l-86 33h-14q-113 4 -162.5 62t-49.5 158v237q0 106 53.5 163.5t171.5 57.5zM276 559q-106 0 -106 -104v-255
q0 -105 107 -105q105 0 105 106v253q0 51 -26 78t-80 27z" />
    <glyph glyph-name="R" unicode="R" horiz-adv-x="529" 
d="M239 667q125 0 181 -50t56 -134v-24q0 -53 -28 -97t-83 -67l143 -261q5 -10 5 -16q0 -18 -24 -18h-71q-23 0 -34 20l-131 244q-5 -1 -11 -1h-14q-12 0 -26 0.5t-27 1.5v-237q0 -28 -28 -28h-63q-28 0 -28 28v601q0 32 33 34q40 2 80.5 3t69.5 1zM240 562q-12 0 -31 -0.5
t-34 -1.5v-191q23 -2 36.5 -3t28.5 -1q63 0 89.5 25t26.5 70v16q0 43 -26.5 64.5t-89.5 21.5z" />
    <glyph glyph-name="S" unicode="S" horiz-adv-x="459" 
d="M237 667q26 0 60 -3.5t69 -10.5q26 -6 25 -31v-52q-2 -26 -24 -26q-5 0 -8 1q-32 6 -63.5 10t-56.5 4q-48 0 -67 -18t-19 -52v-21q0 -27 12 -40.5t51 -26.5l88 -29q35 -12 59.5 -27t40 -36t22.5 -49.5t7 -66.5v-19q0 -90 -51.5 -138t-170.5 -48q-29 0 -65 5t-73 14
q-26 6 -26 31l1 54q0 26 22 26q6 0 9 -1q34 -9 68.5 -14t60.5 -5q59 0 82 18.5t23 53.5v26q0 26 -11.5 41t-40.5 25l-97 32q-37 12 -62 27t-40.5 35.5t-22 48.5t-6.5 67v10q0 90 48 137.5t156 47.5z" />
    <glyph glyph-name="T" unicode="T" horiz-adv-x="522" 
d="M472 655q29 0 29 -28v-53q0 -29 -29 -29h-151v-517q0 -28 -29 -28h-62q-29 0 -29 28v517h-151q-29 0 -29 29v53q0 28 29 28h422z" />
    <glyph glyph-name="U" unicode="U" horiz-adv-x="553" 
d="M469 655q29 0 29 -28v-416q0 -106 -54 -164.5t-168 -58.5q-112 0 -166 57t-54 165v417q0 28 28 28h63q28 0 28 -28v-426q0 -52 26.5 -78.5t74.5 -26.5q49 0 75.5 26.5t26.5 78.5v426q0 28 28 28h63z" />
    <glyph glyph-name="V" unicode="V" horiz-adv-x="537" 
d="M496 655q26 0 26 -21q0 -3 -2 -11l-175 -599q-6 -24 -31 -24h-94q-26 0 -32 24l-172 599q-1 4 -1 10q0 22 25 22h68q26 0 32 -25l127 -524l130 524q6 25 31 25h68z" />
    <glyph glyph-name="W" unicode="W" horiz-adv-x="832" 
d="M785 655q26 0 26 -23q0 -5 -1 -8l-130 -599q-4 -25 -31 -25h-96q-26 0 -30 25l-107 501l-105 -501q-4 -25 -30 -25h-97q-27 0 -31 25l-131 599q-1 3 -1 8q0 23 26 23h68q27 0 31 -26l90 -506l105 507q4 25 30 25h90q26 0 30 -25l106 -506l89 505q4 26 31 26h68z" />
    <glyph glyph-name="X" unicode="X" horiz-adv-x="531" 
d="M479 655q25 0 25 -18q0 -6 -5 -16l-161 -286l171 -301q5 -10 5 -16q0 -18 -25 -18h-80q-23 0 -33 21l-112 218l-113 -218q-10 -21 -34 -21h-75q-24 0 -24 18q0 8 5 16l172 302l-162 285q-5 10 -5 15q0 19 25 19h78q23 0 34 -21l104 -202l104 202q10 21 33 21h73z" />
    <glyph glyph-name="Y" unicode="Y" horiz-adv-x="513" 
d="M469 655q25 0 25 -20q0 -6 -3 -13l-175 -396v-198q0 -28 -28 -28h-63q-28 0 -28 28v198l-175 396q-3 7 -3 14q0 19 25 19h74q23 0 32 -23l107 -290l108 291q9 22 33 22h71z" />
    <glyph glyph-name="Z" unicode="Z" horiz-adv-x="476" 
d="M413 655q29 0 29 -28v-45q0 -18 -10 -35l-261 -438h242q29 0 29 -28v-53q0 -28 -29 -28h-356q-29 0 -29 28v44q0 19 10 35l261 439h-235q-29 0 -29 28v53q0 28 29 28h349z" />
    <glyph glyph-name="bracketleft" unicode="[" horiz-adv-x="262" 
d="M253 773q28 0 28 -29v-39q0 -28 -28 -28h-83v-699h83q28 0 28 -28v-40q0 -28 -28 -28h-172q-28 0 -28 28v834q0 29 28 29h172z" />
    <glyph glyph-name="backslash" unicode="\" horiz-adv-x="290" 
d="M77 683q24 0 32 -24l188 -627q2 -8 2 -11q0 -21 -26 -21h-59q-26 0 -32 24l-189 627q-2 8 -2 11q0 21 26 21h60z" />
    <glyph glyph-name="bracketright" unicode="]" horiz-adv-x="262" 
d="M180 773q29 0 29 -28v-835q0 -28 -29 -28h-171q-28 0 -28 28v40q0 28 28 28h83v699h-83q-28 0 -28 28v40q0 28 28 28h171z" />
    <glyph glyph-name="asciicircum" unicode="^" horiz-adv-x="491" 
d="M274 683q22 0 33 -21l122 -241q4 -8 4 -15q0 -18 -25 -18h-59q-23 0 -32 21l-72 162l-71 -162q-9 -21 -32 -21h-59q-24 0 -24 18q0 7 4 15l121 241q10 21 34 21h56z" />
    <glyph glyph-name="underscore" unicode="_" horiz-adv-x="585" 
d="M511 -89q28 0 28 -29v-39q0 -28 -28 -28h-437q-28 0 -28 28v39q0 29 28 29h437z" />
    <glyph glyph-name="grave" unicode="`" horiz-adv-x="244" 
d="M124 688q18 0 28 -16l47 -86q4 -7 4 -13q0 -15 -20 -15h-38q-18 0 -28 14l-66 88q-5 6 -5 14q0 14 20 14h58z" />
    <glyph glyph-name="a" unicode="a" horiz-adv-x="454" 
d="M269 511q23 0 30 -22l143 -459q1 -4 1 -10q0 -20 -23 -20h-64q-23 0 -29 23l-21 78h-162l-21 -78q-6 -23 -29 -23h-60q-23 0 -23 20q0 6 1 10l143 459q7 22 30 22h84zM164 191h121l-60 232z" />
    <glyph glyph-name="b" unicode="b" horiz-adv-x="451" 
d="M217 522q93 0 138 -36t45 -90v-16q0 -38 -19.5 -68t-62.5 -44q48 -10 75.5 -41t27.5 -78v-13q0 -69 -48.5 -108.5t-155.5 -39.5q-30 0 -63.5 0.5t-71.5 2.5q-26 2 -26 27v472q0 28 26 29q28 2 67 2.5t68 0.5zM211 429h-18t-27 -2v-124h56q35 0 51.5 16t16.5 43v12
q0 27 -18.5 41t-60.5 14zM166 215v-130q20 -2 31 -2.5t25 -0.5q48 0 68.5 16.5t20.5 45.5v13q0 28 -19 43t-64 15h-62z" />
    <glyph glyph-name="c" unicode="c" horiz-adv-x="406" 
d="M235 523q47 0 107 -12q25 -4 25 -29l-1 -44q-2 -24 -22 -24q-6 0 -9 1q-20 5 -43 8t-42 3q-51 0 -70 -18t-19 -64v-177q0 -45 19.5 -62.5t70.5 -17.5q20 0 42.5 3t42.5 7q3 1 8 1q19 0 21 -24l1 -46q1 -23 -24 -29q-27 -5 -54.5 -8t-50.5 -3q-100 0 -143 40.5t-43 128.5
v197q0 87 42 128t142 41z" />
    <glyph glyph-name="d" unicode="d" horiz-adv-x="477" 
d="M218 522q103 0 158 -55t55 -158v-113q0 -98 -54.5 -153t-166.5 -55q-32 0 -64.5 0.5t-64.5 2.5q-25 2 -25 27v474q0 26 21 27q31 2 67 2.5t74 0.5zM215 427q-11 0 -23.5 -0.5t-25.5 -1.5v-338q28 -3 49 -3q51 0 78.5 27.5t27.5 77.5v117q0 66 -27 93.5t-79 27.5z" />
    <glyph glyph-name="e" unicode="e" horiz-adv-x="412" 
d="M339 511q27 0 27 -26v-47q0 -26 -27 -26h-173v-105h156q27 0 27 -26v-45q0 -26 -27 -26h-156v-111h173q27 0 27 -26v-47q0 -26 -27 -26h-257q-26 0 -26 26v459q0 26 26 26h257z" />
    <glyph glyph-name="f" unicode="f" horiz-adv-x="395" 
d="M339 511q27 0 27 -26v-47q0 -26 -27 -26h-173v-105h119q26 0 26 -26v-44q0 -27 -26 -27h-119v-184q0 -26 -26 -26h-58q-26 0 -26 26v459q0 26 26 26h257z" />
    <glyph glyph-name="g" unicode="g" horiz-adv-x="467" 
d="M237 523q27 0 63 -4t68 -9q24 -5 24 -29l-1 -43q-2 -24 -22 -24q-2 0 -3.5 0.5t-3.5 0.5q-28 5 -61.5 8.5t-59.5 3.5q-45 0 -62.5 -15.5t-17.5 -50.5v-209q0 -35 17.5 -51t58.5 -16q13 0 30.5 2t35.5 4v125h-44q-25 0 -25 26v37q0 26 25 26h128q27 0 27 -26v-239
q0 -23 -24 -29q-34 -9 -75 -16t-78 -7q-101 0 -143.5 40.5t-42.5 126.5v201q0 85 42 126t144 41z" />
    <glyph glyph-name="h" unicode="h" horiz-adv-x="486" 
d="M404 511q27 0 27 -26v-459q0 -26 -27 -26h-58q-26 0 -26 26v187h-154v-187q0 -26 -26 -26h-58q-26 0 -26 26v459q0 26 26 26h58q26 0 26 -26v-174h154v174q0 26 26 26h58z" />
    <glyph glyph-name="i" unicode="i" horiz-adv-x="222" 
d="M140 511q26 0 26 -26v-459q0 -26 -26 -26h-58q-26 0 -26 26v459q0 26 26 26h58z" />
    <glyph glyph-name="j" unicode="j" horiz-adv-x="272" 
d="M189 511q27 0 27 -26v-346q0 -78 -34 -114.5t-105 -36.5q-10 0 -27 2t-29 4q-24 4 -24 28v43q0 24 20 24q2 0 3.5 -0.5t3.5 -0.5q8 -2 18.5 -3t19.5 -1q23 0 33 11.5t10 40.5v349q0 26 27 26h57z" />
    <glyph glyph-name="k" unicode="k" horiz-adv-x="461" 
d="M409 511q23 0 23 -15q0 -7 -7 -17l-159 -215l175 -232q7 -8 7 -16q0 -16 -22 -16h-73q-19 0 -32 17l-155 207v-198q0 -26 -26 -26h-58q-26 0 -26 26v459q0 26 26 26h58q26 0 26 -26v-199l154 208q11 17 31 17h58z" />
    <glyph glyph-name="l" unicode="l" horiz-adv-x="388" 
d="M140 511q26 0 26 -26v-386h176q27 0 27 -27v-46q0 -26 -27 -26h-260q-26 0 -26 26v459q0 26 26 26h58z" />
    <glyph glyph-name="m" unicode="m" horiz-adv-x="590" 
d="M506 511q27 0 27 -26l5 -459q0 -26 -27 -26h-54q-27 0 -27 26l-4 306l-73 -251q-6 -23 -29 -23h-60q-23 0 -29 23l-73 251l-4 -306q0 -26 -26 -26h-54q-26 0 -26 26l4 459q0 26 27 26h86q24 0 30 -22l96 -330l96 330q7 22 30 22h85z" />
    <glyph glyph-name="n" unicode="n" horiz-adv-x="488" 
d="M406 511q26 0 26 -26v-459q0 -26 -26 -26h-83q-23 0 -30 21l-131 315v-310q0 -26 -26 -26h-54q-26 0 -26 26v459q0 26 26 26h88q22 0 30 -21l126 -309v304q0 26 26 26h54z" />
    <glyph glyph-name="o" unicode="o" horiz-adv-x="480" 
d="M240 523q96 0 143 -46t47 -134v-175q0 -86 -46 -133t-144 -47t-143.5 47t-45.5 133v175q0 88 47 134t142 46zM240 426q-39 0 -59 -19.5t-20 -54.5v-188q0 -38 19.5 -58.5t59.5 -20.5t59.5 20t19.5 55v187q0 79 -79 79z" />
    <glyph glyph-name="p" unicode="p" horiz-adv-x="433" 
d="M210 522q104 0 152.5 -41t48.5 -113v-20q0 -77 -46.5 -119.5t-134.5 -42.5q-12 0 -29 1.5t-35 4.5v-166q0 -26 -26 -26h-58q-26 0 -26 26v465q0 26 20 27q16 1 34 1.5l36 1t34.5 1t29.5 0.5zM211 429q-15 0 -24.5 -0.5t-20.5 -1.5v-143q16 -2 28.5 -3t21.5 -1q44 0 64 19
t20 54v10q0 31 -21.5 48.5t-67.5 17.5z" />
    <glyph glyph-name="q" unicode="q" horiz-adv-x="480" 
d="M240 523q96 0 143 -46t47 -134v-173q0 -54 -19 -89t-57 -58l58 -12q14 -2 19 -8.5t5 -19.5l1 -37q1 -11 -4.5 -16.5t-13.5 -5.5q-9 0 -23 5l-152 60q-5 -1 -14 -1q-95 5 -137 51.5t-42 128.5v175q0 88 47 134t142 46zM240 426q-39 0 -59 -19.5t-20 -54.5v-190
q0 -37 19.5 -57.5t59.5 -20.5t59.5 19.5t19.5 54.5v189q0 79 -79 79z" />
    <glyph glyph-name="r" unicode="r" horiz-adv-x="458" 
d="M211 522q103 0 150.5 -39.5t47.5 -106.5v-16q0 -42 -23 -78t-65 -55l116 -195q5 -8 5 -15q0 -17 -23 -17h-66q-21 0 -31 19l-105 182h-27.5t-23.5 1v-176q0 -26 -26 -26h-58q-26 0 -26 26v465q0 26 24 28q32 2 66 2.5t65 0.5zM214 429q-10 0 -22.5 -0.5t-25.5 -2.5v-133
q13 -1 25 -1h22q46 0 65.5 17t19.5 48v11q0 30 -19.5 45.5t-64.5 15.5z" />
    <glyph glyph-name="s" unicode="s" horiz-adv-x="394" 
d="M203 523q23 0 50 -3t56 -8q24 -5 24 -28l-1 -46q0 -25 -21 -25q-2 0 -3.5 0.5t-3.5 0.5q-27 5 -52.5 8.5t-45.5 3.5q-35 0 -49 -12t-14 -35v-15q0 -17 9 -27t37 -18l71 -23q61 -18 85.5 -50.5t24.5 -91.5v-18q0 -71 -43 -109.5t-142 -38.5q-22 0 -53.5 3.5t-63.5 11.5
q-23 4 -23 29l1 48q0 24 21 24q5 0 8 -1q28 -7 54.5 -11.5t47.5 -4.5q47 0 64.5 12.5t17.5 35.5v19q0 18 -8.5 28t-31.5 17l-76 24q-31 10 -52.5 22.5t-34.5 29t-18.5 39t-5.5 51.5v11q0 70 40.5 108.5t130.5 38.5z" />
    <glyph glyph-name="t" unicode="t" horiz-adv-x="444" 
d="M397 511q26 0 26 -26v-47q0 -26 -26 -26h-119v-386q0 -26 -26 -26h-58q-26 0 -26 26v386h-120q-27 0 -27 26v47q0 26 27 26h349z" />
    <glyph glyph-name="u" unicode="u" horiz-adv-x="483" 
d="M401 511q26 0 26 -26v-320q0 -85 -45.5 -131t-139.5 -46t-140 45.5t-46 131.5v320q0 26 26 26h58q26 0 26 -26v-325q0 -74 76 -74q36 0 55.5 19.5t19.5 54.5v325q0 26 26 26h58z" />
    <glyph glyph-name="v" unicode="v" horiz-adv-x="458" 
d="M420 511q23 0 23 -20q0 -6 -1 -10l-141 -459q-7 -22 -30 -22h-83q-23 0 -30 22l-142 459q-1 4 -1 10q0 20 23 20h63q23 0 29 -23l99 -394l99 394q6 23 30 23h62z" />
    <glyph glyph-name="w" unicode="w" horiz-adv-x="699" 
d="M654 511q24 0 24 -21q0 -5 -1 -8l-102 -459q-6 -23 -30 -23h-85q-23 0 -28 23l-82 376l-81 -376q-5 -23 -29 -23h-86q-24 0 -29 23l-103 459q-1 3 -1 8q0 21 24 21h62q25 0 28 -24l66 -379l81 380q5 23 29 23h77q24 0 29 -23l81 -378l66 377q3 24 28 24h62z" />
    <glyph glyph-name="x" unicode="x" horiz-adv-x="444" 
d="M397 511q23 0 23 -17q0 -7 -5 -15l-130 -218l137 -229q5 -8 5 -15q0 -17 -23 -17h-67q-22 0 -31 19l-83 158l-84 -158q-10 -19 -31 -19h-68q-23 0 -23 16q0 7 6 16l137 229l-130 218q-5 8 -5 15q0 17 23 17h68q21 0 31 -19l76 -147l77 147q9 19 31 19h66z" />
    <glyph glyph-name="y" unicode="y" horiz-adv-x="441" 
d="M400 511q23 0 23 -17q0 -4 -4 -14l-143 -304v-150q0 -26 -26 -26h-58q-27 0 -27 26v150l-143 304q-2 4 -3 7t-1 6q0 18 24 18h67q22 0 30 -21l83 -215l82 215q7 21 30 21h66z" />
    <glyph glyph-name="z" unicode="z" horiz-adv-x="412" 
d="M351 511q26 0 26 -26v-39q0 -10 -2 -17.5t-7 -15.5l-205 -314h188q26 0 26 -26v-47q0 -26 -26 -26h-296q-27 0 -27 26v39q0 18 10 32l206 315h-183q-27 0 -27 26v47q0 26 27 26h290z" />
    <glyph glyph-name="braceleft" unicode="{" horiz-adv-x="277" 
d="M264 773q29 0 29 -28v-40q0 -27 -29 -29q-36 -3 -47 -19.5t-11 -57.5v-162q0 -92 -69 -110q69 -17 69 -109v-162q0 -42 11.5 -58t46.5 -19q29 -2 29 -29v-40q0 -28 -29 -28q-49 1 -82.5 11.5t-54 33t-29.5 59.5t-9 91v143q0 32 -10.5 44.5t-35.5 12.5h-10q-28 0 -28 28
v44q0 29 28 29h10q25 0 35.5 13t10.5 44v143q0 55 9 91.5t29.5 59t54 32.5t82.5 12z" />
    <glyph glyph-name="bar" unicode="|" horiz-adv-x="222" 
d="M141 788q29 0 29 -28v-865q0 -29 -29 -29h-60q-28 0 -28 29v865q0 28 28 28h60z" />
    <glyph glyph-name="braceright" unicode="}" horiz-adv-x="277" 
d="M-16 745q0 28 30 28q49 -2 82 -12t53.5 -32.5t29.5 -59t9 -91.5v-143q0 -32 11 -44.5t36 -12.5h9q28 0 28 -29v-44q0 -28 -28 -28h-9q-25 0 -36 -12.5t-11 -44.5v-143q0 -54 -9 -91t-29 -59.5t-53.5 -33t-82.5 -11.5q-30 0 -30 28v40q0 27 29 29q35 3 47 19t12 58v162
q0 92 68 109q-68 18 -68 110v162q0 41 -11 57.5t-48 19.5q-29 2 -29 29v40z" />
    <glyph glyph-name="asciitilde" unicode="~" horiz-adv-x="407" 
d="M132 362q24 0 41.5 -4t33 -9t32 -9t39.5 -4q17 0 38 5t38 11q7 3 13 3q20 0 20 -25v-44q0 -23 -21 -33q-15 -7 -38.5 -14t-51.5 -7q-25 0 -42 4t-33 9.5t-32.5 9.5t-39.5 4q-17 0 -38 -5.5t-38 -11.5q-8 -3 -13 -3q-20 0 -20 25v44q0 23 21 33q15 8 39 14.5t52 6.5z" />
    <glyph glyph-name="uni00A0" unicode="&#xa0;" horiz-adv-x="137" 
 />
    <glyph glyph-name="exclamdown" unicode="&#xa1;" horiz-adv-x="211" 
d="M71 -185q-30 0 -28 28l6 439q0 28 29 28h55q29 0 29 -28l7 -439q0 -28 -29 -28h-69zM105 375q-70 0 -70 61v26q0 29 18 44.5t52 15.5q35 0 53 -15.5t18 -44.5v-26q0 -61 -71 -61z" />
    <glyph glyph-name="cent" unicode="&#xa2;" horiz-adv-x="377" 
d="M241 576q28 0 28 -28v-51l22 -2t24 -3q28 -5 26 -31v-47q-2 -26 -25 -26q-2 0 -3.5 0.5t-3.5 0.5q-17 3 -33.5 5t-33.5 2q-45 0 -65 -21t-20 -66v-130q0 -47 20.5 -66.5t64.5 -19.5q31 0 67 6q3 1 8 1q21 0 23 -26l2 -47q1 -26 -25 -31q-13 -2 -23.5 -3t-24.5 -3v-50
q0 -28 -28 -28h-51q-28 0 -28 28v56q-122 28 -122 179v138q0 73 29.5 119t92.5 60v56q0 28 28 28h51z" />
    <glyph glyph-name="sterling" unicode="&#xa3;" horiz-adv-x="409" 
d="M249 613q21 0 45 -3t45 -8q25 -7 25 -32v-41q0 -25 -22 -25q-7 0 -10 1q-15 3 -31 5t-27 2q-47 0 -64.5 -16.5t-17.5 -53.5v-61h61q28 0 28 -28v-40q0 -29 -28 -29h-61v-79q0 -36 -9.5 -60t-28.5 -41h223q28 0 28 -28v-48q0 -28 -28 -28h-310q-28 0 -28 28v32
q0 11 2.5 19t9.5 18q13 19 19 40t6 48v99h-35q-28 0 -28 29v40q0 28 28 28h35v67q0 165 173 165z" />
    <glyph glyph-name="currency" unicode="&#xa4;" horiz-adv-x="482" 
d="M368 508q9 10 20 10q10 0 20 -10l38 -37q10 -12 10 -20q0 -10 -10 -20l-40 -40q7 -17 9.5 -34.5t2.5 -39.5v-19q0 -24 -3.5 -43t-12.5 -37l44 -42q10 -12 10 -21q0 -8 -10 -20l-37 -38q-10 -10 -21 -10t-20 10l-41 43q-38 -18 -88 -18q-51 0 -86 17l-40 -41
q-11 -11 -20 -11q-11 0 -20 11l-37 37q-10 10 -10 20q0 11 10 21l41 40q-10 18 -14 37.5t-4 44.5v19q0 23 3 41t11 36l-37 37q-10 9 -10 20q0 10 10 20l37 37q10 10 20 10q8 0 20 -10l34 -34q40 20 92 20q54 0 93 -22zM239 390q-35 0 -50.5 -20t-15.5 -52v-21
q0 -32 15.5 -52.5t50.5 -20.5t50.5 20.5t15.5 52.5v21q0 32 -15.5 52t-50.5 20z" />
    <glyph glyph-name="yen" unicode="&#xa5;" horiz-adv-x="462" 
d="M442 601q25 0 25 -18q0 -8 -4 -15l-144 -292h34q28 0 28 -28v-27q0 -29 -28 -29h-62v-35h62q28 0 28 -28v-27q0 -29 -28 -29h-62v-45q0 -28 -29 -28h-62q-29 0 -29 28v45h-62q-28 0 -28 29v27q0 28 28 28h62v35h-62q-28 0 -28 29v27q0 28 28 28h33l-143 292q-4 7 -4 15
q0 18 25 18h71q26 0 33 -22l108 -283l108 283q7 22 32 22h70z" />
    <glyph glyph-name="brokenbar" unicode="&#xa6;" horiz-adv-x="222" 
d="M141 788q29 0 29 -29v-338q0 -29 -29 -29h-60q-28 0 -28 29v338q0 29 28 29h60zM141 262q29 0 29 -28v-339q0 -28 -29 -28h-60q-28 0 -28 28v339q0 28 28 28h60z" />
    <glyph glyph-name="section" unicode="&#xa7;" horiz-adv-x="419" 
d="M223 695q23 0 44 -2.5t46 -7.5q26 -5 26 -31l-1 -43q0 -25 -22 -25q-7 0 -10 1q-21 4 -40 6t-37 2q-36 0 -50 -10.5t-14 -33.5v-26q0 -16 7.5 -26t25.5 -18l107 -48q55 -23 78 -53.5t23 -68.5v-32q0 -41 -23 -73t-67 -46q27 -13 42.5 -40t15.5 -60v-36q-1 -69 -43 -106
t-140 -37q-27 0 -51.5 3t-50.5 10q-26 6 -25 31v46q2 26 24 26q6 0 9 -1q43 -12 89 -12q40 0 55.5 10t15.5 33v24q0 20 -7 31t-25 19l-108 44q-54 22 -77.5 51t-23.5 74v27q0 45 25.5 78.5t67.5 44.5q-29 14 -45 41.5t-16 60.5v30q0 68 40 105.5t135 37.5zM215 358
q-42 -2 -61.5 -20t-19.5 -44v-20q0 -14 9 -23.5t34 -18.5l35 -12q40 2 58 19t18 43v19q0 34 -43 47z" />
    <glyph glyph-name="dieresis" unicode="&#xa8;" horiz-adv-x="382" 
d="M95 710q32 0 49 -14t17 -42v-26q0 -26 -17 -40.5t-49 -14.5q-30 0 -47.5 14.5t-17.5 40.5v26q0 28 17.5 42t47.5 14zM286 710q66 0 66 -56v-26q0 -26 -17 -40.5t-49 -14.5q-30 0 -47.5 14.5t-17.5 40.5v26q0 28 17.5 42t47.5 14z" />
    <glyph glyph-name="copyright" unicode="&#xa9;" horiz-adv-x="620" 
d="M310 616q69 0 118.5 -15.5t81.5 -43.5t47 -68t15 -88v-200q0 -48 -15 -88t-47 -68t-81.5 -43.5t-118.5 -15.5t-118 15.5t-81 43.5t-47 68t-15 88v200q0 48 15 88t47 68t81 43.5t118 15.5zM310 531q-85 0 -128 -33.5t-43 -90.5v-211q0 -57 43 -91t128 -34t128.5 34
t43.5 91v212q0 57 -43.5 90t-128.5 33zM324 474q26 0 54 -5q27 -3 26 -30v-31q-2 -27 -20 -27q-2 0 -2.5 0.5t-2.5 0.5q-11 2 -20 2h-20q-20 0 -32 -14t-12 -43v-44q0 -60 47 -60q8 0 15.5 1t16.5 2q29 3 31 -26v-30q1 -26 -26 -31q-29 -6 -55 -6q-64 0 -97.5 35.5
t-33.5 111.5v49q0 74 34 109.5t97 35.5z" />
    <glyph glyph-name="ordfeminine" unicode="&#xaa;" horiz-adv-x="451" 
d="M223 667q48 0 81.5 -9t54 -29.5t30 -54t9.5 -81.5v-239q0 -28 -29 -28h-52q-28 0 -28 28v38q-54 -78 -124 -78q-54 0 -87 35.5t-33 101.5v19q0 57 38.5 93.5t113.5 36.5q17 0 40.5 -3t43.5 -7v21q0 34 -15 47t-53 13q-19 0 -46.5 -3t-54.5 -8q-30 -3 -30 26v39
q0 27 34 31q29 5 58 8t49 3zM224 424q-61 0 -61 -55v-12q0 -25 11.5 -37.5t29.5 -12.5t38 12.5t39 43.5v56q-14 3 -30 4t-27 1zM369 103q29 0 29 -28v-47q0 -28 -29 -28h-296q-28 0 -28 28v47q0 28 28 28h296z" />
    <glyph glyph-name="guillemotleft" unicode="&#xab;" horiz-adv-x="511" 
d="M242 442q20 0 20 -15q0 -6 -4 -13l-81 -147l81 -148q4 -7 4 -13q0 -15 -21 -15h-73q-18 0 -28 16l-85 144q-5 6 -5 16q0 8 5 16l85 143q10 16 28 16h74zM434 442q20 0 20 -15q0 -6 -4 -13l-81 -147l81 -148q4 -7 4 -13q0 -15 -21 -15h-73q-18 0 -28 16l-85 144
q-5 6 -5 16q0 8 5 16l85 143q10 16 28 16h74z" />
    <glyph glyph-name="logicalnot" unicode="&#xac;" horiz-adv-x="407" 
d="M361 346q29 0 29 -29v-185q0 -28 -28 -28h-52q-28 0 -28 28v113h-237q-28 0 -28 29v43q0 29 28 29h316z" />
    <glyph glyph-name="uni00AD" unicode="&#xad;" horiz-adv-x="324" 
d="M250 343q29 0 29 -28v-39q0 -29 -29 -29h-176q-28 0 -28 29v39q0 28 28 28h176z" />
    <glyph glyph-name="registered" unicode="&#xae;" horiz-adv-x="505" 
d="M252 694q102 0 147 -47t45 -134v-32q0 -86 -45 -134t-147 -48q-101 0 -146 47t-45 135v32q0 86 44.5 133.5t146.5 47.5zM252 637q-69 0 -98.5 -28.5t-29.5 -82.5v-58q0 -54 29.5 -82.5t98.5 -28.5t99 28t30 83v58q0 56 -29.5 83.5t-99.5 27.5zM251 601q45 0 63.5 -16
t18.5 -45v-9q0 -17 -9.5 -31t-26.5 -22l35 -59q2 -3 2 -8q0 -11 -13 -11h-20q-7 0 -12 8l-35 64h-22v-60q0 -12 -12 -12h-21q-12 0 -12 12v169q0 16 15 18q19 2 30 2h19zM256 562h-11.5t-12.5 -1v-50h26q30 0 30 21v6q0 24 -32 24z" />
    <glyph glyph-name="macron" unicode="&#xaf;" horiz-adv-x="283" 
d="M229 660q24 0 24 -23v-44q0 -23 -24 -23h-176q-23 0 -23 23v44q0 23 23 23h176z" />
    <glyph glyph-name="degree" unicode="&#xb0;" horiz-adv-x="396" 
d="M198 695q85 0 127 -45t42 -130v-20q0 -86 -42 -131t-127 -45t-127 45t-42 131v20q0 85 42 130t127 45zM198 598q-29 0 -45 -18t-16 -57v-26q0 -40 16 -57.5t45 -17.5t44.5 17.5t15.5 57.5v26q0 40 -15.5 57.5t-44.5 17.5z" />
    <glyph glyph-name="plusminus" unicode="&#xb1;" horiz-adv-x="394" 
d="M223 506q28 0 28 -28v-113h102q28 0 28 -29v-44q0 -29 -28 -29h-102v-91q0 -29 -28 -29h-52q-28 0 -28 29v91h-102q-28 0 -28 29v44q0 29 28 29h102v113q0 28 28 28h52zM352 101q29 0 29 -29v-44q0 -28 -29 -28h-311q-29 0 -29 28v44q0 29 29 29h311z" />
    <glyph glyph-name="uni00B2" unicode="&#xb2;" horiz-adv-x="400" 
d="M182 760q78 0 114.5 -31t36.5 -90v-15q0 -34 -14 -63.5t-48 -63.5l-71 -74h114q23 0 23 -23v-46q0 -23 -23 -23h-227q-23 0 -23 23v34q0 19 11 31l128 145q15 17 20 28.5t5 27.5v12q0 19 -13 28.5t-44 9.5q-29 0 -71 -11q-3 -1 -8 -1q-18 0 -18 22v42q0 19 30 27
q22 6 43.5 8.5t34.5 2.5z" />
    <glyph glyph-name="uni00B3" unicode="&#xb3;" horiz-adv-x="400" 
d="M184 760q69 0 105 -30t36 -78v-11q0 -30 -16 -54t-49 -36q35 -11 54.5 -37.5t19.5 -60.5v-8q0 -54 -38 -88t-110 -34q-14 0 -39 2t-50 6q-22 3 -22 25v40q0 21 20 21h5q20 -3 41.5 -4.5t35.5 -1.5q27 0 38.5 10.5t11.5 30.5v10q0 23 -12.5 34t-41.5 11h-48q-25 0 -25 23
v33q0 24 25 24h46q26 0 37 10.5t11 32.5v10q0 17 -10.5 25.5t-34.5 8.5q-14 0 -34 -2t-40 -6q-2 0 -3 -0.5t-3 -0.5q-19 0 -19 23v39q0 22 31 26q22 3 43 5t35 2z" />
    <glyph glyph-name="acute" unicode="&#xb4;" horiz-adv-x="247" 
d="M181 688q20 0 20 -14q0 -7 -6 -14l-66 -88q-10 -14 -28 -14h-39q-21 0 -21 15q0 6 4 13l47 86q10 16 28 16h61z" />
    <glyph glyph-name="uni00B5" unicode="&#xb5;" horiz-adv-x="590" 
d="M506 511q27 0 27 -26l5 -459q0 -26 -27 -26h-54q-27 0 -27 26l-4 306l-73 -251q-6 -23 -29 -23h-60q-23 0 -29 23l-73 251l-4 -306q0 -26 -26 -26h-54q-26 0 -26 26l4 459q0 26 27 26h86q24 0 30 -22l96 -330l96 330q7 22 30 22h85z" />
    <glyph glyph-name="paragraph" unicode="&#xb6;" horiz-adv-x="561" 
d="M268 683q30 0 30 -30v-810q0 -28 -28 -28h-60q-29 0 -29 28v459h-33q-65 0 -99.5 33t-34.5 98v118q0 63 33.5 97.5t100.5 34.5h120zM477 683q28 0 28 -28v-812q0 -28 -28 -28h-60q-29 0 -29 28v812q0 28 29 28h60zM154 596q-23 0 -34 -14t-11 -53v-69q0 -38 11 -52.5
t34 -14.5h34v203h-34z" />
    <glyph glyph-name="periodcentered" unicode="&#xb7;" horiz-adv-x="217" 
d="M108 336q72 0 72 -61v-27q0 -29 -18.5 -44.5t-53.5 -15.5q-34 0 -52 15.5t-18 44.5v27q0 61 70 61z" />
    <glyph glyph-name="cedilla" unicode="&#xb8;" horiz-adv-x="231" 
d="M131 41q21 0 21 -17q0 -2 -2 -10l-16 -49h9q27 0 42.5 -18.5t15.5 -45.5v-17q0 -38 -24 -59.5t-80 -21.5q-10 0 -22.5 1t-23.5 3q-12 3 -16.5 8.5t-4.5 16.5v23q0 21 14 21h4q7 -2 16 -3t14 -1q29 0 29 23v8q0 12 -6 18t-22 6h-15q-18 0 -18 15q0 10 4 19l19 61
q6 19 26 19h36z" />
    <glyph glyph-name="uni00B9" unicode="&#xb9;" horiz-adv-x="400" 
d="M243 752q23 0 23 -23v-306h53q23 0 23 -23v-46q0 -23 -23 -23h-219q-23 0 -23 23v46q0 23 23 23h63v225h-1l-63 -25q-4 -2 -11 -2q-15 0 -18 16l-10 42q-1 3 -1 9q0 15 16 21l102 38q14 5 29 5h37z" />
    <glyph glyph-name="ordmasculine" unicode="&#xba;" horiz-adv-x="471" 
d="M235 667q94 0 138.5 -48.5t44.5 -138.5v-82q0 -92 -46 -139t-137 -47t-136.5 47t-45.5 139v82q0 90 44.5 138.5t137.5 48.5zM235 566q-31 0 -48 -19.5t-17 -57.5v-99q0 -77 65 -77q32 0 49 19.5t17 57.5v99q0 39 -17 58t-49 19zM385 103q28 0 28 -28v-47q0 -28 -28 -28
h-299q-28 0 -28 28v47q0 28 28 28h299z" />
    <glyph glyph-name="guillemotright" unicode="&#xbb;" horiz-adv-x="511" 
d="M151 442q18 0 28 -16l85 -143q5 -10 5 -16q0 -8 -5 -16l-85 -144q-10 -16 -28 -16h-73q-20 0 -20 15q0 5 3 13l81 148l-81 147q-4 7 -4 13q0 15 20 15h74zM343 442q18 0 28 -16l85 -143q5 -10 5 -16q0 -8 -5 -16l-85 -144q-10 -16 -28 -16h-73q-21 0 -21 15q0 6 4 13
l81 148l-81 147q-4 7 -4 13q0 15 20 15h74z" />
    <glyph glyph-name="onequarter" unicode="&#xbc;" horiz-adv-x="1000" 
d="M229 602q23 0 23 -23v-306h53q23 0 23 -23v-46q0 -23 -23 -23h-219q-23 0 -23 23v46q0 23 23 23h63v225h-1l-63 -25q-4 -2 -11 -2q-15 0 -18 16l-10 42q-1 3 -1 9q0 15 16 21l102 38q14 5 29 5h37zM664 601q25 0 25 -19q0 -7 -4 -15l-278 -546q-10 -21 -33 -21h-56
q-25 0 -25 19q0 7 4 15l278 546q10 21 33 21h56zM794 421q21 0 21 -17q0 -2 -2 -10l-76 -227h87v19v13.5t2 13.5l1 51q2 22 24 22h49q23 0 23 -23v-96h23q23 0 23 -24v-41q0 -23 -23 -23h-23v-56q0 -23 -23 -23h-53q-23 0 -23 23v56h-150q-19 0 -27 17l-9 20q-4 8 -4 18
q0 8 2 13l88 255q6 19 26 19h44z" />
    <glyph glyph-name="onehalf" unicode="&#xbd;" horiz-adv-x="1000" 
d="M239 602q23 0 23 -23v-306h53q23 0 23 -23v-46q0 -23 -23 -23h-219q-23 0 -23 23v46q0 23 23 23h63v225h-1l-63 -25q-4 -2 -11 -2q-15 0 -18 16l-10 42q-1 3 -1 9q0 15 16 21l102 38q14 5 29 5h37zM676 601q25 0 25 -19q0 -7 -4 -15l-278 -546q-10 -21 -33 -21h-56
q-25 0 -25 19q0 7 4 15l278 546q10 21 33 21h56zM797 429q78 0 114.5 -31t36.5 -90v-15q0 -34 -14 -63.5t-48 -63.5l-71 -74h114q23 0 23 -23v-46q0 -23 -23 -23h-227q-23 0 -23 23v34q0 19 11 31l128 145q15 17 20 28.5t5 27.5v12q0 19 -13 28.5t-44 9.5q-29 0 -71 -11
q-3 -1 -8 -1q-18 0 -18 22v42q0 19 30 27q22 6 43.5 8.5t34.5 2.5z" />
    <glyph glyph-name="threequarters" unicode="&#xbe;" horiz-adv-x="1000" 
d="M155 610q69 0 105 -30t36 -78v-11q0 -30 -16 -54t-49 -36q35 -11 54.5 -37.5t19.5 -60.5v-8q0 -54 -38 -88t-110 -34q-14 0 -39 2t-50 6q-22 3 -22 25v40q0 21 20 21h5q20 -3 41.5 -4.5t35.5 -1.5q27 0 38.5 10.5t11.5 30.5v10q0 23 -12.5 34t-41.5 11h-48q-25 0 -25 23
v33q0 24 25 24h46q26 0 37 10.5t11 32.5v10q0 17 -10.5 25.5t-34.5 8.5q-14 0 -34 -2t-40 -6q-2 0 -3 -0.5t-3 -0.5q-19 0 -19 23v39q0 22 31 26q22 3 43 5t35 2zM640 601q25 0 25 -19q0 -7 -4 -15l-278 -546q-10 -21 -33 -21h-56q-25 0 -25 19q0 7 4 15l278 546
q10 21 33 21h56zM777 421q21 0 21 -17q0 -2 -2 -10l-76 -227h87v19v13.5t2 13.5l1 51q2 22 24 22h49q23 0 23 -23v-96h23q23 0 23 -24v-41q0 -23 -23 -23h-23v-56q0 -23 -23 -23h-53q-23 0 -23 23v56h-150q-19 0 -27 17l-9 20q-4 8 -4 18q0 8 2 13l88 255q6 19 26 19h44z
" />
    <glyph glyph-name="questiondown" unicode="&#xbf;" horiz-adv-x="385" 
d="M220 -197q-99 0 -142.5 37.5t-43.5 110.5v19q0 45 17.5 84t61.5 85l33 36q15 16 20 28t5 38v24q0 29 28 29h56q29 0 29 -29v-14q0 -25 -1 -42t-5.5 -30.5t-12.5 -25.5t-22 -27l-55 -63q-12 -14 -19 -24.5t-11 -20.5t-5.5 -20.5t-1.5 -24.5v-15q0 -29 17 -42.5t65 -13.5
q23 0 50.5 4.5t53.5 10.5q3 1 9 1q22 0 22 -26v-44q0 -26 -35 -32q-30 -6 -60 -9.5t-53 -3.5zM226 363q-71 0 -71 61v26q0 29 18 44.5t53 15.5q34 0 52 -15.5t18 -44.5v-26q0 -61 -70 -61z" />
    <glyph glyph-name="Agrave" unicode="&#xc0;" horiz-adv-x="536" 
d="M314 655q24 0 32 -24l178 -599q2 -8 2 -11q0 -21 -26 -21h-70q-25 0 -31 24l-29 113h-209l-29 -113q-6 -24 -31 -24h-65q-25 0 -25 20q0 4 2 12l177 599q6 24 32 24h92zM185 239h161l-80 316zM227 844q19 0 28 -16l50 -92q4 -7 4 -13q0 -15 -20 -15h-46q-17 0 -28 14
l-70 94q-5 6 -5 14q0 14 20 14h67z" />
    <glyph glyph-name="Aacute" unicode="&#xc1;" horiz-adv-x="536" 
d="M314 655q24 0 32 -24l178 -599q2 -8 2 -11q0 -21 -26 -21h-70q-25 0 -31 24l-29 113h-209l-29 -113q-6 -24 -31 -24h-65q-25 0 -25 20q0 4 2 12l177 599q6 24 32 24h92zM185 239h161l-80 316zM365 844q20 0 20 -14q0 -8 -5 -14l-70 -94q-11 -14 -28 -14h-46q-20 0 -20 15
q0 5 3 13l51 92q9 16 28 16h67z" />
    <glyph glyph-name="Acircumflex" unicode="&#xc2;" horiz-adv-x="536" 
d="M314 655q24 0 32 -24l178 -599q2 -8 2 -11q0 -21 -26 -21h-70q-25 0 -31 24l-29 113h-209l-29 -113q-6 -24 -31 -24h-65q-25 0 -25 20q0 4 2 12l177 599q6 24 32 24h92zM185 239h161l-80 316zM253 860q7 3 15 3q7 0 16 -3l113 -51q11 -5 14 -11t3 -17v-39q0 -21 -17 -21
q-2 0 -10 2l-118 43l-119 -43q-8 -2 -10 -2q-17 0 -17 21v39q0 11 3.5 17t14.5 11z" />
    <glyph glyph-name="Atilde" unicode="&#xc3;" horiz-adv-x="536" 
d="M314 655q24 0 32 -24l178 -599q2 -8 2 -11q0 -21 -26 -21h-70q-25 0 -31 24l-29 113h-209l-29 -113q-6 -24 -31 -24h-65q-25 0 -25 20q0 4 2 12l177 599q6 24 32 24h92zM185 239h161l-80 316zM387 822q6 3 11 3q16 0 16 -21v-39q0 -9 -3 -16t-11 -12q-11 -8 -30 -15.5
t-41 -7.5q-17 0 -32.5 4.5t-30.5 9.5t-29.5 9.5t-29.5 4.5q-14 0 -29 -5t-28 -10q-6 -3 -11 -3q-16 0 -16 21v39q0 9 3 16t11 12q11 8 30 15.5t42 7.5q20 0 36.5 -4.5t30.5 -9.5t27.5 -9.5t27.5 -4.5t28.5 4.5t27.5 10.5z" />
    <glyph glyph-name="Adieresis" unicode="&#xc4;" horiz-adv-x="536" 
d="M314 655q24 0 32 -24l178 -599q2 -8 2 -11q0 -21 -26 -21h-70q-25 0 -31 24l-29 113h-209l-29 -113q-6 -24 -31 -24h-65q-25 0 -25 20q0 4 2 12l177 599q6 24 32 24h92zM185 239h161l-80 316zM173 847q32 0 49 -14.5t17 -42.5v-26q0 -26 -17 -41t-49 -15q-31 0 -48.5 15
t-17.5 41v26q0 28 17.5 42.5t48.5 14.5zM363 847q67 0 67 -57v-26q0 -26 -17.5 -41t-49.5 -15q-30 0 -48 15t-18 41v26q0 28 18 42.5t48 14.5z" />
    <glyph glyph-name="Aring" unicode="&#xc5;" horiz-adv-x="536" 
d="M269 821q58 0 91.5 -27.5t33.5 -82.5q0 -65 -45 -91l175 -588q1 -4 1 -11q0 -21 -25 -21h-70q-25 0 -31 24l-29 113h-209l-29 -113q-6 -24 -31 -24h-65q-25 0 -25 20q0 4 2 12l173 589q-43 28 -43 90q0 55 33 82.5t93 27.5zM269 751q-21 0 -30 -11t-9 -28t9 -28t30 -11
q20 0 29 11t9 28t-9 28t-29 11zM185 239h161l-80 319z" />
    <glyph glyph-name="AE" unicode="&#xc6;" horiz-adv-x="759" 
d="M685 655q28 0 28 -28v-53q0 -29 -28 -29h-217v-158h197q28 0 28 -28v-52q0 -29 -28 -29h-197v-168h217q28 0 28 -29v-53q0 -28 -28 -28h-308q-29 0 -29 28v115h-165l-47 -121q-7 -22 -33 -22h-67q-25 0 -25 19q0 6 3 14l248 600q9 22 33 22h390zM224 252h124v311z" />
    <glyph glyph-name="Ccedilla" unicode="&#xc7;" horiz-adv-x="464" 
d="M272 667q30 0 61 -4t66 -11q25 -4 25 -31v-50q0 -27 -23 -27q-5 0 -8 1q-25 5 -52.5 9.5t-55.5 4.5q-33 0 -55 -5.5t-35.5 -18t-19 -33.5t-5.5 -51v-246q0 -60 25.5 -83.5t89.5 -23.5q28 0 55 4.5t53 9.5q3 1 8 1q21 0 23 -26l1 -53q0 -25 -26 -31q-26 -5 -52.5 -9
t-52.5 -5l-8 -24h9q28 0 43.5 -18.5t15.5 -45.5v-17q0 -38 -24 -59.5t-81 -21.5q-10 0 -22.5 1t-22.5 3q-22 5 -22 25v23q0 21 14 21h4q8 -2 17 -3t14 -1q28 0 28 23v8q0 12 -6 18t-22 6h-15q-18 0 -18 15q0 10 4 19l10 31q-89 12 -125 63t-36 142v261q0 53 11.5 92t38 65
t68.5 39t103 13z" />
    <glyph glyph-name="Egrave" unicode="&#xc8;" horiz-adv-x="467" 
d="M392 655q29 0 29 -28v-53q0 -29 -29 -29h-217v-158h197q29 0 29 -28v-52q0 -29 -29 -29h-197v-168h217q29 0 29 -29v-53q0 -28 -29 -28h-308q-28 0 -28 28v599q0 28 28 28h308zM198 844q19 0 28 -16l50 -92q4 -7 4 -13q0 -15 -20 -15h-46q-17 0 -28 14l-70 94q-5 6 -5 14
q0 14 20 14h67z" />
    <glyph glyph-name="Eacute" unicode="&#xc9;" horiz-adv-x="467" 
d="M392 655q29 0 29 -28v-53q0 -29 -29 -29h-217v-158h197q29 0 29 -28v-52q0 -29 -29 -29h-197v-168h217q29 0 29 -29v-53q0 -28 -29 -28h-308q-28 0 -28 28v599q0 28 28 28h308zM337 844q20 0 20 -14q0 -8 -5 -14l-70 -94q-11 -14 -28 -14h-46q-20 0 -20 15q0 5 3 13
l51 92q9 16 28 16h67z" />
    <glyph glyph-name="Ecircumflex" unicode="&#xca;" horiz-adv-x="467" 
d="M392 655q29 0 29 -28v-53q0 -29 -29 -29h-217v-158h197q29 0 29 -28v-52q0 -29 -29 -29h-197v-168h217q29 0 29 -29v-53q0 -28 -29 -28h-308q-28 0 -28 28v599q0 28 28 28h308zM224 860q7 3 15 3q7 0 16 -3l113 -51q11 -5 14 -11t3 -17v-39q0 -21 -17 -21q-2 0 -10 2
l-118 43l-119 -43q-8 -2 -10 -2q-17 0 -17 21v39q0 11 3.5 17t14.5 11z" />
    <glyph glyph-name="Edieresis" unicode="&#xcb;" horiz-adv-x="467" 
d="M392 655q29 0 29 -28v-53q0 -29 -29 -29h-217v-158h197q29 0 29 -28v-52q0 -29 -29 -29h-197v-168h217q29 0 29 -29v-53q0 -28 -29 -28h-308q-28 0 -28 28v599q0 28 28 28h308zM144 847q32 0 49 -14.5t17 -42.5v-26q0 -26 -17 -41t-49 -15q-31 0 -48.5 15t-17.5 41v26
q0 28 17.5 42.5t48.5 14.5zM334 847q67 0 67 -57v-26q0 -26 -17.5 -41t-49.5 -15q-30 0 -48 15t-18 41v26q0 28 18 42.5t48 14.5z" />
    <glyph glyph-name="Igrave" unicode="&#xcc;" horiz-adv-x="231" 
d="M147 655q28 0 28 -28v-599q0 -28 -28 -28h-63q-28 0 -28 28v599q0 28 28 28h63zM75 844q19 0 28 -16l50 -92q4 -7 4 -13q0 -15 -20 -15h-46q-17 0 -28 14l-70 94q-5 6 -5 14q0 14 20 14h67z" />
    <glyph glyph-name="Iacute" unicode="&#xcd;" horiz-adv-x="231" 
d="M147 655q28 0 28 -28v-599q0 -28 -28 -28h-63q-28 0 -28 28v599q0 28 28 28h63zM213 844q20 0 20 -14q0 -8 -5 -14l-70 -94q-11 -14 -28 -14h-46q-20 0 -20 15q0 5 3 13l51 92q9 16 28 16h67z" />
    <glyph glyph-name="Icircumflex" unicode="&#xce;" horiz-adv-x="231" 
d="M147 655q28 0 28 -28v-599q0 -28 -28 -28h-63q-28 0 -28 28v599q0 28 28 28h63zM101 860q7 3 15 3q7 0 16 -3l113 -51q11 -5 14 -11t3 -17v-39q0 -21 -17 -21q-2 0 -10 2l-118 43l-119 -43q-8 -2 -10 -2q-17 0 -17 21v39q0 11 3.5 17t14.5 11z" />
    <glyph glyph-name="Idieresis" unicode="&#xcf;" horiz-adv-x="231" 
d="M147 655q28 0 28 -28v-599q0 -28 -28 -28h-63q-28 0 -28 28v599q0 28 28 28h63zM21 847q32 0 49 -14.5t17 -42.5v-26q0 -26 -17 -41t-49 -15q-31 0 -48.5 15t-17.5 41v26q0 28 17.5 42.5t48.5 14.5zM211 847q67 0 67 -57v-26q0 -26 -17.5 -41t-49.5 -15q-30 0 -48 15
t-18 41v26q0 28 18 42.5t48 14.5z" />
    <glyph glyph-name="Eth" unicode="&#xd0;" horiz-adv-x="564" 
d="M264 667q124 0 189 -69t65 -197v-156q0 -122 -64 -189.5t-199 -67.5q-40 0 -79 1.5t-77 3.5q-28 0 -28 29v269h-41q-26 0 -26 29v40q0 28 26 28h41v248q0 26 21 28q36 1 79.5 2t92.5 1zM259 562h-34t-34 -1v-173h90q26 0 26 -28v-40q0 -29 -26 -29h-90v-193
q21 -2 37.5 -3t30.5 -1q65 0 102 36.5t37 108.5v168q0 80 -36.5 117.5t-102.5 37.5z" />
    <glyph glyph-name="Ntilde" unicode="&#xd1;" horiz-adv-x="559" 
d="M368 0q-23 0 -32 23l-165 440v-435q0 -28 -28 -28h-59q-28 0 -28 28v599q0 28 28 28h111q24 0 33 -23l160 -440v435q0 28 28 28h59q28 0 28 -28v-599q0 -28 -28 -28h-107zM401 822q6 3 11 3q16 0 16 -21v-39q0 -9 -3 -16t-11 -12q-11 -8 -30 -15.5t-41 -7.5
q-17 0 -32.5 4.5t-30.5 9.5t-29.5 9.5t-29.5 4.5q-14 0 -29 -5t-28 -10q-6 -3 -11 -3q-16 0 -16 21v39q0 9 3 16t11 12q11 8 30 15.5t42 7.5q20 0 36.5 -4.5t30.5 -9.5t27.5 -9.5t27.5 -4.5t28.5 4.5t27.5 10.5z" />
    <glyph glyph-name="Ograve" unicode="&#xd2;" horiz-adv-x="553" 
d="M276 667q118 0 172 -57.5t54 -163.5v-237q0 -104 -54 -162.5t-172 -58.5q-59 0 -101.5 15t-70 43.5t-40.5 69.5t-13 93v237q0 106 53.5 163.5t171.5 57.5zM276 559q-106 0 -106 -104v-254q0 -105 106 -105t106 105v253q0 51 -26 78t-80 27zM235 844q19 0 28 -16l50 -92
q4 -7 4 -13q0 -15 -20 -15h-46q-17 0 -28 14l-70 94q-5 6 -5 14q0 14 20 14h67z" />
    <glyph glyph-name="Oacute" unicode="&#xd3;" horiz-adv-x="553" 
d="M276 667q118 0 172 -57.5t54 -163.5v-237q0 -104 -54 -162.5t-172 -58.5q-59 0 -101.5 15t-70 43.5t-40.5 69.5t-13 93v237q0 106 53.5 163.5t171.5 57.5zM276 559q-106 0 -106 -104v-254q0 -105 106 -105t106 105v253q0 51 -26 78t-80 27zM374 844q20 0 20 -14
q0 -8 -5 -14l-70 -94q-11 -14 -28 -14h-46q-20 0 -20 15q0 5 3 13l51 92q9 16 28 16h67z" />
    <glyph glyph-name="Ocircumflex" unicode="&#xd4;" horiz-adv-x="553" 
d="M276 667q118 0 172 -57.5t54 -163.5v-237q0 -104 -54 -162.5t-172 -58.5q-59 0 -101.5 15t-70 43.5t-40.5 69.5t-13 93v237q0 106 53.5 163.5t171.5 57.5zM276 559q-106 0 -106 -104v-254q0 -105 106 -105t106 105v253q0 51 -26 78t-80 27zM261 860q7 3 15 3q7 0 16 -3
l113 -51q11 -5 14 -11t3 -17v-39q0 -21 -17 -21q-2 0 -10 2l-118 43l-119 -43q-8 -2 -10 -2q-17 0 -17 21v39q0 11 3.5 17t14.5 11z" />
    <glyph glyph-name="Otilde" unicode="&#xd5;" horiz-adv-x="553" 
d="M276 667q118 0 172 -57.5t54 -163.5v-237q0 -104 -54 -162.5t-172 -58.5q-59 0 -101.5 15t-70 43.5t-40.5 69.5t-13 93v237q0 106 53.5 163.5t171.5 57.5zM276 559q-106 0 -106 -104v-254q0 -105 106 -105t106 105v253q0 51 -26 78t-80 27zM395 822q6 3 11 3q16 0 16 -21
v-39q0 -9 -3 -16t-11 -12q-11 -8 -30 -15.5t-41 -7.5q-17 0 -32.5 4.5t-30.5 9.5t-29.5 9.5t-29.5 4.5q-14 0 -29 -5t-28 -10q-6 -3 -11 -3q-16 0 -16 21v39q0 9 3 16t11 12q11 8 30 15.5t42 7.5q20 0 36.5 -4.5t30.5 -9.5t27.5 -9.5t27.5 -4.5t28.5 4.5t27.5 10.5z" />
    <glyph glyph-name="Odieresis" unicode="&#xd6;" horiz-adv-x="553" 
d="M276 667q118 0 172 -57.5t54 -163.5v-237q0 -104 -54 -162.5t-172 -58.5q-59 0 -101.5 15t-70 43.5t-40.5 69.5t-13 93v237q0 106 53.5 163.5t171.5 57.5zM276 559q-106 0 -106 -104v-254q0 -105 106 -105t106 105v253q0 51 -26 78t-80 27zM181 847q32 0 49 -14.5
t17 -42.5v-26q0 -26 -17 -41t-49 -15q-31 0 -48.5 15t-17.5 41v26q0 28 17.5 42.5t48.5 14.5zM371 847q67 0 67 -57v-26q0 -26 -17.5 -41t-49.5 -15q-30 0 -48 15t-18 41v26q0 28 18 42.5t48 14.5z" />
    <glyph glyph-name="multiply" unicode="&#xd7;" horiz-adv-x="407" 
d="M283 448q10 10 20 10q8 0 20 -10l31 -32q11 -11 11 -20q0 -10 -10 -20l-79 -79l80 -80q10 -10 10 -21q0 -10 -10 -20l-35 -34q-11 -9 -20 -9q-11 0 -20 9l-80 80l-78 -78q-10 -10 -20 -10q-11 0 -20 10l-31 32q-11 11 -11 20q0 10 10 20l78 78l-80 80q-10 9 -10 20t10 21
l34 35q10 10 20 10q11 0 21 -10l81 -81z" />
    <glyph glyph-name="Oslash" unicode="&#xd8;" horiz-adv-x="553" 
d="M502 705q25 0 25 -18q0 -6 -5 -16l-51 -93q31 -52 31 -132v-237q0 -104 -54 -162.5t-172 -58.5q-36 0 -65.5 5.5t-52.5 16.5l-24 -40q-11 -20 -34 -20h-52q-25 0 -25 19q0 5 5 15l53 93q-16 26 -23 59.5t-7 72.5v237q0 106 53.5 163.5t171.5 57.5q70 0 118 -23l23 41
q10 20 34 20h51zM276 559q-106 0 -106 -104v-208q0 -8 0.5 -15t1.5 -14l176 320q-26 21 -72 21zM204 116q24 -20 72 -20q106 0 106 105v208v14t-2 13z" />
    <glyph glyph-name="Ugrave" unicode="&#xd9;" horiz-adv-x="553" 
d="M469 655q29 0 29 -28v-416q0 -106 -54 -164.5t-168 -58.5q-112 0 -166 57t-54 165v417q0 28 28 28h63q28 0 28 -28v-426q0 -52 26.5 -78.5t74.5 -26.5q49 0 75.5 26.5t26.5 78.5v426q0 28 28 28h63zM235 844q19 0 28 -16l50 -92q4 -7 4 -13q0 -15 -20 -15h-46
q-17 0 -28 14l-70 94q-5 6 -5 14q0 14 20 14h67z" />
    <glyph glyph-name="Uacute" unicode="&#xda;" horiz-adv-x="553" 
d="M469 655q29 0 29 -28v-416q0 -106 -54 -164.5t-168 -58.5q-112 0 -166 57t-54 165v417q0 28 28 28h63q28 0 28 -28v-426q0 -52 26.5 -78.5t74.5 -26.5q49 0 75.5 26.5t26.5 78.5v426q0 28 28 28h63zM374 844q20 0 20 -14q0 -8 -5 -14l-70 -94q-11 -14 -28 -14h-46
q-20 0 -20 15q0 5 3 13l51 92q9 16 28 16h67z" />
    <glyph glyph-name="Ucircumflex" unicode="&#xdb;" horiz-adv-x="553" 
d="M469 655q29 0 29 -28v-416q0 -106 -54 -164.5t-168 -58.5q-112 0 -166 57t-54 165v417q0 28 28 28h63q28 0 28 -28v-426q0 -52 26.5 -78.5t74.5 -26.5q49 0 75.5 26.5t26.5 78.5v426q0 28 28 28h63zM261 860q7 3 15 3q7 0 16 -3l113 -51q11 -5 14 -11t3 -17v-39
q0 -21 -17 -21q-2 0 -10 2l-118 43l-119 -43q-8 -2 -10 -2q-17 0 -17 21v39q0 11 3.5 17t14.5 11z" />
    <glyph glyph-name="Udieresis" unicode="&#xdc;" horiz-adv-x="553" 
d="M469 655q29 0 29 -28v-416q0 -106 -54 -164.5t-168 -58.5q-112 0 -166 57t-54 165v417q0 28 28 28h63q28 0 28 -28v-426q0 -52 26.5 -78.5t74.5 -26.5q49 0 75.5 26.5t26.5 78.5v426q0 28 28 28h63zM181 847q32 0 49 -14.5t17 -42.5v-26q0 -26 -17 -41t-49 -15
q-31 0 -48.5 15t-17.5 41v26q0 28 17.5 42.5t48.5 14.5zM371 847q67 0 67 -57v-26q0 -26 -17.5 -41t-49.5 -15q-30 0 -48 15t-18 41v26q0 28 18 42.5t48 14.5z" />
    <glyph glyph-name="Yacute" unicode="&#xdd;" horiz-adv-x="513" 
d="M469 655q25 0 25 -20q0 -6 -3 -13l-175 -396v-198q0 -28 -28 -28h-63q-28 0 -28 28v198l-175 396q-3 7 -3 14q0 19 25 19h74q23 0 32 -23l107 -290l108 291q9 22 33 22h71zM354 844q20 0 20 -14q0 -8 -5 -14l-70 -94q-11 -14 -28 -14h-46q-20 0 -20 15q0 5 3 13l51 92
q9 16 28 16h67z" />
    <glyph glyph-name="Thorn" unicode="&#xde;" horiz-adv-x="493" 
d="M147 655q28 0 28 -28v-85q40 3 63 3q123 0 181 -50.5t58 -140.5v-22q0 -95 -56 -149t-170 -54q-16 0 -34 1.5t-42 5.5v-108q0 -28 -28 -28h-63q-28 0 -28 28v599q0 28 28 28h63zM238 442q-21 0 -34 -1t-29 -2v-198q23 -3 38.5 -4.5t29.5 -1.5q114 0 114 101v15
q0 45 -28 68t-91 23z" />
    <glyph glyph-name="germandbls" unicode="&#xdf;" horiz-adv-x="781" 
d="M203 523q23 0 50 -3t56 -8q24 -5 24 -28l-1 -46q0 -25 -21 -25q-2 0 -3.5 0.5t-3.5 0.5q-27 5 -52.5 8.5t-45.5 3.5q-35 0 -49 -12t-14 -35v-15q0 -17 9 -27t37 -18l71 -23q61 -18 85.5 -50.5t24.5 -91.5v-18q0 -71 -43 -109.5t-142 -38.5q-22 0 -53.5 3.5t-63.5 11.5
q-23 4 -23 29l1 48q0 24 21 24q5 0 8 -1q28 -7 54.5 -11.5t47.5 -4.5q47 0 64.5 12.5t17.5 35.5v19q0 18 -8.5 28t-31.5 17l-76 24q-31 10 -52.5 22.5t-34.5 29t-18.5 39t-5.5 51.5v11q0 70 40.5 108.5t130.5 38.5zM589 523q23 0 50 -3t56 -8q24 -5 24 -28l-1 -46
q0 -25 -21 -25q-2 0 -3.5 0.5t-3.5 0.5q-27 5 -52.5 8.5t-45.5 3.5q-35 0 -49 -12t-14 -35v-15q0 -17 9 -27t37 -18l71 -23q61 -18 85.5 -50.5t24.5 -91.5v-18q0 -71 -43 -109.5t-142 -38.5q-22 0 -53.5 3.5t-63.5 11.5q-23 4 -23 29l1 48q0 24 21 24q5 0 8 -1
q28 -7 54.5 -11.5t47.5 -4.5q47 0 64.5 12.5t17.5 35.5v19q0 18 -8.5 28t-31.5 17l-76 24q-31 10 -52.5 22.5t-34.5 29t-18.5 39t-5.5 51.5v11q0 70 40.5 108.5t130.5 38.5z" />
    <glyph glyph-name="agrave" unicode="&#xe0;" horiz-adv-x="454" 
d="M269 511q23 0 30 -22l143 -459q1 -4 1 -10q0 -20 -23 -20h-64q-23 0 -29 23l-21 78h-162l-21 -78q-6 -23 -29 -23h-60q-23 0 -23 20q0 6 1 10l143 459q7 22 30 22h84zM164 191h121l-60 232zM187 688q18 0 28 -16l47 -86q4 -7 4 -13q0 -15 -20 -15h-38q-18 0 -28 14
l-66 88q-5 6 -5 14q0 14 20 14h58z" />
    <glyph glyph-name="aacute" unicode="&#xe1;" horiz-adv-x="454" 
d="M269 511q23 0 30 -22l143 -459q1 -4 1 -10q0 -20 -23 -20h-64q-23 0 -29 23l-21 78h-162l-21 -78q-6 -23 -29 -23h-60q-23 0 -23 20q0 6 1 10l143 459q7 22 30 22h84zM164 191h121l-60 232zM325 688q20 0 20 -14q0 -7 -6 -14l-66 -88q-10 -14 -28 -14h-39q-21 0 -21 15
q0 6 4 13l47 86q10 16 28 16h61z" />
    <glyph glyph-name="acircumflex" unicode="&#xe2;" horiz-adv-x="454" 
d="M269 511q23 0 30 -22l143 -459q1 -4 1 -10q0 -20 -23 -20h-64q-23 0 -29 23l-21 78h-162l-21 -78q-6 -23 -29 -23h-60q-23 0 -23 20q0 6 1 10l143 459q7 22 30 22h84zM164 191h121l-60 232zM212 699q7 3 15 3q7 0 16 -3l93 -43q17 -8 17 -28v-35q0 -21 -17 -21
q-2 0 -10 2l-99 38l-99 -38q-8 -2 -10 -2q-17 0 -17 21v35q0 20 17 28z" />
    <glyph glyph-name="atilde" unicode="&#xe3;" horiz-adv-x="454" 
d="M269 511q23 0 30 -22l143 -459q1 -4 1 -10q0 -20 -23 -20h-64q-23 0 -29 23l-21 78h-162l-21 -78q-6 -23 -29 -23h-60q-23 0 -23 20q0 6 1 10l143 459q7 22 30 22h84zM164 191h121l-60 232zM330 672q6 3 12 3q15 0 15 -20v-36q0 -10 -3 -16.5t-11 -11.5q-11 -6 -26 -11.5
t-35 -5.5q-14 0 -27 3.5t-25 7.5t-24.5 7.5t-25.5 3.5q-11 0 -23 -3t-23 -7q-8 -3 -12 -3q-15 0 -15 20v36q0 20 14 28q11 6 26 11.5t35 5.5q18 0 31.5 -3.5t25 -7.5t22.5 -7.5t23 -3.5q11 0 23 3t23 7z" />
    <glyph glyph-name="adieresis" unicode="&#xe4;" horiz-adv-x="454" 
d="M269 511q23 0 30 -22l143 -459q1 -4 1 -10q0 -20 -23 -20h-64q-23 0 -29 23l-21 78h-162l-21 -78q-6 -23 -29 -23h-60q-23 0 -23 20q0 6 1 10l143 459q7 22 30 22h84zM164 191h121l-60 232zM131 710q32 0 49 -14t17 -42v-26q0 -26 -17 -40.5t-49 -14.5q-30 0 -47.5 14.5
t-17.5 40.5v26q0 28 17.5 42t47.5 14zM322 710q66 0 66 -56v-26q0 -26 -17 -40.5t-49 -14.5q-30 0 -47.5 14.5t-17.5 40.5v26q0 28 17.5 42t47.5 14z" />
    <glyph glyph-name="aring" unicode="&#xe5;" horiz-adv-x="454" 
d="M225 688q52 0 83.5 -24.5t31.5 -75.5q0 -62 -46 -85l148 -473q1 -4 1 -10q0 -20 -23 -20h-64q-23 0 -29 23l-21 78h-162l-21 -78q-6 -23 -29 -23h-60q-23 0 -23 20q0 6 1 10l147 471q-24 11 -37.5 33t-13.5 54q0 51 31.5 75.5t85.5 24.5zM225 621q-32 0 -32 -31
q0 -32 32 -32q31 0 31 32q0 31 -31 31zM164 191h121l-60 232z" />
    <glyph glyph-name="ae" unicode="&#xe6;" horiz-adv-x="642" 
d="M570 511q27 0 27 -26v-47q0 -26 -27 -26h-173v-105h156q27 0 27 -26v-45q0 -26 -27 -26h-156v-111h173q27 0 27 -26v-47q0 -26 -27 -26h-257q-27 0 -27 26v75h-127l-32 -80q-8 -21 -30 -21h-64q-23 0 -23 19q0 4 3 12l192 460q9 20 30 20h335zM192 191h94v241z" />
    <glyph glyph-name="ccedilla" unicode="&#xe7;" horiz-adv-x="406" 
d="M235 523q47 0 107 -12q25 -4 25 -29l-1 -44q-2 -24 -22 -24q-6 0 -9 1q-20 5 -43 8t-42 3q-51 0 -70 -18t-19 -64v-177q0 -45 19.5 -62.5t70.5 -17.5q20 0 42.5 3t42.5 7q3 1 8 1q19 0 21 -24l1 -46q1 -23 -24 -29q-20 -4 -40.5 -6.5t-40.5 -3.5l-7 -24h9
q27 0 42.5 -18.5t15.5 -45.5v-17q0 -38 -24 -59.5t-80 -21.5q-10 0 -23 1t-23 3q-12 3 -16.5 8.5t-4.5 16.5v23q0 21 14 21h4q7 -2 16 -3t14 -1q29 0 29 23v8q0 24 -29 24h-15q-17 0 -17 16q0 7 3 18l10 31q-68 11 -98 51.5t-30 113.5v197q0 87 42 128t142 41z" />
    <glyph glyph-name="egrave" unicode="&#xe8;" horiz-adv-x="412" 
d="M339 511q27 0 27 -26v-47q0 -26 -27 -26h-173v-105h156q27 0 27 -26v-45q0 -26 -27 -26h-156v-111h173q27 0 27 -26v-47q0 -26 -27 -26h-257q-26 0 -26 26v459q0 26 26 26h257zM169 688q18 0 28 -16l47 -86q4 -7 4 -13q0 -15 -20 -15h-38q-18 0 -28 14l-66 88q-5 6 -5 14
q0 14 20 14h58z" />
    <glyph glyph-name="eacute" unicode="&#xe9;" horiz-adv-x="412" 
d="M339 511q27 0 27 -26v-47q0 -26 -27 -26h-173v-105h156q27 0 27 -26v-45q0 -26 -27 -26h-156v-111h173q27 0 27 -26v-47q0 -26 -27 -26h-257q-26 0 -26 26v459q0 26 26 26h257zM307 688q20 0 20 -14q0 -7 -6 -14l-66 -88q-10 -14 -28 -14h-39q-21 0 -21 15q0 6 4 13
l47 86q10 16 28 16h61z" />
    <glyph glyph-name="ecircumflex" unicode="&#xea;" horiz-adv-x="412" 
d="M339 511q27 0 27 -26v-47q0 -26 -27 -26h-173v-105h156q27 0 27 -26v-45q0 -26 -27 -26h-156v-111h173q27 0 27 -26v-47q0 -26 -27 -26h-257q-26 0 -26 26v459q0 26 26 26h257zM195 699q7 3 15 3q7 0 16 -3l93 -43q17 -8 17 -28v-35q0 -21 -17 -21q-2 0 -10 2l-99 38
l-99 -38q-8 -2 -10 -2q-17 0 -17 21v35q0 20 17 28z" />
    <glyph glyph-name="edieresis" unicode="&#xeb;" horiz-adv-x="412" 
d="M339 511q27 0 27 -26v-47q0 -26 -27 -26h-173v-105h156q27 0 27 -26v-45q0 -26 -27 -26h-156v-111h173q27 0 27 -26v-47q0 -26 -27 -26h-257q-26 0 -26 26v459q0 26 26 26h257zM113 710q32 0 49 -14t17 -42v-26q0 -26 -17 -40.5t-49 -14.5q-30 0 -47.5 14.5t-17.5 40.5
v26q0 28 17.5 42t47.5 14zM304 710q66 0 66 -56v-26q0 -26 -17 -40.5t-49 -14.5q-30 0 -47.5 14.5t-17.5 40.5v26q0 28 17.5 42t47.5 14z" />
    <glyph glyph-name="igrave" unicode="&#xec;" horiz-adv-x="222" 
d="M140 511q26 0 26 -26v-459q0 -26 -26 -26h-58q-26 0 -26 26v459q0 26 26 26h58zM72 688q18 0 28 -16l47 -86q4 -7 4 -13q0 -15 -20 -15h-38q-18 0 -28 14l-66 88q-5 6 -5 14q0 14 20 14h58z" />
    <glyph glyph-name="iacute" unicode="&#xed;" horiz-adv-x="222" 
d="M140 511q26 0 26 -26v-459q0 -26 -26 -26h-58q-26 0 -26 26v459q0 26 26 26h58zM208 688q20 0 20 -14q0 -7 -6 -14l-66 -88q-10 -14 -28 -14h-39q-21 0 -21 15q0 6 4 13l47 86q10 16 28 16h61z" />
    <glyph glyph-name="icircumflex" unicode="&#xee;" horiz-adv-x="222" 
d="M140 511q26 0 26 -26v-459q0 -26 -26 -26h-58q-26 0 -26 26v459q0 26 26 26h58zM97 699q7 3 15 3q7 0 16 -3l93 -43q17 -8 17 -28v-35q0 -21 -17 -21q-2 0 -10 2l-99 38l-99 -38q-8 -2 -10 -2q-17 0 -17 21v35q0 20 17 28z" />
    <glyph glyph-name="idieresis" unicode="&#xef;" horiz-adv-x="222" 
d="M140 511q26 0 26 -26v-459q0 -26 -26 -26h-58q-26 0 -26 26v459q0 26 26 26h58zM16 710q32 0 49 -14t17 -42v-26q0 -26 -17 -40.5t-49 -14.5q-30 0 -47.5 14.5t-17.5 40.5v26q0 28 17.5 42t47.5 14zM207 710q66 0 66 -56v-26q0 -26 -17 -40.5t-49 -14.5q-30 0 -47.5 14.5
t-17.5 40.5v26q0 28 17.5 42t47.5 14z" />
    <glyph glyph-name="eth" unicode="&#xf0;" horiz-adv-x="482" 
d="M223 522q103 0 158 -55t55 -158v-113q0 -98 -54.5 -153t-166.5 -55q-32 0 -64.5 0.5t-64.5 2.5q-25 2 -25 27v194h-28q-26 0 -26 27v34q0 26 26 26h28v193q0 26 21 27q31 2 67 2.5t74 0.5zM326 306q0 66 -27 93.5t-79 27.5q-11 0 -23.5 -0.5t-25.5 -1.5v-126h50
q27 0 27 -26v-34q0 -27 -27 -27h-50v-125q28 -3 49 -3q51 0 78.5 27.5t27.5 77.5v117z" />
    <glyph glyph-name="ntilde" unicode="&#xf1;" horiz-adv-x="488" 
d="M406 511q26 0 26 -26v-459q0 -26 -26 -26h-83q-23 0 -30 21l-131 315v-310q0 -26 -26 -26h-54q-26 0 -26 26v459q0 26 26 26h88q22 0 30 -21l126 -309v304q0 26 26 26h54zM349 672q6 3 12 3q15 0 15 -20v-36q0 -10 -3 -16.5t-11 -11.5q-11 -6 -26 -11.5t-35 -5.5
q-14 0 -27 3.5t-25 7.5t-24.5 7.5t-25.5 3.5q-11 0 -23 -3t-23 -7q-8 -3 -12 -3q-15 0 -15 20v36q0 20 14 28q11 6 26 11.5t35 5.5q18 0 31.5 -3.5t25 -7.5t22.5 -7.5t23 -3.5q11 0 23 3t23 7z" />
    <glyph glyph-name="ograve" unicode="&#xf2;" horiz-adv-x="480" 
d="M240 523q96 0 143 -46t47 -134v-175q0 -86 -46 -133t-144 -47t-143.5 47t-45.5 133v175q0 88 47 134t142 46zM240 426q-39 0 -59 -19.5t-20 -54.5v-188q0 -38 19.5 -58.5t59.5 -20.5t59.5 20t19.5 55v187q0 79 -79 79zM200 688q18 0 28 -16l47 -86q4 -7 4 -13
q0 -15 -20 -15h-38q-18 0 -28 14l-66 88q-5 6 -5 14q0 14 20 14h58z" />
    <glyph glyph-name="oacute" unicode="&#xf3;" horiz-adv-x="480" 
d="M240 523q96 0 143 -46t47 -134v-175q0 -86 -46 -133t-144 -47t-143.5 47t-45.5 133v175q0 88 47 134t142 46zM240 426q-39 0 -59 -19.5t-20 -54.5v-188q0 -38 19.5 -58.5t59.5 -20.5t59.5 20t19.5 55v187q0 79 -79 79zM337 688q20 0 20 -14q0 -7 -6 -14l-66 -88
q-10 -14 -28 -14h-39q-21 0 -21 15q0 6 4 13l47 86q10 16 28 16h61z" />
    <glyph glyph-name="ocircumflex" unicode="&#xf4;" horiz-adv-x="480" 
d="M240 523q96 0 143 -46t47 -134v-175q0 -86 -46 -133t-144 -47t-143.5 47t-45.5 133v175q0 88 47 134t142 46zM240 426q-39 0 -59 -19.5t-20 -54.5v-188q0 -38 19.5 -58.5t59.5 -20.5t59.5 20t19.5 55v187q0 79 -79 79zM225 699q7 3 15 3q7 0 16 -3l93 -43q17 -8 17 -28
v-35q0 -21 -17 -21q-2 0 -10 2l-99 38l-99 -38q-8 -2 -10 -2q-17 0 -17 21v35q0 20 17 28z" />
    <glyph glyph-name="otilde" unicode="&#xf5;" horiz-adv-x="480" 
d="M240 523q96 0 143 -46t47 -134v-175q0 -86 -46 -133t-144 -47t-143.5 47t-45.5 133v175q0 88 47 134t142 46zM240 426q-39 0 -59 -19.5t-20 -54.5v-188q0 -38 19.5 -58.5t59.5 -20.5t59.5 20t19.5 55v187q0 79 -79 79zM342 672q6 3 12 3q15 0 15 -20v-36q0 -10 -3 -16.5
t-11 -11.5q-11 -6 -26 -11.5t-35 -5.5q-14 0 -27 3.5t-25 7.5t-24.5 7.5t-25.5 3.5q-11 0 -23 -3t-23 -7q-8 -3 -12 -3q-15 0 -15 20v36q0 20 14 28q11 6 26 11.5t35 5.5q18 0 31.5 -3.5t25 -7.5t22.5 -7.5t23 -3.5q11 0 23 3t23 7z" />
    <glyph glyph-name="odieresis" unicode="&#xf6;" horiz-adv-x="480" 
d="M240 523q96 0 143 -46t47 -134v-175q0 -86 -46 -133t-144 -47t-143.5 47t-45.5 133v175q0 88 47 134t142 46zM240 426q-39 0 -59 -19.5t-20 -54.5v-188q0 -38 19.5 -58.5t59.5 -20.5t59.5 20t19.5 55v187q0 79 -79 79zM144 710q32 0 49 -14t17 -42v-26q0 -26 -17 -40.5
t-49 -14.5q-30 0 -47.5 14.5t-17.5 40.5v26q0 28 17.5 42t47.5 14zM335 710q66 0 66 -56v-26q0 -26 -17 -40.5t-49 -14.5q-30 0 -47.5 14.5t-17.5 40.5v26q0 28 17.5 42t47.5 14z" />
    <glyph glyph-name="divide" unicode="&#xf7;" horiz-adv-x="407" 
d="M204 515q32 0 48 -16t16 -43v-16q0 -26 -16 -42t-48 -16t-48 16t-16 42v16q0 27 16 43t48 16zM358 346q29 0 29 -29v-43q0 -29 -29 -29h-309q-29 0 -29 29v43q0 29 29 29h309zM204 209q32 0 48 -16t16 -43v-16q0 -26 -16 -42t-48 -16t-48 16t-16 42v16q0 27 16 43t48 16z
" />
    <glyph glyph-name="oslash" unicode="&#xf8;" horiz-adv-x="480" 
d="M442 555q23 0 23 -16q0 -7 -6 -16l-51 -81q22 -42 22 -99v-175q0 -86 -46 -133t-144 -47q-55 0 -94 17l-20 -31q-10 -18 -31 -18h-56q-23 0 -23 16q0 7 6 16l51 81q-22 40 -22 99v175q0 88 47 134t142 46q55 0 94 -17l20 31q10 18 31 18h57zM240 426q-39 0 -59 -19.5
t-20 -54.5v-155v-8t1 -8l133 228q-20 17 -55 17zM186 101q10 -8 23 -12t31 -4q40 0 59.5 20t19.5 55v153v14z" />
    <glyph glyph-name="ugrave" unicode="&#xf9;" horiz-adv-x="483" 
d="M401 511q26 0 26 -26v-320q0 -85 -45.5 -131t-139.5 -46t-140 45.5t-46 131.5v320q0 26 26 26h58q26 0 26 -26v-325q0 -74 76 -74q36 0 55.5 19.5t19.5 54.5v325q0 26 26 26h58zM201 688q18 0 28 -16l47 -86q4 -7 4 -13q0 -15 -20 -15h-38q-18 0 -28 14l-66 88
q-5 6 -5 14q0 14 20 14h58z" />
    <glyph glyph-name="uacute" unicode="&#xfa;" horiz-adv-x="483" 
d="M401 511q26 0 26 -26v-320q0 -85 -45.5 -131t-139.5 -46t-140 45.5t-46 131.5v320q0 26 26 26h58q26 0 26 -26v-325q0 -74 76 -74q36 0 55.5 19.5t19.5 54.5v325q0 26 26 26h58zM339 688q20 0 20 -14q0 -7 -6 -14l-66 -88q-10 -14 -28 -14h-39q-21 0 -21 15q0 6 4 13
l47 86q10 16 28 16h61z" />
    <glyph glyph-name="ucircumflex" unicode="&#xfb;" horiz-adv-x="483" 
d="M401 511q26 0 26 -26v-320q0 -85 -45.5 -131t-139.5 -46t-140 45.5t-46 131.5v320q0 26 26 26h58q26 0 26 -26v-325q0 -74 76 -74q36 0 55.5 19.5t19.5 54.5v325q0 26 26 26h58zM227 699q7 3 15 3q7 0 16 -3l93 -43q17 -8 17 -28v-35q0 -21 -17 -21q-2 0 -10 2l-99 38
l-99 -38q-8 -2 -10 -2q-17 0 -17 21v35q0 20 17 28z" />
    <glyph glyph-name="udieresis" unicode="&#xfc;" horiz-adv-x="483" 
d="M401 511q26 0 26 -26v-320q0 -85 -45.5 -131t-139.5 -46t-140 45.5t-46 131.5v320q0 26 26 26h58q26 0 26 -26v-325q0 -74 76 -74q36 0 55.5 19.5t19.5 54.5v325q0 26 26 26h58zM145 710q32 0 49 -14t17 -42v-26q0 -26 -17 -40.5t-49 -14.5q-30 0 -47.5 14.5t-17.5 40.5
v26q0 28 17.5 42t47.5 14zM336 710q66 0 66 -56v-26q0 -26 -17 -40.5t-49 -14.5q-30 0 -47.5 14.5t-17.5 40.5v26q0 28 17.5 42t47.5 14z" />
    <glyph glyph-name="yacute" unicode="&#xfd;" horiz-adv-x="441" 
d="M400 511q23 0 23 -17q0 -4 -4 -14l-143 -304v-150q0 -26 -26 -26h-58q-27 0 -27 26v150l-143 304q-2 4 -3 7t-1 6q0 18 24 18h67q22 0 30 -21l83 -215l82 215q7 21 30 21h66zM318 688q20 0 20 -14q0 -7 -6 -14l-66 -88q-10 -14 -28 -14h-39q-21 0 -21 15q0 6 4 13l47 86
q10 16 28 16h61z" />
    <glyph glyph-name="thorn" unicode="&#xfe;" horiz-adv-x="429" 
d="M140 511q26 0 26 -26v-58q13 1 25.5 1h23.5q100 0 148 -41.5t48 -113.5v-20q0 -77 -46.5 -119.5t-134.5 -42.5q-12 0 -29 1t-35 5v-71q0 -26 -26 -26h-58q-26 0 -26 26v459q0 26 26 26h58zM211 334h-24.5t-20.5 -1v-145q16 -2 28.5 -3t21.5 -1q44 0 64 19t20 54v10
q0 67 -89 67z" />
    <glyph glyph-name="ydieresis" unicode="&#xff;" horiz-adv-x="441" 
d="M400 511q23 0 23 -17q0 -4 -4 -14l-143 -304v-150q0 -26 -26 -26h-58q-27 0 -27 26v150l-143 304q-2 4 -3 7t-1 6q0 18 24 18h67q22 0 30 -21l83 -215l82 215q7 21 30 21h66zM124 710q32 0 49 -14t17 -42v-26q0 -26 -17 -40.5t-49 -14.5q-30 0 -47.5 14.5t-17.5 40.5v26
q0 28 17.5 42t47.5 14zM315 710q66 0 66 -56v-26q0 -26 -17 -40.5t-49 -14.5q-30 0 -47.5 14.5t-17.5 40.5v26q0 28 17.5 42t47.5 14z" />
    <glyph glyph-name="Amacron" unicode="&#x100;" horiz-adv-x="536" 
d="M314 655q24 0 32 -24l178 -599q2 -8 2 -11q0 -21 -26 -21h-70q-25 0 -31 24l-29 113h-209l-29 -113q-6 -24 -31 -24h-65q-25 0 -25 20q0 4 2 12l177 599q6 24 32 24h92zM185 239h161l-80 316zM373 806q23 0 23 -23v-48q0 -24 -23 -24h-211q-23 0 -23 24v48q0 23 23 23
h211z" />
    <glyph glyph-name="amacron" unicode="&#x101;" horiz-adv-x="454" 
d="M269 511q23 0 30 -22l143 -459q1 -4 1 -10q0 -20 -23 -20h-64q-23 0 -29 23l-21 78h-162l-21 -78q-6 -23 -29 -23h-60q-23 0 -23 20q0 6 1 10l143 459q7 22 30 22h84zM164 191h121l-60 232zM315 660q24 0 24 -23v-44q0 -23 -24 -23h-176q-23 0 -23 23v44q0 23 23 23h176z
" />
    <glyph glyph-name="Abreve" unicode="&#x102;" horiz-adv-x="536" 
d="M314 655q24 0 32 -24l178 -599q2 -8 2 -11q0 -21 -26 -21h-70q-25 0 -31 24l-29 113h-209l-29 -113q-6 -24 -31 -24h-65q-25 0 -25 20q0 4 2 12l177 599q6 24 32 24h92zM185 239h161l-80 316zM386 837q8 5 15 5q13 0 13 -19v-46q0 -20 -14 -28q-9 -6 -22 -14t-30 -14.5
t-37 -11.5t-42 -5q-23 0 -43.5 5t-37.5 11.5t-30 14t-21 13.5q-14 10 -14 28v47q0 19 13 19q6 0 15 -6q20 -13 51 -27t67 -14q35 0 66 14t51 28z" />
    <glyph glyph-name="abreve" unicode="&#x103;" horiz-adv-x="454" 
d="M269 511q23 0 30 -22l143 -459q1 -4 1 -10q0 -20 -23 -20h-64q-23 0 -29 23l-21 78h-162l-21 -78q-6 -23 -29 -23h-60q-23 0 -23 20q0 6 1 10l143 459q7 22 30 22h84zM164 191h121l-60 232zM324 680q4 3 8 4t7 1q13 0 13 -19v-43q0 -18 -15 -28q-14 -11 -43 -23.5
t-67 -12.5q-37 0 -66.5 12.5t-44.5 23.5q-14 10 -14 28v43q0 19 13 19q3 0 7 -1t8 -4q18 -11 44 -22.5t53 -11.5t52.5 11.5t44.5 22.5z" />
    <glyph glyph-name="Aogonek" unicode="&#x104;" horiz-adv-x="536" 
d="M314 655q24 0 32 -24l178 -599q2 -8 2 -12q0 -20 -21 -20h-19q-26 -12 -38 -30.5t-12 -36.5v-7q0 -31 37 -31h7q30 2 30 -26v-32q0 -27 -26 -31q-12 -2 -20.5 -2.5t-15.5 -0.5q-55 0 -82 23.5t-27 61.5v11q0 29 18 56t48 45l-35 137h-209l-29 -113q-6 -24 -31 -24h-65
q-25 0 -25 20q0 4 2 12l177 599q6 24 32 24h92zM185 239h161l-80 316z" />
    <glyph glyph-name="aogonek" unicode="&#x105;" horiz-adv-x="454" 
d="M269 511q23 0 30 -22l143 -459q2 -8 2 -10q0 -20 -22 -20h-12q-27 -14 -36 -32t-9 -35v-7q0 -31 31 -31q4 0 9.5 0.5t10.5 1.5h4q19 0 19 -22v-42q0 -21 -21 -25q-11 -3 -22.5 -4t-22.5 -1q-52 0 -78.5 23.5t-26.5 61.5v11q0 29 17.5 56t48.5 46l-28 100h-162l-21 -78
q-6 -23 -29 -23h-60q-23 0 -23 20q0 6 1 10l143 459q7 22 30 22h84zM164 191h121l-60 232z" />
    <glyph glyph-name="Cacute" unicode="&#x106;" horiz-adv-x="464" 
d="M272 667q30 0 61 -3.5t66 -11.5q25 -6 25 -31v-50q0 -27 -23 -27q-5 0 -8 1q-25 5 -52.5 9.5t-55.5 4.5q-33 0 -55 -5.5t-35.5 -18t-19 -33.5t-5.5 -51v-246q0 -60 25.5 -83.5t89.5 -23.5q28 0 55 4.5t53 9.5q3 1 8 1q21 0 23 -26l1 -53q0 -25 -26 -31q-32 -6 -64 -10.5
t-63 -4.5q-62 0 -104 13t-68 39.5t-37.5 65.5t-11.5 91v261q0 53 11.5 92t38 65t68.5 39t103 13zM356 844q20 0 20 -14q0 -8 -5 -14l-70 -94q-11 -14 -28 -14h-46q-20 0 -20 15q0 5 3 13l51 92q9 16 28 16h67z" />
    <glyph glyph-name="cacute" unicode="&#x107;" horiz-adv-x="406" 
d="M235 523q47 0 107 -12q25 -4 25 -29l-1 -44q-2 -24 -22 -24q-6 0 -9 1q-20 5 -43 8t-42 3q-51 0 -70 -18t-19 -64v-177q0 -45 19.5 -62.5t70.5 -17.5q20 0 42.5 3t42.5 7q3 1 8 1q19 0 21 -24l1 -46q1 -23 -24 -29q-27 -5 -54.5 -8t-50.5 -3q-100 0 -143 40.5t-43 128.5
v197q0 87 42 128t142 41zM324 688q20 0 20 -14q0 -7 -6 -14l-66 -88q-10 -14 -28 -14h-39q-21 0 -21 15q0 6 4 13l47 86q10 16 28 16h61z" />
    <glyph glyph-name="Ccircumflex" unicode="&#x108;" horiz-adv-x="464" 
d="M272 667q30 0 61 -3.5t66 -11.5q25 -6 25 -31v-50q0 -27 -23 -27q-5 0 -8 1q-25 5 -52.5 9.5t-55.5 4.5q-33 0 -55 -5.5t-35.5 -18t-19 -33.5t-5.5 -51v-246q0 -60 25.5 -83.5t89.5 -23.5q28 0 55 4.5t53 9.5q3 1 8 1q21 0 23 -26l1 -53q0 -25 -26 -31q-32 -6 -64 -10.5
t-63 -4.5q-62 0 -104 13t-68 39.5t-37.5 65.5t-11.5 91v261q0 53 11.5 92t38 65t68.5 39t103 13zM243 860q7 3 15 3q7 0 16 -3l113 -51q11 -5 14 -11t3 -17v-39q0 -21 -17 -21q-2 0 -10 2l-118 43l-119 -43q-8 -2 -10 -2q-17 0 -17 21v39q0 11 3.5 17t14.5 11z" />
    <glyph glyph-name="ccircumflex" unicode="&#x109;" horiz-adv-x="406" 
d="M235 523q47 0 107 -12q25 -4 25 -29l-1 -44q-2 -24 -22 -24q-6 0 -9 1q-20 5 -43 8t-42 3q-51 0 -70 -18t-19 -64v-177q0 -45 19.5 -62.5t70.5 -17.5q20 0 42.5 3t42.5 7q3 1 8 1q19 0 21 -24l1 -46q1 -23 -24 -29q-27 -5 -54.5 -8t-50.5 -3q-100 0 -143 40.5t-43 128.5
v197q0 87 42 128t142 41zM212 699q7 3 15 3q7 0 16 -3l93 -43q17 -8 17 -28v-35q0 -21 -17 -21q-2 0 -10 2l-99 38l-99 -38q-8 -2 -10 -2q-17 0 -17 21v35q0 20 17 28z" />
    <glyph glyph-name="Cdotaccent" unicode="&#x10a;" horiz-adv-x="464" 
d="M272 667q30 0 61 -3.5t66 -11.5q25 -6 25 -31v-50q0 -27 -23 -27q-5 0 -8 1q-25 5 -52.5 9.5t-55.5 4.5q-33 0 -55 -5.5t-35.5 -18t-19 -33.5t-5.5 -51v-246q0 -60 25.5 -83.5t89.5 -23.5q28 0 55 4.5t53 9.5q3 1 8 1q21 0 23 -26l1 -53q0 -25 -26 -31q-32 -6 -64 -10.5
t-63 -4.5q-62 0 -104 13t-68 39.5t-37.5 65.5t-11.5 91v261q0 53 11.5 92t38 65t68.5 39t103 13zM258 853q70 0 70 -60v-26q0 -29 -18 -44.5t-52 -15.5q-33 0 -51.5 15.5t-18.5 44.5v26q0 30 18.5 45t51.5 15z" />
    <glyph glyph-name="cdotaccent" unicode="&#x10b;" horiz-adv-x="406" 
d="M235 523q47 0 107 -12q25 -4 25 -29l-1 -44q-2 -24 -22 -24q-6 0 -9 1q-20 5 -43 8t-42 3q-51 0 -70 -18t-19 -64v-177q0 -45 19.5 -62.5t70.5 -17.5q20 0 42.5 3t42.5 7q3 1 8 1q19 0 21 -24l1 -46q1 -23 -24 -29q-27 -5 -54.5 -8t-50.5 -3q-100 0 -143 40.5t-43 128.5
v197q0 87 42 128t142 41zM227 716q70 0 70 -60v-27q0 -59 -70 -59q-33 0 -51.5 15t-18.5 44v27q0 29 18.5 44.5t51.5 15.5z" />
    <glyph glyph-name="Ccaron" unicode="&#x10c;" horiz-adv-x="464" 
d="M272 667q30 0 61 -3.5t66 -11.5q25 -6 25 -31v-50q0 -27 -23 -27q-5 0 -8 1q-25 5 -52.5 9.5t-55.5 4.5q-33 0 -55 -5.5t-35.5 -18t-19 -33.5t-5.5 -51v-246q0 -60 25.5 -83.5t89.5 -23.5q28 0 55 4.5t53 9.5q3 1 8 1q21 0 23 -26l1 -53q0 -25 -26 -31q-32 -6 -64 -10.5
t-63 -4.5q-62 0 -104 13t-68 39.5t-37.5 65.5t-11.5 91v261q0 53 11.5 92t38 65t68.5 39t103 13zM377 855q8 2 10 2q17 0 17 -21v-39q0 -11 -3 -17t-14 -11l-113 -51q-9 -3 -16 -3q-8 0 -15 3l-112 51q-11 5 -14.5 11t-3.5 17v39q0 21 17 21q2 0 10 -2l119 -43z" />
    <glyph glyph-name="ccaron" unicode="&#x10d;" horiz-adv-x="406" 
d="M235 523q47 0 107 -12q25 -4 25 -29l-1 -44q-2 -24 -22 -24q-6 0 -9 1q-20 5 -43 8t-42 3q-51 0 -70 -18t-19 -64v-177q0 -45 19.5 -62.5t70.5 -17.5q20 0 42.5 3t42.5 7q3 1 8 1q19 0 21 -24l1 -46q1 -23 -24 -29q-27 -5 -54.5 -8t-50.5 -3q-100 0 -143 40.5t-43 128.5
v197q0 87 42 128t142 41zM326 693q8 2 10 2q17 0 17 -21v-35q0 -20 -17 -28l-93 -43q-8 -4 -16 -4t-15 4l-94 43q-17 8 -17 28v35q0 21 17 21q2 0 10 -2l99 -38z" />
    <glyph glyph-name="Dcaron" unicode="&#x10e;" horiz-adv-x="548" 
d="M248 666q125 0 189.5 -68.5t64.5 -196.5v-156q0 -122 -64 -189.5t-199 -67.5q-40 0 -79 1.5t-77 3.5q-27 1 -27 29v612q0 27 23 28q35 2 78 3t91 1zM244 561h-34.5t-34.5 -2v-461q22 -2 38.5 -3t30.5 -1q65 0 102 36.5t37 108.5v168q0 79 -36.5 116.5t-102.5 37.5z
M367 855q8 2 10 2q17 0 17 -21v-39q0 -11 -3 -17t-14 -11l-113 -51q-9 -3 -16 -3q-8 0 -15 3l-112 51q-11 5 -14.5 11t-3.5 17v39q0 21 17 21q2 0 10 -2l119 -43z" />
    <glyph glyph-name="dcaron" unicode="&#x10f;" horiz-adv-x="477" 
d="M218 522q103 0 158 -55t55 -158v-113q0 -98 -54.5 -153t-166.5 -55q-32 0 -64.5 0.5t-64.5 2.5q-25 2 -25 27v474q0 26 21 27q31 2 67 2.5t74 0.5zM215 427q-11 0 -23.5 -0.5t-25.5 -1.5v-338q28 -3 49 -3q51 0 78.5 27.5t27.5 77.5v117q0 66 -27 93.5t-79 27.5zM319 693
q8 2 10 2q17 0 17 -21v-35q0 -20 -17 -28l-93 -43q-8 -4 -16 -4t-15 4l-94 43q-17 8 -17 28v35q0 21 17 21q2 0 10 -2l99 -38z" />
    <glyph glyph-name="Dcroat" unicode="&#x110;" horiz-adv-x="564" 
d="M264 667q124 0 189 -69t65 -197v-156q0 -122 -64 -189.5t-199 -67.5q-40 0 -79 1.5t-77 3.5q-28 0 -28 29v269h-41q-26 0 -26 29v40q0 28 26 28h41v248q0 26 21 28q36 1 79.5 2t92.5 1zM259 562h-34t-34 -1v-173h90q26 0 26 -28v-40q0 -29 -26 -29h-90v-193
q21 -2 37.5 -3t30.5 -1q65 0 102 36.5t37 108.5v168q0 80 -36.5 117.5t-102.5 37.5z" />
    <glyph glyph-name="dcroat" unicode="&#x111;" horiz-adv-x="482" 
d="M223 522q103 0 158 -55t55 -158v-113q0 -98 -54.5 -153t-166.5 -55q-32 0 -64.5 0.5t-64.5 2.5q-25 2 -25 27v194h-28q-26 0 -26 27v34q0 26 26 26h28v193q0 26 21 27q31 2 67 2.5t74 0.5zM326 306q0 66 -27 93.5t-79 27.5q-11 0 -23.5 -0.5t-25.5 -1.5v-126h50
q27 0 27 -26v-34q0 -27 -27 -27h-50v-125q28 -3 49 -3q51 0 78.5 27.5t27.5 77.5v117z" />
    <glyph glyph-name="Emacron" unicode="&#x112;" horiz-adv-x="467" 
d="M392 655q29 0 29 -28v-53q0 -29 -29 -29h-217v-158h197q29 0 29 -28v-52q0 -29 -29 -29h-197v-168h217q29 0 29 -29v-53q0 -28 -29 -28h-308q-28 0 -28 28v599q0 28 28 28h308zM344 806q23 0 23 -23v-48q0 -24 -23 -24h-211q-23 0 -23 24v48q0 23 23 23h211z" />
    <glyph glyph-name="emacron" unicode="&#x113;" horiz-adv-x="412" 
d="M339 511q27 0 27 -26v-47q0 -26 -27 -26h-173v-105h156q27 0 27 -26v-45q0 -26 -27 -26h-156v-111h173q27 0 27 -26v-47q0 -26 -27 -26h-257q-26 0 -26 26v459q0 26 26 26h257zM297 660q24 0 24 -23v-44q0 -23 -24 -23h-176q-23 0 -23 23v44q0 23 23 23h176z" />
    <glyph glyph-name="Ebreve" unicode="&#x114;" horiz-adv-x="467" 
d="M392 655q29 0 29 -28v-53q0 -29 -29 -29h-217v-158h197q29 0 29 -28v-52q0 -29 -29 -29h-197v-168h217q29 0 29 -29v-53q0 -28 -29 -28h-308q-28 0 -28 28v599q0 28 28 28h308zM357 837q8 5 15 5q13 0 13 -19v-46q0 -20 -14 -28q-9 -6 -22 -14t-30 -14.5t-37 -11.5
t-42 -5q-23 0 -43.5 5t-37.5 11.5t-30 14t-21 13.5q-14 10 -14 28v47q0 19 13 19q6 0 15 -6q20 -13 51 -27t67 -14q35 0 66 14t51 28z" />
    <glyph glyph-name="ebreve" unicode="&#x115;" horiz-adv-x="412" 
d="M339 511q27 0 27 -26v-47q0 -26 -27 -26h-173v-105h156q27 0 27 -26v-45q0 -26 -27 -26h-156v-111h173q27 0 27 -26v-47q0 -26 -27 -26h-257q-26 0 -26 26v459q0 26 26 26h257zM307 680q4 3 8 4t7 1q13 0 13 -19v-43q0 -18 -15 -28q-14 -11 -43 -23.5t-67 -12.5
q-37 0 -66.5 12.5t-44.5 23.5q-14 10 -14 28v43q0 19 13 19q3 0 7 -1t8 -4q18 -11 44 -22.5t53 -11.5t52.5 11.5t44.5 22.5z" />
    <glyph glyph-name="Edotaccent" unicode="&#x116;" horiz-adv-x="467" 
d="M392 655q29 0 29 -28v-53q0 -29 -29 -29h-217v-158h197q29 0 29 -28v-52q0 -29 -29 -29h-197v-168h217q29 0 29 -29v-53q0 -28 -29 -28h-308q-28 0 -28 28v599q0 28 28 28h308zM239 853q70 0 70 -60v-26q0 -29 -18 -44.5t-52 -15.5q-33 0 -51.5 15.5t-18.5 44.5v26
q0 30 18.5 45t51.5 15z" />
    <glyph glyph-name="edotaccent" unicode="&#x117;" horiz-adv-x="412" 
d="M339 511q27 0 27 -26v-47q0 -26 -27 -26h-173v-105h156q27 0 27 -26v-45q0 -26 -27 -26h-156v-111h173q27 0 27 -26v-47q0 -26 -27 -26h-257q-26 0 -26 26v459q0 26 26 26h257zM210 716q70 0 70 -60v-27q0 -59 -70 -59q-33 0 -51.5 15t-18.5 44v27q0 29 18.5 44.5
t51.5 15.5z" />
    <glyph glyph-name="Eogonek" unicode="&#x118;" horiz-adv-x="467" 
d="M175 387h197q29 0 29 -28v-52q0 -29 -29 -29h-197v-168h217q29 0 29 -29v-53q0 -28 -29 -28h-41q-23 -10 -36.5 -30t-13.5 -37v-7q0 -31 32 -31q3 0 8.5 0.5t10.5 1.5h4q20 0 20 -22v-42q0 -21 -22 -25q-10 -3 -22 -4t-23 -1q-52 0 -78.5 23.5t-26.5 61.5v11
q0 29 17.5 55.5t47.5 45.5h-185q-28 0 -28 28v599q0 28 28 28h308q29 0 29 -28v-53q0 -29 -29 -29h-217v-158z" />
    <glyph glyph-name="eogonek" unicode="&#x119;" horiz-adv-x="412" 
d="M339 511q27 0 27 -26v-47q0 -26 -27 -26h-173v-105h156q27 0 27 -26v-45q0 -26 -27 -26h-156v-111h173q27 0 27 -26v-47q0 -26 -27 -26h-32q-28 -14 -38.5 -31.5t-10.5 -35.5v-7q0 -31 31 -31q4 0 9.5 0.5t10.5 1.5h4q19 0 19 -22v-42q0 -21 -21 -25q-10 -3 -22 -4
t-23 -1q-52 0 -78.5 23.5t-26.5 61.5v11q0 29 17.5 55.5t47.5 45.5h-144q-26 0 -26 26v459q0 26 26 26h257z" />
    <glyph glyph-name="Ecaron" unicode="&#x11a;" horiz-adv-x="467" 
d="M392 655q29 0 29 -28v-53q0 -29 -29 -29h-217v-158h197q29 0 29 -28v-52q0 -29 -29 -29h-197v-168h217q29 0 29 -29v-53q0 -28 -29 -28h-308q-28 0 -28 28v599q0 28 28 28h308zM358 855q8 2 10 2q17 0 17 -21v-39q0 -11 -3 -17t-14 -11l-113 -51q-9 -3 -16 -3q-8 0 -15 3
l-112 51q-11 5 -14.5 11t-3.5 17v39q0 21 17 21q2 0 10 -2l119 -43z" />
    <glyph glyph-name="ecaron" unicode="&#x11b;" horiz-adv-x="412" 
d="M339 511q27 0 27 -26v-47q0 -26 -27 -26h-173v-105h156q27 0 27 -26v-45q0 -26 -27 -26h-156v-111h173q27 0 27 -26v-47q0 -26 -27 -26h-257q-26 0 -26 26v459q0 26 26 26h257zM309 693q8 2 10 2q17 0 17 -21v-35q0 -20 -17 -28l-93 -43q-8 -4 -16 -4t-15 4l-94 43
q-17 8 -17 28v35q0 21 17 21q2 0 10 -2l99 -38z" />
    <glyph glyph-name="Gcircumflex" unicode="&#x11c;" horiz-adv-x="535" 
d="M273 667q33 0 77.5 -5.5t81.5 -12.5q25 -6 25 -31l-1 -50q-2 -26 -23 -26q-5 0 -8 1q-32 6 -74 12t-74 6q-59 0 -83 -22.5t-24 -76.5v-266q0 -54 23.5 -77t79.5 -23q20 0 43 2.5t46 6.5v176h-68q-28 0 -28 28v52q0 28 28 28h160q28 0 28 -28v-304q0 -15 -6 -23.5
t-23 -13.5q-38 -12 -88 -22t-96 -10q-60 0 -102 13t-67.5 39.5t-37 65.5t-11.5 91v261q0 108 51 158.5t171 50.5zM250 860q7 3 15 3q7 0 16 -3l113 -51q11 -5 14 -11t3 -17v-39q0 -21 -17 -21q-2 0 -10 2l-118 43l-119 -43q-8 -2 -10 -2q-17 0 -17 21v39q0 11 3.5 17
t14.5 11z" />
    <glyph glyph-name="gcircumflex" unicode="&#x11d;" horiz-adv-x="467" 
d="M237 523q27 0 63 -4t68 -9q24 -5 24 -29l-1 -43q-2 -24 -22 -24q-2 0 -3.5 0.5t-3.5 0.5q-28 5 -61.5 8.5t-59.5 3.5q-45 0 -62.5 -15.5t-17.5 -50.5v-209q0 -35 17.5 -51t58.5 -16q13 0 30.5 2t35.5 4v125h-44q-25 0 -25 26v37q0 26 25 26h128q27 0 27 -26v-239
q0 -23 -24 -29q-34 -9 -75 -16t-78 -7q-101 0 -143.5 40.5t-42.5 126.5v201q0 85 42 126t144 41zM217 699q7 3 15 3q7 0 16 -3l93 -43q17 -8 17 -28v-35q0 -21 -17 -21q-2 0 -10 2l-99 38l-99 -38q-8 -2 -10 -2q-17 0 -17 21v35q0 20 17 28z" />
    <glyph glyph-name="Gbreve" unicode="&#x11e;" horiz-adv-x="535" 
d="M273 667q33 0 77.5 -5.5t81.5 -12.5q25 -6 25 -31l-1 -50q-2 -26 -23 -26q-5 0 -8 1q-32 6 -74 12t-74 6q-59 0 -83 -22.5t-24 -76.5v-266q0 -54 23.5 -77t79.5 -23q20 0 43 2.5t46 6.5v176h-68q-28 0 -28 28v52q0 28 28 28h160q28 0 28 -28v-304q0 -15 -6 -23.5
t-23 -13.5q-38 -12 -88 -22t-96 -10q-60 0 -102 13t-67.5 39.5t-37 65.5t-11.5 91v261q0 108 51 158.5t171 50.5zM383 837q8 5 15 5q13 0 13 -19v-46q0 -20 -14 -28q-9 -6 -22 -14t-30 -14.5t-37 -11.5t-42 -5q-23 0 -43.5 5t-37.5 11.5t-30 14t-21 13.5q-14 10 -14 28v47
q0 19 13 19q6 0 15 -6q20 -13 51 -27t67 -14q35 0 66 14t51 28z" />
    <glyph glyph-name="gbreve" unicode="&#x11f;" horiz-adv-x="467" 
d="M237 523q27 0 63 -4t68 -9q24 -5 24 -29l-1 -43q-2 -24 -22 -24q-2 0 -3.5 0.5t-3.5 0.5q-28 5 -61.5 8.5t-59.5 3.5q-45 0 -62.5 -15.5t-17.5 -50.5v-209q0 -35 17.5 -51t58.5 -16q13 0 30.5 2t35.5 4v125h-44q-25 0 -25 26v37q0 26 25 26h128q27 0 27 -26v-239
q0 -23 -24 -29q-34 -9 -75 -16t-78 -7q-101 0 -143.5 40.5t-42.5 126.5v201q0 85 42 126t144 41zM329 680q4 3 8 4t7 1q13 0 13 -19v-43q0 -18 -15 -28q-14 -11 -43 -23.5t-67 -12.5q-37 0 -66.5 12.5t-44.5 23.5q-14 10 -14 28v43q0 19 13 19q3 0 7 -1t8 -4
q18 -11 44 -22.5t53 -11.5t52.5 11.5t44.5 22.5z" />
    <glyph glyph-name="Gdotaccent" unicode="&#x120;" horiz-adv-x="535" 
d="M273 667q33 0 77.5 -5.5t81.5 -12.5q25 -6 25 -31l-1 -50q-2 -26 -23 -26q-5 0 -8 1q-32 6 -74 12t-74 6q-59 0 -83 -22.5t-24 -76.5v-266q0 -54 23.5 -77t79.5 -23q20 0 43 2.5t46 6.5v176h-68q-28 0 -28 28v52q0 28 28 28h160q28 0 28 -28v-304q0 -15 -6 -23.5
t-23 -13.5q-38 -12 -88 -22t-96 -10q-60 0 -102 13t-67.5 39.5t-37 65.5t-11.5 91v261q0 108 51 158.5t171 50.5zM265 853q70 0 70 -60v-26q0 -29 -18 -44.5t-52 -15.5q-33 0 -51.5 15.5t-18.5 44.5v26q0 30 18.5 45t51.5 15z" />
    <glyph glyph-name="gdotaccent" unicode="&#x121;" horiz-adv-x="467" 
d="M237 523q27 0 63 -4t68 -9q24 -5 24 -29l-1 -43q-2 -24 -22 -24q-2 0 -3.5 0.5t-3.5 0.5q-28 5 -61.5 8.5t-59.5 3.5q-45 0 -62.5 -15.5t-17.5 -50.5v-209q0 -35 17.5 -51t58.5 -16q13 0 30.5 2t35.5 4v125h-44q-25 0 -25 26v37q0 26 25 26h128q27 0 27 -26v-239
q0 -23 -24 -29q-34 -9 -75 -16t-78 -7q-101 0 -143.5 40.5t-42.5 126.5v201q0 85 42 126t144 41zM232 716q70 0 70 -60v-27q0 -59 -70 -59q-33 0 -51.5 15t-18.5 44v27q0 29 18.5 44.5t51.5 15.5z" />
    <glyph glyph-name="Gcommaaccent" unicode="&#x122;" horiz-adv-x="535" 
d="M273 667q33 0 77.5 -5.5t81.5 -12.5q25 -6 25 -31l-1 -50q-2 -26 -23 -26q-5 0 -8 1q-32 6 -74 12t-74 6q-59 0 -83 -22.5t-24 -76.5v-266q0 -54 23.5 -77t79.5 -23q20 0 43 2.5t46 6.5v176h-68q-28 0 -28 28v52q0 28 28 28h160q28 0 28 -28v-304q0 -15 -6 -23.5
t-23 -13.5q-38 -12 -88 -22t-96 -10q-60 0 -102 13t-67.5 39.5t-37 65.5t-11.5 91v261q0 108 51 158.5t171 50.5zM272 -56q61 0 61 -50v-24q0 -14 -2 -25.5t-6 -25.5l-19 -55q-6 -19 -25 -19h-27q-21 0 -21 18q0 2 0.5 3.5t0.5 3.5l10 55q-30 11 -30 46v23q0 24 15.5 37
t42.5 13z" />
    <glyph glyph-name="gcommaaccent" unicode="&#x123;" horiz-adv-x="467" 
d="M237 523q27 0 63 -4t68 -9q24 -5 24 -29l-1 -43q-2 -24 -22 -24q-2 0 -3.5 0.5t-3.5 0.5q-28 5 -61.5 8.5t-59.5 3.5q-45 0 -62.5 -15.5t-17.5 -50.5v-209q0 -35 17.5 -51t58.5 -16q13 0 30.5 2t35.5 4v125h-44q-25 0 -25 26v37q0 26 25 26h128q27 0 27 -26v-239
q0 -23 -24 -29q-34 -9 -75 -16t-78 -7q-101 0 -143.5 40.5t-42.5 126.5v201q0 85 42 126t144 41zM241 -56q61 0 61 -50v-24q0 -14 -2 -25.5t-6 -25.5l-19 -55q-6 -19 -25 -19h-27q-21 0 -21 18q0 2 0.5 3.5t0.5 3.5l10 55q-30 11 -30 46v23q0 24 15.5 37t42.5 13z" />
    <glyph glyph-name="Hcircumflex" unicode="&#x124;" horiz-adv-x="557" 
d="M473 655q28 0 28 -28v-599q0 -28 -28 -28h-63q-28 0 -28 28v255h-207v-255q0 -28 -28 -28h-63q-28 0 -28 28v599q0 28 28 28h63q28 0 28 -28v-236h207v236q0 28 28 28h63zM263 860q7 3 15 3q7 0 16 -3l113 -51q11 -5 14 -11t3 -17v-39q0 -21 -17 -21q-2 0 -10 2l-118 43
l-119 -43q-8 -2 -10 -2q-17 0 -17 21v39q0 11 3.5 17t14.5 11z" />
    <glyph glyph-name="hcircumflex" unicode="&#x125;" horiz-adv-x="486" 
d="M404 511q27 0 27 -26v-459q0 -26 -27 -26h-58q-26 0 -26 26v187h-154v-187q0 -26 -26 -26h-58q-26 0 -26 26v459q0 26 26 26h58q26 0 26 -26v-174h154v174q0 26 26 26h58zM228 699q7 3 15 3q7 0 16 -3l93 -43q17 -8 17 -28v-35q0 -21 -17 -21q-2 0 -10 2l-99 38l-99 -38
q-8 -2 -10 -2q-17 0 -17 21v35q0 20 17 28z" />
    <glyph glyph-name="Hbar" unicode="&#x126;" horiz-adv-x="567" 
d="M478 655q28 0 28 -28v-32h20q27 0 27 -29v-40q0 -29 -27 -29h-20v-469q0 -28 -28 -28h-63q-28 0 -28 28v255h-207v-255q0 -28 -28 -28h-63q-28 0 -28 28v469h-21q-26 0 -26 29v40q0 29 26 29h21v32q0 28 28 28h63q28 0 28 -28v-32h207v32q0 28 28 28h63zM180 497v-106
h207v106h-207z" />
    <glyph glyph-name="hbar" unicode="&#x127;" horiz-adv-x="492" 
d="M407 511q26 0 26 -26v-16h16q24 0 24 -27v-31q0 -27 -24 -27h-16v-358q0 -26 -26 -26h-58q-27 0 -27 26v187h-153v-187q0 -26 -26 -26h-58q-26 0 -26 26v358h-16q-24 0 -24 27v31q0 27 24 27h16v16q0 26 26 26h58q26 0 26 -26v-16h153v16q0 26 27 26h58zM169 384v-73h153
v73h-153z" />
    <glyph glyph-name="Itilde" unicode="&#x128;" horiz-adv-x="231" 
d="M147 655q28 0 28 -28v-599q0 -28 -28 -28h-63q-28 0 -28 28v599q0 28 28 28h63zM235 822q6 3 11 3q16 0 16 -21v-39q0 -9 -3 -16t-11 -12q-11 -8 -30 -15.5t-41 -7.5q-17 0 -32.5 4.5t-30.5 9.5t-29.5 9.5t-29.5 4.5q-14 0 -29 -5t-28 -10q-6 -3 -11 -3q-16 0 -16 21v39
q0 9 3 16t11 12q11 8 30 15.5t42 7.5q20 0 36.5 -4.5t30.5 -9.5t27.5 -9.5t27.5 -4.5t28.5 4.5t27.5 10.5z" />
    <glyph glyph-name="itilde" unicode="&#x129;" horiz-adv-x="222" 
d="M140 511q26 0 26 -26v-459q0 -26 -26 -26h-58q-26 0 -26 26v459q0 26 26 26h58zM215 672q6 3 12 3q15 0 15 -20v-36q0 -10 -3 -16.5t-11 -11.5q-11 -6 -26 -11.5t-35 -5.5q-14 0 -27 3.5t-25 7.5t-24.5 7.5t-25.5 3.5q-11 0 -23 -3t-23 -7q-8 -3 -12 -3q-15 0 -15 20v36
q0 20 14 28q11 6 26 11.5t35 5.5q18 0 31.5 -3.5t25 -7.5t22.5 -7.5t23 -3.5q11 0 23 3t23 7z" />
    <glyph glyph-name="Imacron" unicode="&#x12a;" horiz-adv-x="231" 
d="M147 655q28 0 28 -28v-599q0 -28 -28 -28h-63q-28 0 -28 28v599q0 28 28 28h63zM222 806q23 0 23 -23v-48q0 -24 -23 -24h-211q-23 0 -23 24v48q0 23 23 23h211z" />
    <glyph glyph-name="imacron" unicode="&#x12b;" horiz-adv-x="222" 
d="M140 511q26 0 26 -26v-459q0 -26 -26 -26h-58q-26 0 -26 26v459q0 26 26 26h58zM200 660q24 0 24 -23v-44q0 -23 -24 -23h-176q-23 0 -23 23v44q0 23 23 23h176z" />
    <glyph glyph-name="Ibreve" unicode="&#x12c;" horiz-adv-x="231" 
d="M147 655q28 0 28 -28v-599q0 -28 -28 -28h-63q-28 0 -28 28v599q0 28 28 28h63zM234 837q8 5 15 5q13 0 13 -19v-46q0 -20 -14 -28q-9 -6 -22 -14t-30 -14.5t-37 -11.5t-42 -5q-23 0 -43.5 5t-37.5 11.5t-30 14t-21 13.5q-14 10 -14 28v47q0 19 13 19q6 0 15 -6
q20 -13 51 -27t67 -14q35 0 66 14t51 28z" />
    <glyph glyph-name="ibreve" unicode="&#x12d;" horiz-adv-x="222" 
d="M140 511q26 0 26 -26v-459q0 -26 -26 -26h-58q-26 0 -26 26v459q0 26 26 26h58zM209 680q4 3 8 4t7 1q13 0 13 -19v-43q0 -18 -15 -28q-14 -11 -43 -23.5t-67 -12.5q-37 0 -66.5 12.5t-44.5 23.5q-14 10 -14 28v43q0 19 13 19q3 0 7 -1t8 -4q18 -11 44 -22.5t53 -11.5
t52.5 11.5t44.5 22.5z" />
    <glyph glyph-name="Iogonek" unicode="&#x12e;" horiz-adv-x="231" 
d="M147 655q28 0 28 -28v-596q0 -18 -7.5 -24.5t-34.5 -6.5q-26 -13 -37.5 -31.5t-11.5 -35.5v-7q0 -31 31 -31q3 0 8.5 0.5t10.5 1.5h4q20 0 20 -22v-42q0 -21 -22 -25q-10 -3 -22 -4t-23 -1q-52 0 -78.5 23.5t-26.5 61.5v11q0 30 19 58t51 46v624q0 28 28 28h63z" />
    <glyph glyph-name="iogonek" unicode="&#x12f;" horiz-adv-x="222" 
d="M140 511q26 0 26 -26v-459q0 -17 -6.5 -21.5t-26.5 -4.5q-25 -14 -36 -32t-11 -35v-7q0 -31 32 -31q3 0 8.5 0.5t10.5 1.5h4q20 0 20 -22v-42q0 -21 -22 -25q-10 -3 -22 -4t-23 -1q-52 0 -78.5 23.5t-26.5 61.5v11q0 29 18 56t49 46v484q0 26 26 26h58z" />
    <glyph glyph-name="Idotaccent" unicode="&#x130;" horiz-adv-x="222" 
d="M140 511q26 0 26 -26v-459q0 -26 -26 -26h-58q-26 0 -26 26v459q0 26 26 26h58zM111 716q70 0 70 -60v-27q0 -59 -70 -59q-33 0 -51.5 15t-18.5 44v27q0 29 18.5 44.5t51.5 15.5z" />
    <glyph glyph-name="dotlessi" unicode="&#x131;" horiz-adv-x="222" 
d="M140 511q26 0 26 -26v-459q0 -26 -26 -26h-58q-26 0 -26 26v459q0 26 26 26h58z" />
    <glyph glyph-name="IJ" unicode="&#x132;" horiz-adv-x="534" 
d="M147 655q28 0 28 -28v-599q0 -28 -28 -28h-63q-28 0 -28 28v599q0 28 28 28h63zM450 655q28 0 28 -28v-461q0 -91 -40 -134.5t-123 -43.5q-11 0 -29.5 1.5t-32.5 4.5q-25 6 -25 31v46q0 28 23 28q2 0 3.5 -0.5t3.5 -0.5q11 -2 22.5 -3t24.5 -1q26 0 39.5 14.5t13.5 51.5
v467q0 28 29 28h63z" />
    <glyph glyph-name="ij" unicode="&#x133;" horiz-adv-x="494" 
d="M140 511q26 0 26 -26v-459q0 -26 -26 -26h-58q-26 0 -26 26v459q0 26 26 26h58zM411 511q27 0 27 -26v-346q0 -78 -34 -114.5t-105 -36.5q-10 0 -27 2t-29 4q-24 4 -24 28v43q0 24 20 24q2 0 3.5 -0.5t3.5 -0.5q8 -2 18.5 -3t19.5 -1q23 0 33 11.5t10 40.5v349
q0 26 27 26h57z" />
    <glyph glyph-name="Jcircumflex" unicode="&#x134;" horiz-adv-x="303" 
d="M219 655q28 0 28 -28v-461q0 -91 -40 -134.5t-123 -43.5q-11 0 -29.5 1.5t-32.5 4.5q-25 6 -25 31v46q0 28 23 28q2 0 3.5 -0.5t3.5 -0.5q11 -2 22.5 -3t24.5 -1q26 0 39.5 14.5t13.5 51.5v467q0 28 29 28h63zM172 860q7 3 15 3q7 0 16 -3l113 -51q11 -5 14 -11t3 -17
v-39q0 -21 -17 -21q-2 0 -10 2l-118 43l-119 -43q-8 -2 -10 -2q-17 0 -17 21v39q0 11 3.5 17t14.5 11z" />
    <glyph glyph-name="jcircumflex" unicode="&#x135;" horiz-adv-x="272" 
d="M189 511q27 0 27 -26v-346q0 -78 -34 -114.5t-105 -36.5q-10 0 -27 2t-29 4q-24 4 -24 28v43q0 24 20 24q2 0 3.5 -0.5t3.5 -0.5q8 -2 18.5 -3t19.5 -1q23 0 33 11.5t10 40.5v349q0 26 27 26h57zM146 699q7 3 15 3q7 0 16 -3l93 -43q17 -8 17 -28v-35q0 -21 -17 -21
q-2 0 -10 2l-99 38l-99 -38q-8 -2 -10 -2q-17 0 -17 21v35q0 20 17 28z" />
    <glyph glyph-name="Kcommaaccent" unicode="&#x136;" horiz-adv-x="533" 
d="M472 655q24 0 24 -17q0 -9 -6 -18l-213 -285l233 -300q7 -10 7 -18q0 -17 -24 -17h-80q-21 0 -35 18l-203 271v-261q0 -28 -28 -28h-63q-28 0 -28 28v599q0 28 28 28h63q28 0 28 -28v-267l200 277q12 18 35 18h62zM274 -56q61 0 61 -50v-24q0 -14 -2 -25.5t-6 -25.5
l-19 -55q-6 -19 -25 -19h-27q-21 0 -21 18q0 2 0.5 3.5t0.5 3.5l10 55q-30 11 -30 46v23q0 24 15.5 37t42.5 13z" />
    <glyph glyph-name="kcommaaccent" unicode="&#x137;" horiz-adv-x="461" 
d="M409 511q23 0 23 -15q0 -7 -7 -17l-159 -215l175 -232q7 -8 7 -16q0 -16 -22 -16h-73q-19 0 -32 17l-155 207v-198q0 -26 -26 -26h-58q-26 0 -26 26v459q0 26 26 26h58q26 0 26 -26v-199l154 208q11 17 31 17h58zM244 -56q61 0 61 -50v-24q0 -14 -2 -25.5t-6 -25.5
l-19 -55q-6 -19 -25 -19h-27q-21 0 -21 18q0 2 0.5 3.5t0.5 3.5l10 55q-30 11 -30 46v23q0 24 15.5 37t42.5 13z" />
    <glyph glyph-name="kgreenlandic" unicode="&#x138;" horiz-adv-x="461" 
d="M409 511q23 0 23 -15q0 -7 -7 -17l-159 -215l175 -232q7 -8 7 -16q0 -16 -22 -16h-73q-19 0 -32 17l-155 207v-198q0 -26 -26 -26h-58q-26 0 -26 26v459q0 26 26 26h58q26 0 26 -26v-199l154 208q11 17 31 17h58z" />
    <glyph glyph-name="Lacute" unicode="&#x139;" horiz-adv-x="443" 
d="M147 655q28 0 28 -28v-519h220q29 0 29 -28v-52q0 -28 -29 -28h-311q-28 0 -28 28v599q0 28 28 28h63zM224 844q20 0 20 -14q0 -8 -5 -14l-70 -94q-11 -14 -28 -14h-46q-20 0 -20 15q0 5 3 13l51 92q9 16 28 16h67z" />
    <glyph glyph-name="lacute" unicode="&#x13a;" horiz-adv-x="388" 
d="M140 511q26 0 26 -26v-386h176q27 0 27 -27v-46q0 -26 -27 -26h-260q-26 0 -26 26v459q0 26 26 26h58zM221 688q20 0 20 -14q0 -7 -6 -14l-66 -88q-10 -14 -28 -14h-39q-21 0 -21 15q0 6 4 13l47 86q10 16 28 16h61z" />
    <glyph glyph-name="Lcommaaccent" unicode="&#x13b;" horiz-adv-x="443" 
d="M147 655q28 0 28 -28v-519h220q29 0 29 -28v-52q0 -28 -29 -28h-311q-28 0 -28 28v599q0 28 28 28h63zM234 -56q61 0 61 -50v-24q0 -14 -2 -25.5t-6 -25.5l-19 -55q-6 -19 -25 -19h-27q-21 0 -21 18q0 2 0.5 3.5t0.5 3.5l10 55q-30 11 -30 46v23q0 24 15.5 37t42.5 13z
" />
    <glyph glyph-name="lcommaaccent" unicode="&#x13c;" horiz-adv-x="388" 
d="M140 511q26 0 26 -26v-386h176q27 0 27 -27v-46q0 -26 -27 -26h-260q-26 0 -26 26v459q0 26 26 26h58zM208 -56q61 0 61 -50v-24q0 -14 -2 -25.5t-6 -25.5l-19 -55q-6 -19 -25 -19h-27q-21 0 -21 18q0 2 0.5 3.5t0.5 3.5l10 55q-30 11 -30 46v23q0 24 15.5 37t42.5 13z
" />
    <glyph glyph-name="Lcaron" unicode="&#x13d;" horiz-adv-x="443" 
d="M147 655q28 0 28 -28v-519h220q29 0 29 -28v-52q0 -28 -29 -28h-311q-28 0 -28 28v599q0 28 28 28h63zM287 667q61 0 61 -50v-24q0 -14 -2 -25.5t-6 -25.5l-19 -55q-6 -19 -25 -19h-27q-21 0 -21 18q0 2 0.5 3.5t0.5 3.5l10 55q-30 11 -30 46v23q0 24 15.5 37t42.5 13z
" />
    <glyph glyph-name="lcaron" unicode="&#x13e;" horiz-adv-x="390" 
d="M140 511q26 0 26 -26v-386h176q27 0 27 -27v-46q0 -26 -27 -26h-260q-26 0 -26 26v459q0 26 26 26h58zM277 523q61 0 61 -50v-24q0 -14 -2 -25.5t-6 -25.5l-19 -55q-6 -19 -25 -19h-27q-21 0 -21 18q0 2 0.5 3.5t0.5 3.5l10 55q-30 11 -30 46v23q0 24 15.5 37t42.5 13z
" />
    <glyph glyph-name="Ldot" unicode="&#x13f;" horiz-adv-x="442" 
d="M147 655q28 0 28 -28v-519h220q29 0 29 -28v-52q0 -28 -29 -28h-311q-28 0 -28 28v599q0 28 28 28h63zM327 446q70 0 70 -60v-26q0 -29 -18 -44.5t-52 -15.5q-33 0 -51.5 15.5t-18.5 44.5v26q0 30 18.5 45t51.5 15z" />
    <glyph glyph-name="ldot" unicode="&#x140;" horiz-adv-x="397" 
d="M140 511q26 0 26 -26v-386h176q27 0 27 -27v-46q0 -26 -27 -26h-260q-26 0 -26 26v459q0 26 26 26h58zM303 373q70 0 70 -60v-27q0 -59 -70 -59q-33 0 -51.5 15t-18.5 44v27q0 29 18.5 44.5t51.5 15.5z" />
    <glyph glyph-name="Lslash" unicode="&#x141;" horiz-adv-x="459" 
d="M163 655q28 0 28 -28v-222l86 24q8 2 11 2q21 0 21 -26v-43q0 -26 -24 -32l-94 -26v-196h220q29 0 29 -28v-52q0 -28 -29 -28h-311q-29 0 -29 28v242l-34 -9q-4 -1 -10 -1q-22 0 -22 25v43q0 26 24 32l42 12v255q0 28 29 28h63z" />
    <glyph glyph-name="lslash" unicode="&#x142;" horiz-adv-x="393" 
d="M145 511q26 0 26 -26v-158l48 12q3 1 8 1q20 0 20 -22v-28q0 -12 -4.5 -19t-17.5 -10l-54 -14v-148h176q27 0 27 -27v-46q0 -26 -27 -26h-260q-26 0 -26 26v191l-23 -5q-4 -1 -10 -1q-19 0 -19 21v31q0 22 23 27l29 7v188q0 26 26 26h58z" />
    <glyph glyph-name="Nacute" unicode="&#x143;" horiz-adv-x="559" 
d="M368 0q-23 0 -32 23l-165 440v-435q0 -28 -28 -28h-59q-28 0 -28 28v599q0 28 28 28h111q24 0 33 -23l160 -440v435q0 28 28 28h59q28 0 28 -28v-599q0 -28 -28 -28h-107zM380 844q20 0 20 -14q0 -8 -5 -14l-70 -94q-11 -14 -28 -14h-46q-20 0 -20 15q0 5 3 13l51 92
q9 16 28 16h67z" />
    <glyph glyph-name="nacute" unicode="&#x144;" horiz-adv-x="488" 
d="M406 511q26 0 26 -26v-459q0 -26 -26 -26h-83q-23 0 -30 21l-131 315v-310q0 -26 -26 -26h-54q-26 0 -26 26v459q0 26 26 26h88q22 0 30 -21l126 -309v304q0 26 26 26h54zM344 688q20 0 20 -14q0 -7 -6 -14l-66 -88q-10 -14 -28 -14h-39q-21 0 -21 15q0 6 4 13l47 86
q10 16 28 16h61z" />
    <glyph glyph-name="Ncommaaccent" unicode="&#x145;" horiz-adv-x="559" 
d="M368 0q-23 0 -32 23l-165 440v-435q0 -28 -28 -28h-59q-28 0 -28 28v599q0 28 28 28h111q24 0 33 -23l160 -440v435q0 28 28 28h59q28 0 28 -28v-599q0 -28 -28 -28h-107zM285 -56q61 0 61 -50v-24q0 -14 -2 -25.5t-6 -25.5l-19 -55q-6 -19 -25 -19h-27q-21 0 -21 18
q0 2 0.5 3.5t0.5 3.5l10 55q-30 11 -30 46v23q0 24 15.5 37t42.5 13z" />
    <glyph glyph-name="ncommaaccent" unicode="&#x146;" horiz-adv-x="488" 
d="M406 511q26 0 26 -26v-459q0 -26 -26 -26h-83q-23 0 -30 21l-131 315v-310q0 -26 -26 -26h-54q-26 0 -26 26v459q0 26 26 26h88q22 0 30 -21l126 -309v304q0 26 26 26h54zM244 -56q61 0 61 -50v-24q0 -14 -2 -25.5t-6 -25.5l-19 -55q-6 -19 -25 -19h-27q-21 0 -21 18
q0 2 0.5 3.5t0.5 3.5l10 55q-30 11 -30 46v23q0 24 15.5 37t42.5 13z" />
    <glyph glyph-name="Ncaron" unicode="&#x147;" horiz-adv-x="559" 
d="M368 0q-23 0 -32 23l-165 440v-435q0 -28 -28 -28h-59q-28 0 -28 28v599q0 28 28 28h111q24 0 33 -23l160 -440v435q0 28 28 28h59q28 0 28 -28v-599q0 -28 -28 -28h-107zM401 855q8 2 10 2q17 0 17 -21v-39q0 -11 -3 -17t-14 -11l-113 -51q-9 -3 -16 -3q-8 0 -15 3
l-112 51q-11 5 -14.5 11t-3.5 17v39q0 21 17 21q2 0 10 -2l119 -43z" />
    <glyph glyph-name="ncaron" unicode="&#x148;" horiz-adv-x="488" 
d="M406 511q26 0 26 -26v-459q0 -26 -26 -26h-83q-23 0 -30 21l-131 315v-310q0 -26 -26 -26h-54q-26 0 -26 26v459q0 26 26 26h88q22 0 30 -21l126 -309v304q0 26 26 26h54zM345 693q8 2 10 2q17 0 17 -21v-35q0 -20 -17 -28l-93 -43q-8 -4 -16 -4t-15 4l-94 43
q-17 8 -17 28v35q0 21 17 21q2 0 10 -2l99 -38z" />
    <glyph glyph-name="napostrophe" unicode="&#x149;" horiz-adv-x="488" 
d="M406 511q26 0 26 -26v-459q0 -26 -26 -26h-83q-23 0 -30 21l-131 315v-310q0 -26 -26 -26h-54q-26 0 -26 26v459q0 26 26 26h88q22 0 30 -21l126 -309v304q0 26 26 26h54z" />
    <glyph glyph-name="Eng" unicode="&#x14a;" horiz-adv-x="559" 
d="M475 655q28 0 28 -28v-619q0 -91 -40 -134.5t-123 -43.5q-11 0 -29.5 1.5t-32.5 4.5q-25 4 -25 31v46q0 28 24 28q2 0 3 -0.5t3 -0.5q11 -2 22.5 -3t24.5 -1q28 0 43.5 12.5t15.5 44.5v7h-21q-23 0 -32 23l-165 440v-435q0 -28 -28 -28h-59q-28 0 -28 28v599q0 28 28 28
h111q24 0 33 -23l160 -440v435q0 28 28 28h59z" />
    <glyph glyph-name="eng" unicode="&#x14b;" horiz-adv-x="488" 
d="M406 511q26 0 26 -26v-492q0 -79 -34 -115.5t-104 -36.5q-10 0 -23.5 1.5t-26.5 4.5q-24 4 -24 28v43q0 24 21 24q2 0 3 -0.5t3 -0.5q15 -3 34 -3q23 0 34 11t11 40v11h-6q-19 0 -27 21l-131 315v-310q0 -26 -26 -26h-54q-26 0 -26 26v459q0 26 26 26h88q22 0 30 -21
l126 -309v304q0 26 26 26h54z" />
    <glyph glyph-name="Omacron" unicode="&#x14c;" horiz-adv-x="553" 
d="M276 667q118 0 172 -57.5t54 -163.5v-237q0 -104 -54 -162.5t-172 -58.5q-59 0 -101.5 15t-70 43.5t-40.5 69.5t-13 93v237q0 106 53.5 163.5t171.5 57.5zM276 559q-106 0 -106 -104v-254q0 -105 106 -105t106 105v253q0 51 -26 78t-80 27zM381 806q23 0 23 -23v-48
q0 -24 -23 -24h-211q-23 0 -23 24v48q0 23 23 23h211z" />
    <glyph glyph-name="omacron" unicode="&#x14d;" horiz-adv-x="480" 
d="M240 523q96 0 143 -46t47 -134v-175q0 -86 -46 -133t-144 -47t-143.5 47t-45.5 133v175q0 88 47 134t142 46zM240 426q-39 0 -59 -19.5t-20 -54.5v-188q0 -38 19.5 -58.5t59.5 -20.5t59.5 20t19.5 55v187q0 79 -79 79zM328 660q24 0 24 -23v-44q0 -23 -24 -23h-176
q-23 0 -23 23v44q0 23 23 23h176z" />
    <glyph glyph-name="Obreve" unicode="&#x14e;" horiz-adv-x="553" 
d="M276 667q118 0 172 -57.5t54 -163.5v-237q0 -104 -54 -162.5t-172 -58.5q-59 0 -101.5 15t-70 43.5t-40.5 69.5t-13 93v237q0 106 53.5 163.5t171.5 57.5zM276 559q-106 0 -106 -104v-254q0 -105 106 -105t106 105v253q0 51 -26 78t-80 27zM394 837q8 5 15 5q13 0 13 -19
v-46q0 -20 -14 -28q-9 -6 -22 -14t-30 -14.5t-37 -11.5t-42 -5q-23 0 -43.5 5t-37.5 11.5t-30 14t-21 13.5q-14 10 -14 28v47q0 19 13 19q6 0 15 -6q20 -13 51 -27t67 -14q35 0 66 14t51 28z" />
    <glyph glyph-name="obreve" unicode="&#x14f;" horiz-adv-x="480" 
d="M240 523q96 0 143 -46t47 -134v-175q0 -86 -46 -133t-144 -47t-143.5 47t-45.5 133v175q0 88 47 134t142 46zM240 426q-39 0 -59 -19.5t-20 -54.5v-188q0 -38 19.5 -58.5t59.5 -20.5t59.5 20t19.5 55v187q0 79 -79 79zM337 680q4 3 8 4t7 1q13 0 13 -19v-43
q0 -18 -15 -28q-14 -11 -43 -23.5t-67 -12.5q-37 0 -66.5 12.5t-44.5 23.5q-14 10 -14 28v43q0 19 13 19q3 0 7 -1t8 -4q18 -11 44 -22.5t53 -11.5t52.5 11.5t44.5 22.5z" />
    <glyph glyph-name="Ohungarumlaut" unicode="&#x150;" horiz-adv-x="553" 
d="M276 667q118 0 172 -57.5t54 -163.5v-237q0 -104 -54 -162.5t-172 -58.5q-59 0 -101.5 15t-70 43.5t-40.5 69.5t-13 93v237q0 106 53.5 163.5t171.5 57.5zM276 559q-106 0 -106 -104v-254q0 -105 106 -105t106 105v253q0 51 -26 78t-80 27zM280 852q20 0 20 -15
q0 -6 -4 -13l-55 -100q-10 -16 -28 -16h-48q-21 0 -21 16q0 6 3 12l42 98q9 18 28 18h63zM441 852q21 0 21 -15q0 -6 -4 -13l-55 -100q-10 -16 -28 -16h-49q-20 0 -20 16q0 4 3 12l42 98q9 18 28 18h62z" />
    <glyph glyph-name="ohungarumlaut" unicode="&#x151;" horiz-adv-x="480" 
d="M240 523q96 0 143 -46t47 -134v-175q0 -86 -46 -133t-144 -47t-143.5 47t-45.5 133v175q0 88 47 134t142 46zM240 426q-39 0 -59 -19.5t-20 -54.5v-188q0 -38 19.5 -58.5t59.5 -20.5t59.5 20t19.5 55v187q0 79 -79 79zM254 692q20 0 20 -15q0 -6 -4 -13l-55 -90
q-10 -16 -28 -16h-39q-21 0 -21 15q0 6 3 12l42 90q8 17 28 17h54zM402 692q20 0 20 -14q0 -6 -5 -14l-54 -90q-10 -16 -28 -16h-40q-21 0 -21 15q0 6 3 12l43 90q8 17 28 17h54z" />
    <glyph glyph-name="OE" unicode="&#x152;" horiz-adv-x="747" 
d="M262 667q23 0 47.5 -3t45.5 -9h317q29 0 29 -28v-53q0 -29 -29 -29h-208v-158h188q29 0 29 -28v-52q0 -29 -29 -29h-188v-168h208q29 0 29 -29v-53q0 -28 -29 -28h-321q-39 -12 -84 -12q-109 0 -162.5 56.5t-53.5 164.5v237q0 109 54 165t157 56zM274 560
q-104 0 -104 -104v-256q0 -53 26.5 -79t74.5 -26q23 0 40.5 2t33.5 8v442q-27 13 -71 13z" />
    <glyph glyph-name="oe" unicode="&#x153;" horiz-adv-x="651" 
d="M238 523q23 0 46.5 -4t40.5 -8h253q27 0 27 -26v-47q0 -26 -27 -26h-173v-105h156q27 0 27 -26v-45q0 -26 -27 -26h-156v-111h173q27 0 27 -26v-47q0 -26 -27 -26h-256q-18 -5 -40 -8.5t-42 -3.5q-99 0 -144 46.5t-45 133.5v175q0 88 46.5 134t140.5 46zM239 426
q-38 0 -58 -19.5t-20 -54.5v-188q0 -38 19.5 -58.5t59.5 -20.5q29 0 55 6v324q-27 11 -56 11z" />
    <glyph glyph-name="Racute" unicode="&#x154;" horiz-adv-x="529" 
d="M239 667q125 0 181 -50t56 -134v-24q0 -53 -28 -97t-83 -67l143 -261q5 -10 5 -16q0 -18 -24 -18h-71q-23 0 -34 20l-131 244q-5 -1 -11 -1h-14q-12 0 -26 0.5t-27 1.5v-237q0 -28 -28 -28h-63q-28 0 -28 28v601q0 32 33 34q40 2 80.5 3t69.5 1zM240 562q-12 0 -31 -0.5
t-34 -1.5v-191q23 -2 36.5 -3t28.5 -1q63 0 89.5 25t26.5 70v16q0 43 -26.5 64.5t-89.5 21.5zM345 844q20 0 20 -14q0 -8 -5 -14l-70 -94q-11 -14 -28 -14h-46q-20 0 -20 15q0 5 3 13l51 92q9 16 28 16h67z" />
    <glyph glyph-name="racute" unicode="&#x155;" horiz-adv-x="458" 
d="M211 522q103 0 150.5 -39.5t47.5 -106.5v-16q0 -42 -23 -78t-65 -55l116 -195q5 -8 5 -15q0 -17 -23 -17h-66q-21 0 -31 19l-105 182h-27.5t-23.5 1v-176q0 -26 -26 -26h-58q-26 0 -26 26v465q0 26 24 28q32 2 66 2.5t65 0.5zM214 429q-10 0 -22.5 -0.5t-25.5 -2.5v-133
q13 -1 25 -1h22q46 0 65.5 17t19.5 48v11q0 30 -19.5 45.5t-64.5 15.5zM307 688q20 0 20 -14q0 -7 -6 -14l-66 -88q-10 -14 -28 -14h-39q-21 0 -21 15q0 6 4 13l47 86q10 16 28 16h61z" />
    <glyph glyph-name="Rcommaaccent" unicode="&#x156;" horiz-adv-x="529" 
d="M239 667q125 0 181 -50t56 -134v-24q0 -53 -28 -97t-83 -67l143 -261q5 -10 5 -16q0 -18 -24 -18h-71q-23 0 -34 20l-131 244q-5 -1 -11 -1h-14q-12 0 -26 0.5t-27 1.5v-237q0 -28 -28 -28h-63q-28 0 -28 28v601q0 32 33 34q40 2 80.5 3t69.5 1zM240 562q-12 0 -31 -0.5
t-34 -1.5v-191q23 -2 36.5 -3t28.5 -1q63 0 89.5 25t26.5 70v16q0 43 -26.5 64.5t-89.5 21.5zM271 -56q61 0 61 -50v-24q0 -14 -2 -25.5t-6 -25.5l-19 -55q-6 -19 -25 -19h-27q-21 0 -21 18q0 2 0.5 3.5t0.5 3.5l10 55q-30 11 -30 46v23q0 24 15.5 37t42.5 13z" />
    <glyph glyph-name="rcommaaccent" unicode="&#x157;" horiz-adv-x="458" 
d="M211 522q103 0 150.5 -39.5t47.5 -106.5v-16q0 -42 -23 -78t-65 -55l116 -195q5 -8 5 -15q0 -17 -23 -17h-66q-21 0 -31 19l-105 182h-27.5t-23.5 1v-176q0 -26 -26 -26h-58q-26 0 -26 26v465q0 26 24 28q32 2 66 2.5t65 0.5zM214 429q-10 0 -22.5 -0.5t-25.5 -2.5v-133
q13 -1 25 -1h22q46 0 65.5 17t19.5 48v11q0 30 -19.5 45.5t-64.5 15.5zM250 -56q61 0 61 -50v-24q0 -14 -2 -25.5t-6 -25.5l-19 -55q-6 -19 -25 -19h-27q-21 0 -21 18q0 2 0.5 3.5t0.5 3.5l10 55q-30 11 -30 46v23q0 24 15.5 37t42.5 13z" />
    <glyph glyph-name="Rcaron" unicode="&#x158;" horiz-adv-x="529" 
d="M239 667q125 0 181 -50t56 -134v-24q0 -53 -28 -97t-83 -67l143 -261q5 -10 5 -16q0 -18 -24 -18h-71q-23 0 -34 20l-131 244q-5 -1 -11 -1h-14q-12 0 -26 0.5t-27 1.5v-237q0 -28 -28 -28h-63q-28 0 -28 28v601q0 32 33 34q40 2 80.5 3t69.5 1zM240 562q-12 0 -31 -0.5
t-34 -1.5v-191q23 -2 36.5 -3t28.5 -1q63 0 89.5 25t26.5 70v16q0 43 -26.5 64.5t-89.5 21.5zM367 855q8 2 10 2q17 0 17 -21v-39q0 -11 -3 -17t-14 -11l-113 -51q-9 -3 -16 -3q-8 0 -15 3l-112 51q-11 5 -14.5 11t-3.5 17v39q0 21 17 21q2 0 10 -2l119 -43z" />
    <glyph glyph-name="rcaron" unicode="&#x159;" horiz-adv-x="458" 
d="M211 522q103 0 150.5 -39.5t47.5 -106.5v-16q0 -42 -23 -78t-65 -55l116 -195q5 -8 5 -15q0 -17 -23 -17h-66q-21 0 -31 19l-105 182h-27.5t-23.5 1v-176q0 -26 -26 -26h-58q-26 0 -26 26v465q0 26 24 28q32 2 66 2.5t65 0.5zM214 429q-10 0 -22.5 -0.5t-25.5 -2.5v-133
q13 -1 25 -1h22q46 0 65.5 17t19.5 48v11q0 30 -19.5 45.5t-64.5 15.5zM309 693q8 2 10 2q17 0 17 -21v-35q0 -20 -17 -28l-93 -43q-8 -4 -16 -4t-15 4l-94 43q-17 8 -17 28v35q0 21 17 21q2 0 10 -2l99 -38z" />
    <glyph glyph-name="Sacute" unicode="&#x15a;" horiz-adv-x="459" 
d="M237 667q26 0 60 -3.5t69 -10.5q26 -6 25 -31v-52q-2 -26 -24 -26q-5 0 -8 1q-32 6 -63.5 10t-56.5 4q-48 0 -67 -18t-19 -52v-21q0 -27 12 -40.5t51 -26.5l88 -29q35 -12 59.5 -27t40 -36t22.5 -49.5t7 -66.5v-19q0 -90 -51.5 -138t-170.5 -48q-29 0 -65 5t-73 14
q-26 6 -26 31l1 54q0 26 22 26q6 0 9 -1q34 -9 68.5 -14t60.5 -5q59 0 82 18.5t23 53.5v26q0 26 -11.5 41t-40.5 25l-97 32q-37 12 -62 27t-40.5 35.5t-22 48.5t-6.5 67v10q0 90 48 137.5t156 47.5zM327 844q20 0 20 -14q0 -8 -5 -14l-70 -94q-11 -14 -28 -14h-46
q-20 0 -20 15q0 5 3 13l51 92q9 16 28 16h67z" />
    <glyph glyph-name="sacute" unicode="&#x15b;" horiz-adv-x="394" 
d="M203 523q23 0 50 -3t56 -8q24 -5 24 -28l-1 -46q0 -25 -21 -25q-2 0 -3.5 0.5t-3.5 0.5q-27 5 -52.5 8.5t-45.5 3.5q-35 0 -49 -12t-14 -35v-15q0 -17 9 -27t37 -18l71 -23q61 -18 85.5 -50.5t24.5 -91.5v-18q0 -71 -43 -109.5t-142 -38.5q-22 0 -53.5 3.5t-63.5 11.5
q-23 4 -23 29l1 48q0 24 21 24q5 0 8 -1q28 -7 54.5 -11.5t47.5 -4.5q47 0 64.5 12.5t17.5 35.5v19q0 18 -8.5 28t-31.5 17l-76 24q-31 10 -52.5 22.5t-34.5 29t-18.5 39t-5.5 51.5v11q0 70 40.5 108.5t130.5 38.5zM285 688q20 0 20 -14q0 -7 -6 -14l-66 -88
q-10 -14 -28 -14h-39q-21 0 -21 15q0 6 4 13l47 86q10 16 28 16h61z" />
    <glyph glyph-name="Scircumflex" unicode="&#x15c;" horiz-adv-x="459" 
d="M237 667q26 0 60 -3.5t69 -10.5q26 -6 25 -31v-52q-2 -26 -24 -26q-5 0 -8 1q-32 6 -63.5 10t-56.5 4q-48 0 -67 -18t-19 -52v-21q0 -27 12 -40.5t51 -26.5l88 -29q35 -12 59.5 -27t40 -36t22.5 -49.5t7 -66.5v-19q0 -90 -51.5 -138t-170.5 -48q-29 0 -65 5t-73 14
q-26 6 -26 31l1 54q0 26 22 26q6 0 9 -1q34 -9 68.5 -14t60.5 -5q59 0 82 18.5t23 53.5v26q0 26 -11.5 41t-40.5 25l-97 32q-37 12 -62 27t-40.5 35.5t-22 48.5t-6.5 67v10q0 90 48 137.5t156 47.5zM215 860q7 3 15 3q7 0 16 -3l113 -51q11 -5 14 -11t3 -17v-39
q0 -21 -17 -21q-2 0 -10 2l-118 43l-119 -43q-8 -2 -10 -2q-17 0 -17 21v39q0 11 3.5 17t14.5 11z" />
    <glyph glyph-name="scircumflex" unicode="&#x15d;" horiz-adv-x="394" 
d="M203 523q23 0 50 -3t56 -8q24 -5 24 -28l-1 -46q0 -25 -21 -25q-2 0 -3.5 0.5t-3.5 0.5q-27 5 -52.5 8.5t-45.5 3.5q-35 0 -49 -12t-14 -35v-15q0 -17 9 -27t37 -18l71 -23q61 -18 85.5 -50.5t24.5 -91.5v-18q0 -71 -43 -109.5t-142 -38.5q-22 0 -53.5 3.5t-63.5 11.5
q-23 4 -23 29l1 48q0 24 21 24q5 0 8 -1q28 -7 54.5 -11.5t47.5 -4.5q47 0 64.5 12.5t17.5 35.5v19q0 18 -8.5 28t-31.5 17l-76 24q-31 10 -52.5 22.5t-34.5 29t-18.5 39t-5.5 51.5v11q0 70 40.5 108.5t130.5 38.5zM173 699q7 3 15 3q7 0 16 -3l93 -43q17 -8 17 -28v-35
q0 -21 -17 -21q-2 0 -10 2l-99 38l-99 -38q-8 -2 -10 -2q-17 0 -17 21v35q0 20 17 28z" />
    <glyph glyph-name="Scedilla" unicode="&#x15e;" horiz-adv-x="459" 
d="M237 667q26 0 60 -3.5t69 -10.5q26 -6 25 -31v-52q-2 -26 -24 -26q-5 0 -8 1q-32 6 -63.5 10t-56.5 4q-48 0 -67 -18t-19 -52v-21q0 -27 12 -40.5t51 -26.5l88 -29q35 -12 59.5 -27t40 -36t22.5 -49.5t7 -66.5v-19q0 -78 -37.5 -124t-122.5 -58l-9 -27h9q27 0 42.5 -18.5
t15.5 -45.5v-17q0 -38 -24 -59.5t-80 -21.5q-10 0 -23 1t-23 3q-12 3 -16.5 8.5t-4.5 16.5v23q0 21 14 21h4q7 -2 16 -3t14 -1q29 0 29 23v8q0 24 -29 24h-15q-17 0 -17 16q0 7 3 18l9 28q-26 2 -55.5 6.5t-59.5 11.5q-26 6 -26 31l1 54q0 26 22 26q6 0 9 -1q34 -9 68.5 -14
t60.5 -5q59 0 82 18.5t23 53.5v26q0 26 -11.5 41t-40.5 25l-97 32q-37 12 -62 27t-40.5 35.5t-22 48.5t-6.5 67v10q0 90 48 137.5t156 47.5z" />
    <glyph glyph-name="scedilla" unicode="&#x15f;" horiz-adv-x="394" 
d="M260 296q61 -18 85.5 -50.5t24.5 -91.5v-18q0 -62 -31.5 -99t-104.5 -46l-8 -26h9q28 0 43 -18.5t15 -45.5v-17q0 -38 -24 -59.5t-80 -21.5q-10 0 -22.5 1t-23.5 3q-21 6 -21 25v23q0 21 14 21h4q8 -2 16.5 -3t14.5 -1q28 0 28 23v8q0 12 -6 18t-22 6h-15q-18 0 -18 15
q0 10 4 19l9 29q-19 2 -40 5t-43 8q-23 4 -23 29l1 48q0 24 21 24q5 0 8 -1q28 -7 54.5 -11.5t47.5 -4.5q47 0 64.5 12.5t17.5 35.5v19q0 18 -8.5 28t-31.5 17l-76 24q-31 10 -52.5 22.5t-34.5 29t-18.5 39t-5.5 51.5v11q0 70 40.5 108.5t130.5 38.5q23 0 50 -3t56 -8
q24 -5 24 -28l-1 -46q0 -25 -21 -25q-2 0 -3.5 0.5t-3.5 0.5q-27 5 -52.5 8.5t-45.5 3.5q-35 0 -49 -12t-14 -35v-15q0 -17 9 -27t37 -18z" />
    <glyph glyph-name="Scaron" unicode="&#x160;" horiz-adv-x="459" 
d="M237 667q26 0 60 -3.5t69 -10.5q26 -6 25 -31v-52q-2 -26 -24 -26q-5 0 -8 1q-32 6 -63.5 10t-56.5 4q-48 0 -67 -18t-19 -52v-21q0 -27 12 -40.5t51 -26.5l88 -29q35 -12 59.5 -27t40 -36t22.5 -49.5t7 -66.5v-19q0 -90 -51.5 -138t-170.5 -48q-29 0 -65 5t-73 14
q-26 6 -26 31l1 54q0 26 22 26q6 0 9 -1q34 -9 68.5 -14t60.5 -5q59 0 82 18.5t23 53.5v26q0 26 -11.5 41t-40.5 25l-97 32q-37 12 -62 27t-40.5 35.5t-22 48.5t-6.5 67v10q0 90 48 137.5t156 47.5zM349 855q8 2 10 2q17 0 17 -21v-39q0 -11 -3 -17t-14 -11l-113 -51
q-9 -3 -16 -3q-8 0 -15 3l-112 51q-11 5 -14.5 11t-3.5 17v39q0 21 17 21q2 0 10 -2l119 -43z" />
    <glyph glyph-name="scaron" unicode="&#x161;" horiz-adv-x="394" 
d="M203 523q23 0 50 -3t56 -8q24 -5 24 -28l-1 -46q0 -25 -21 -25q-2 0 -3.5 0.5t-3.5 0.5q-27 5 -52.5 8.5t-45.5 3.5q-35 0 -49 -12t-14 -35v-15q0 -17 9 -27t37 -18l71 -23q61 -18 85.5 -50.5t24.5 -91.5v-18q0 -71 -43 -109.5t-142 -38.5q-22 0 -53.5 3.5t-63.5 11.5
q-23 4 -23 29l1 48q0 24 21 24q5 0 8 -1q28 -7 54.5 -11.5t47.5 -4.5q47 0 64.5 12.5t17.5 35.5v19q0 18 -8.5 28t-31.5 17l-76 24q-31 10 -52.5 22.5t-34.5 29t-18.5 39t-5.5 51.5v11q0 70 40.5 108.5t130.5 38.5zM287 693q8 2 10 2q17 0 17 -21v-35q0 -20 -17 -28l-93 -43
q-8 -4 -16 -4t-15 4l-94 43q-17 8 -17 28v35q0 21 17 21q2 0 10 -2l99 -38z" />
    <glyph glyph-name="Tcommaaccent" unicode="&#x162;" horiz-adv-x="522" 
d="M472 655q29 0 29 -28v-53q0 -29 -29 -29h-151v-517q0 -28 -29 -28h-15l-11 -35h8q28 0 43.5 -18.5t15.5 -45.5v-17q0 -38 -24 -59.5t-81 -21.5q-9 0 -22 1t-23 3q-22 5 -22 25v23q0 21 14 21h4q8 -2 17 -3t14 -1q28 0 28 23v8q0 12 -6 18t-22 6h-15q-17 0 -17 16
q0 7 3 18l20 62v522h-151q-29 0 -29 29v53q0 28 29 28h422z" />
    <glyph glyph-name="tcommaaccent" unicode="&#x163;" horiz-adv-x="444" 
d="M397 511q26 0 26 -26v-47q0 -26 -26 -26h-119v-386q0 -26 -26 -26h-11l-11 -35h9q28 0 43 -18.5t15 -45.5v-17q0 -38 -24 -59.5t-80 -21.5q-10 0 -22.5 1t-22.5 3q-22 5 -22 25v23q0 21 14 21h4q8 -2 16.5 -3t14.5 -1q28 0 28 23v8q0 12 -6 18t-22 6h-15q-18 0 -18 15
q0 10 4 19l22 67v384h-120q-27 0 -27 26v47q0 26 27 26h349z" />
    <glyph glyph-name="Tcaron" unicode="&#x164;" horiz-adv-x="522" 
d="M472 655q29 0 29 -28v-53q0 -29 -29 -29h-151v-517q0 -28 -29 -28h-62q-29 0 -29 28v517h-151q-29 0 -29 29v53q0 28 29 28h422zM380 855q8 2 10 2q17 0 17 -21v-39q0 -11 -3 -17t-14 -11l-113 -51q-9 -3 -16 -3q-8 0 -15 3l-112 51q-11 5 -14.5 11t-3.5 17v39
q0 21 17 21q2 0 10 -2l119 -43z" />
    <glyph glyph-name="tcaron" unicode="&#x165;" horiz-adv-x="444" 
d="M397 511q26 0 26 -26v-47q0 -26 -26 -26h-119v-386q0 -26 -26 -26h-58q-26 0 -26 26v386h-120q-27 0 -27 26v47q0 26 27 26h349zM320 693q8 2 10 2q17 0 17 -21v-35q0 -20 -17 -28l-93 -43q-8 -4 -16 -4t-15 4l-94 43q-17 8 -17 28v35q0 21 17 21q2 0 10 -2l99 -38z" />
    <glyph glyph-name="Tbar" unicode="&#x166;" horiz-adv-x="522" 
d="M472 655q28 0 28 -28v-53q0 -29 -28 -29h-151v-158h68q26 0 26 -28v-44q0 -28 -26 -28h-68v-259q0 -28 -29 -28h-62q-29 0 -29 28v259h-68q-26 0 -26 28v44q0 28 26 28h68v158h-151q-29 0 -29 29v53q0 28 29 28h422z" />
    <glyph glyph-name="tbar" unicode="&#x167;" horiz-adv-x="444" 
d="M397 511q26 0 26 -26v-47q0 -26 -26 -26h-119v-113h46q26 0 26 -26v-32q0 -27 -26 -27h-46v-188q0 -26 -26 -26h-58q-26 0 -26 26v188h-47q-26 0 -26 27v32q0 26 26 26h47v113h-120q-27 0 -27 26v47q0 26 27 26h349z" />
    <glyph glyph-name="Utilde" unicode="&#x168;" horiz-adv-x="553" 
d="M469 655q29 0 29 -28v-416q0 -106 -54 -164.5t-168 -58.5q-112 0 -166 57t-54 165v417q0 28 28 28h63q28 0 28 -28v-426q0 -52 26.5 -78.5t74.5 -26.5q49 0 75.5 26.5t26.5 78.5v426q0 28 28 28h63zM395 822q6 3 11 3q16 0 16 -21v-39q0 -9 -3 -16t-11 -12
q-11 -8 -30 -15.5t-41 -7.5q-17 0 -32.5 4.5t-30.5 9.5t-29.5 9.5t-29.5 4.5q-14 0 -29 -5t-28 -10q-6 -3 -11 -3q-16 0 -16 21v39q0 9 3 16t11 12q11 8 30 15.5t42 7.5q20 0 36.5 -4.5t30.5 -9.5t27.5 -9.5t27.5 -4.5t28.5 4.5t27.5 10.5z" />
    <glyph glyph-name="utilde" unicode="&#x169;" horiz-adv-x="483" 
d="M401 511q26 0 26 -26v-320q0 -85 -45.5 -131t-139.5 -46t-140 45.5t-46 131.5v320q0 26 26 26h58q26 0 26 -26v-325q0 -74 76 -74q36 0 55.5 19.5t19.5 54.5v325q0 26 26 26h58zM344 672q6 3 12 3q15 0 15 -20v-36q0 -10 -3 -16.5t-11 -11.5q-11 -6 -26 -11.5t-35 -5.5
q-14 0 -27 3.5t-25 7.5t-24.5 7.5t-25.5 3.5q-11 0 -23 -3t-23 -7q-8 -3 -12 -3q-15 0 -15 20v36q0 20 14 28q11 6 26 11.5t35 5.5q18 0 31.5 -3.5t25 -7.5t22.5 -7.5t23 -3.5q11 0 23 3t23 7z" />
    <glyph glyph-name="Umacron" unicode="&#x16a;" horiz-adv-x="553" 
d="M469 655q29 0 29 -28v-416q0 -106 -54 -164.5t-168 -58.5q-112 0 -166 57t-54 165v417q0 28 28 28h63q28 0 28 -28v-426q0 -52 26.5 -78.5t74.5 -26.5q49 0 75.5 26.5t26.5 78.5v426q0 28 28 28h63zM382 806q23 0 23 -23v-48q0 -24 -23 -24h-211q-23 0 -23 24v48
q0 23 23 23h211z" />
    <glyph glyph-name="umacron" unicode="&#x16b;" horiz-adv-x="483" 
d="M401 511q26 0 26 -26v-320q0 -85 -45.5 -131t-139.5 -46t-140 45.5t-46 131.5v320q0 26 26 26h58q26 0 26 -26v-325q0 -74 76 -74q36 0 55.5 19.5t19.5 54.5v325q0 26 26 26h58zM329 660q24 0 24 -23v-44q0 -23 -24 -23h-176q-23 0 -23 23v44q0 23 23 23h176z" />
    <glyph glyph-name="Ubreve" unicode="&#x16c;" horiz-adv-x="553" 
d="M469 655q29 0 29 -28v-416q0 -106 -54 -164.5t-168 -58.5q-112 0 -166 57t-54 165v417q0 28 28 28h63q28 0 28 -28v-426q0 -52 26.5 -78.5t74.5 -26.5q49 0 75.5 26.5t26.5 78.5v426q0 28 28 28h63zM394 837q8 5 15 5q13 0 13 -19v-46q0 -20 -14 -28q-9 -6 -22 -14
t-30 -14.5t-37 -11.5t-42 -5q-23 0 -43.5 5t-37.5 11.5t-30 14t-21 13.5q-14 10 -14 28v47q0 19 13 19q6 0 15 -6q20 -13 51 -27t67 -14q35 0 66 14t51 28z" />
    <glyph glyph-name="ubreve" unicode="&#x16d;" horiz-adv-x="483" 
d="M401 511q26 0 26 -26v-320q0 -85 -45.5 -131t-139.5 -46t-140 45.5t-46 131.5v320q0 26 26 26h58q26 0 26 -26v-325q0 -74 76 -74q36 0 55.5 19.5t19.5 54.5v325q0 26 26 26h58zM339 680q4 3 8 4t7 1q13 0 13 -19v-43q0 -18 -15 -28q-14 -11 -43 -23.5t-67 -12.5
q-37 0 -66.5 12.5t-44.5 23.5q-14 10 -14 28v43q0 19 13 19q3 0 7 -1t8 -4q18 -11 44 -22.5t53 -11.5t52.5 11.5t44.5 22.5z" />
    <glyph glyph-name="Uring" unicode="&#x16e;" horiz-adv-x="553" 
d="M469 655q29 0 29 -28v-416q0 -106 -54 -164.5t-168 -58.5q-112 0 -166 57t-54 165v417q0 28 28 28h63q28 0 28 -28v-426q0 -52 26.5 -78.5t74.5 -26.5q49 0 75.5 26.5t26.5 78.5v426q0 28 28 28h63zM277 893q58 0 91.5 -27.5t33.5 -83.5q0 -55 -33 -83t-92 -28t-92.5 28
t-33.5 83q0 56 33 83.5t93 27.5zM277 822q-21 0 -30 -11t-9 -28t9 -27.5t30 -10.5q20 0 29 10.5t9 27.5t-9 28t-29 11z" />
    <glyph glyph-name="uring" unicode="&#x16f;" horiz-adv-x="483" 
d="M401 511q26 0 26 -26v-320q0 -85 -45.5 -131t-139.5 -46t-140 45.5t-46 131.5v320q0 26 26 26h58q26 0 26 -26v-325q0 -74 76 -74q36 0 55.5 19.5t19.5 54.5v325q0 26 26 26h58zM241 735q53 0 84.5 -24.5t31.5 -76.5q0 -51 -31 -75.5t-85 -24.5q-53 0 -84.5 24.5
t-31.5 75.5q0 52 31.5 76.5t84.5 24.5zM241 667q-31 0 -31 -31q0 -32 31 -32q32 0 32 32q0 31 -32 31z" />
    <glyph glyph-name="Uhungarumlaut" unicode="&#x170;" horiz-adv-x="553" 
d="M469 655q29 0 29 -28v-416q0 -106 -54 -164.5t-168 -58.5q-112 0 -166 57t-54 165v417q0 28 28 28h63q28 0 28 -28v-426q0 -52 26.5 -78.5t74.5 -26.5q49 0 75.5 26.5t26.5 78.5v426q0 28 28 28h63zM281 852q20 0 20 -15q0 -6 -4 -13l-55 -100q-10 -16 -28 -16h-48
q-21 0 -21 16q0 6 3 12l42 98q9 18 28 18h63zM442 852q21 0 21 -15q0 -6 -4 -13l-55 -100q-10 -16 -28 -16h-49q-20 0 -20 16q0 4 3 12l42 98q9 18 28 18h62z" />
    <glyph glyph-name="uhungarumlaut" unicode="&#x171;" horiz-adv-x="483" 
d="M401 511q26 0 26 -26v-320q0 -85 -45.5 -131t-139.5 -46t-140 45.5t-46 131.5v320q0 26 26 26h58q26 0 26 -26v-325q0 -74 76 -74q36 0 55.5 19.5t19.5 54.5v325q0 26 26 26h58zM255 692q20 0 20 -15q0 -6 -4 -13l-55 -90q-10 -16 -28 -16h-39q-21 0 -21 15q0 6 3 12
l42 90q8 17 28 17h54zM403 692q20 0 20 -14q0 -6 -5 -14l-54 -90q-10 -16 -28 -16h-40q-21 0 -21 15q0 6 3 12l43 90q8 17 28 17h54z" />
    <glyph glyph-name="Uogonek" unicode="&#x172;" horiz-adv-x="553" 
d="M469 655q29 0 29 -28v-416q0 -75 -27.5 -128t-81.5 -73q-38 -14 -54 -35t-16 -42v-7q0 -31 31 -31q4 0 9.5 0.5t10.5 1.5h4q19 0 19 -22v-42q0 -21 -21 -25q-10 -3 -22 -4t-23 -1q-52 0 -78.5 23.5t-26.5 61.5v11q0 25 13 48t36 41q-112 3 -163.5 60t-51.5 162v417
q0 28 28 28h63q28 0 28 -28v-426q0 -52 26.5 -78.5t74.5 -26.5q49 0 75.5 26.5t26.5 78.5v426q0 28 28 28h63z" />
    <glyph glyph-name="uogonek" unicode="&#x173;" horiz-adv-x="483" 
d="M175 -101q0 25 12.5 48.5t35.5 41.5q-85 5 -126 49.5t-41 126.5v320q0 26 26 26h58q26 0 26 -26v-325q0 -74 76 -74q36 0 55.5 19.5t19.5 54.5v325q0 26 26 26h58q26 0 26 -26v-320q0 -60 -22 -100.5t-66 -57.5q-38 -14 -52.5 -33.5t-14.5 -40.5v-7q0 -31 31 -31
q4 0 9.5 0.5t10.5 1.5h4q19 0 19 -22v-42q0 -21 -21 -25q-10 -3 -22 -4t-23 -1q-52 0 -78.5 23.5t-26.5 61.5v11z" />
    <glyph glyph-name="Wcircumflex" unicode="&#x174;" horiz-adv-x="832" 
d="M785 655q26 0 26 -23q0 -5 -1 -8l-130 -599q-4 -25 -31 -25h-96q-26 0 -30 25l-107 501l-105 -501q-4 -25 -30 -25h-97q-27 0 -31 25l-131 599q-1 3 -1 8q0 23 26 23h68q27 0 31 -26l90 -506l105 507q4 25 30 25h90q26 0 30 -25l106 -506l89 505q4 26 31 26h68zM401 860
q7 3 15 3q7 0 16 -3l113 -51q11 -5 14 -11t3 -17v-39q0 -21 -17 -21q-2 0 -10 2l-118 43l-119 -43q-8 -2 -10 -2q-17 0 -17 21v39q0 11 3.5 17t14.5 11z" />
    <glyph glyph-name="wcircumflex" unicode="&#x175;" horiz-adv-x="699" 
d="M654 511q24 0 24 -21q0 -5 -1 -8l-102 -459q-6 -23 -30 -23h-85q-23 0 -28 23l-82 376l-81 -376q-5 -23 -29 -23h-86q-24 0 -29 23l-103 459q-1 3 -1 8q0 21 24 21h62q25 0 28 -24l66 -379l81 380q5 23 29 23h77q24 0 29 -23l81 -378l66 377q3 24 28 24h62zM335 699
q7 3 15 3q7 0 16 -3l93 -43q17 -8 17 -28v-35q0 -21 -17 -21q-2 0 -10 2l-99 38l-99 -38q-8 -2 -10 -2q-17 0 -17 21v35q0 20 17 28z" />
    <glyph glyph-name="Ycircumflex" unicode="&#x176;" horiz-adv-x="513" 
d="M469 655q25 0 25 -20q0 -6 -3 -13l-175 -396v-198q0 -28 -28 -28h-63q-28 0 -28 28v198l-175 396q-3 7 -3 14q0 19 25 19h74q23 0 32 -23l107 -290l108 291q9 22 33 22h71zM241 860q7 3 15 3q7 0 16 -3l113 -51q11 -5 14 -11t3 -17v-39q0 -21 -17 -21q-2 0 -10 2l-118 43
l-119 -43q-8 -2 -10 -2q-17 0 -17 21v39q0 11 3.5 17t14.5 11z" />
    <glyph glyph-name="ycircumflex" unicode="&#x177;" horiz-adv-x="441" 
d="M400 511q23 0 23 -17q0 -4 -4 -14l-143 -304v-150q0 -26 -26 -26h-58q-27 0 -27 26v150l-143 304q-2 4 -3 7t-1 6q0 18 24 18h67q22 0 30 -21l83 -215l82 215q7 21 30 21h66zM206 699q7 3 15 3q7 0 16 -3l93 -43q17 -8 17 -28v-35q0 -21 -17 -21q-2 0 -10 2l-99 38
l-99 -38q-8 -2 -10 -2q-17 0 -17 21v35q0 20 17 28z" />
    <glyph glyph-name="Ydieresis" unicode="&#x178;" horiz-adv-x="513" 
d="M469 655q25 0 25 -20q0 -6 -3 -13l-175 -396v-198q0 -28 -28 -28h-63q-28 0 -28 28v198l-175 396q-3 7 -3 14q0 19 25 19h74q23 0 32 -23l107 -290l108 291q9 22 33 22h71zM161 847q32 0 49 -14.5t17 -42.5v-26q0 -26 -17 -41t-49 -15q-31 0 -48.5 15t-17.5 41v26
q0 28 17.5 42.5t48.5 14.5zM351 847q67 0 67 -57v-26q0 -26 -17.5 -41t-49.5 -15q-30 0 -48 15t-18 41v26q0 28 18 42.5t48 14.5z" />
    <glyph glyph-name="Zacute" unicode="&#x179;" horiz-adv-x="476" 
d="M413 655q29 0 29 -28v-45q0 -18 -10 -35l-261 -438h242q29 0 29 -28v-53q0 -28 -29 -28h-356q-29 0 -29 28v44q0 19 10 35l261 439h-235q-29 0 -29 28v53q0 28 29 28h349zM335 844q20 0 20 -14q0 -8 -5 -14l-70 -94q-11 -14 -28 -14h-46q-20 0 -20 15q0 5 3 13l51 92
q9 16 28 16h67z" />
    <glyph glyph-name="zacute" unicode="&#x17a;" horiz-adv-x="412" 
d="M351 511q26 0 26 -26v-39q0 -10 -2 -17.5t-7 -15.5l-205 -314h188q26 0 26 -26v-47q0 -26 -26 -26h-296q-27 0 -27 26v39q0 18 10 32l206 315h-183q-27 0 -27 26v47q0 26 27 26h290zM300 688q20 0 20 -14q0 -7 -6 -14l-66 -88q-10 -14 -28 -14h-39q-21 0 -21 15q0 6 4 13
l47 86q10 16 28 16h61z" />
    <glyph glyph-name="Zdotaccent" unicode="&#x17b;" horiz-adv-x="476" 
d="M413 655q29 0 29 -28v-45q0 -18 -10 -35l-261 -438h242q29 0 29 -28v-53q0 -28 -29 -28h-356q-29 0 -29 28v44q0 19 10 35l261 439h-235q-29 0 -29 28v53q0 28 29 28h349zM238 853q70 0 70 -60v-26q0 -29 -18 -44.5t-52 -15.5q-33 0 -51.5 15.5t-18.5 44.5v26
q0 30 18.5 45t51.5 15z" />
    <glyph glyph-name="zdotaccent" unicode="&#x17c;" horiz-adv-x="412" 
d="M351 511q26 0 26 -26v-39q0 -10 -2 -17.5t-7 -15.5l-205 -314h188q26 0 26 -26v-47q0 -26 -26 -26h-296q-27 0 -27 26v39q0 18 10 32l206 315h-183q-27 0 -27 26v47q0 26 27 26h290zM202 716q70 0 70 -60v-27q0 -59 -70 -59q-33 0 -51.5 15t-18.5 44v27q0 29 18.5 44.5
t51.5 15.5z" />
    <glyph glyph-name="Zcaron" unicode="&#x17d;" horiz-adv-x="476" 
d="M413 655q29 0 29 -28v-45q0 -18 -10 -35l-261 -438h242q29 0 29 -28v-53q0 -28 -29 -28h-356q-29 0 -29 28v44q0 19 10 35l261 439h-235q-29 0 -29 28v53q0 28 29 28h349zM356 855q8 2 10 2q17 0 17 -21v-39q0 -11 -3 -17t-14 -11l-113 -51q-9 -3 -16 -3q-8 0 -15 3
l-112 51q-11 5 -14.5 11t-3.5 17v39q0 21 17 21q2 0 10 -2l119 -43z" />
    <glyph glyph-name="zcaron" unicode="&#x17e;" horiz-adv-x="412" 
d="M351 511q26 0 26 -26v-39q0 -10 -2 -17.5t-7 -15.5l-205 -314h188q26 0 26 -26v-47q0 -26 -26 -26h-296q-27 0 -27 26v39q0 18 10 32l206 315h-183q-27 0 -27 26v47q0 26 27 26h290zM301 693q8 2 10 2q17 0 17 -21v-35q0 -20 -17 -28l-93 -43q-8 -4 -16 -4t-15 4l-94 43
q-17 8 -17 28v35q0 21 17 21q2 0 10 -2l99 -38z" />
    <glyph glyph-name="longs" unicode="&#x17f;" horiz-adv-x="394" 
d="M203 523q23 0 50 -3t56 -8q24 -5 24 -28l-1 -46q0 -25 -21 -25q-2 0 -3.5 0.5t-3.5 0.5q-27 5 -52.5 8.5t-45.5 3.5q-35 0 -49 -12t-14 -35v-15q0 -17 9 -27t37 -18l71 -23q61 -18 85.5 -50.5t24.5 -91.5v-18q0 -71 -43 -109.5t-142 -38.5q-22 0 -53.5 3.5t-63.5 11.5
q-23 4 -23 29l1 48q0 24 21 24q5 0 8 -1q28 -7 54.5 -11.5t47.5 -4.5q47 0 64.5 12.5t17.5 35.5v19q0 18 -8.5 28t-31.5 17l-76 24q-31 10 -52.5 22.5t-34.5 29t-18.5 39t-5.5 51.5v11q0 70 40.5 108.5t130.5 38.5z" />
    <glyph glyph-name="florin" unicode="&#x192;" horiz-adv-x="323" 
d="M233 613q14 0 29.5 -2t29.5 -5q23 -4 23 -30v-42q0 -27 -21 -27q-2 0 -3 0.5t-3 0.5q-9 2 -20 3t-19 1q-26 0 -40.5 -15.5t-14.5 -53.5v-37h63q28 0 28 -29v-44q0 -28 -28 -28h-63v-462q0 -28 -29 -28h-59q-29 0 -29 28v462h-35q-28 0 -28 28v44q0 29 28 29h35v41
q1 82 41 124t115 42z" />
    <glyph glyph-name="AEacute" unicode="&#x1fc;" horiz-adv-x="759" 
d="M685 655q28 0 28 -28v-53q0 -29 -28 -29h-217v-158h197q28 0 28 -28v-52q0 -29 -28 -29h-197v-168h217q28 0 28 -29v-53q0 -28 -28 -28h-308q-29 0 -29 28v115h-165l-47 -121q-7 -22 -33 -22h-67q-25 0 -25 19q0 6 3 14l248 600q9 22 33 22h390zM224 252h124v311z
M619 844q20 0 20 -14q0 -8 -5 -14l-70 -94q-11 -14 -28 -14h-46q-20 0 -20 15q0 5 3 13l51 92q9 16 28 16h67z" />
    <glyph glyph-name="aeacute" unicode="&#x1fd;" horiz-adv-x="642" 
d="M570 511q27 0 27 -26v-47q0 -26 -27 -26h-173v-105h156q27 0 27 -26v-45q0 -26 -27 -26h-156v-111h173q27 0 27 -26v-47q0 -26 -27 -26h-257q-27 0 -27 26v75h-127l-32 -80q-8 -21 -30 -21h-64q-23 0 -23 19q0 4 3 12l192 460q9 20 30 20h335zM192 191h94v241zM511 688
q20 0 20 -14q0 -7 -6 -14l-66 -88q-10 -14 -28 -14h-39q-21 0 -21 15q0 6 4 13l47 86q10 16 28 16h61z" />
    <glyph glyph-name="Oslashacute" unicode="&#x1fe;" horiz-adv-x="553" 
d="M502 705q25 0 25 -18q0 -6 -5 -16l-51 -93q31 -52 31 -132v-237q0 -104 -54 -162.5t-172 -58.5q-36 0 -65.5 5.5t-52.5 16.5l-24 -40q-11 -20 -34 -20h-52q-25 0 -25 19q0 5 5 15l53 93q-16 26 -23 59.5t-7 72.5v237q0 106 53.5 163.5t171.5 57.5q70 0 118 -23l23 41
q10 20 34 20h51zM276 559q-106 0 -106 -104v-208q0 -8 0.5 -15t1.5 -14l176 320q-26 21 -72 21zM204 116q24 -20 72 -20q106 0 106 105v208v14t-2 13zM372 844q20 0 20 -14q0 -8 -5 -14l-70 -94q-11 -14 -28 -14h-46q-20 0 -20 15q0 5 3 13l51 92q9 16 28 16h67z" />
    <glyph glyph-name="oslashacute" unicode="&#x1ff;" horiz-adv-x="480" 
d="M442 555q23 0 23 -16q0 -7 -6 -16l-51 -81q22 -42 22 -99v-175q0 -86 -46 -133t-144 -47q-55 0 -94 17l-20 -31q-10 -18 -31 -18h-56q-23 0 -23 16q0 7 6 16l51 81q-22 40 -22 99v175q0 88 47 134t142 46q55 0 94 -17l20 31q10 18 31 18h57zM240 426q-39 0 -59 -19.5
t-20 -54.5v-155v-8t1 -8l133 228q-20 17 -55 17zM186 101q10 -8 23 -12t31 -4q40 0 59.5 20t19.5 55v153v14zM337 688q20 0 20 -14q0 -7 -6 -14l-66 -88q-10 -14 -28 -14h-39q-21 0 -21 15q0 6 4 13l47 86q10 16 28 16h61z" />
    <glyph glyph-name="Scommaaccent" unicode="&#x218;" horiz-adv-x="459" 
d="M237 667q26 0 60 -3.5t69 -10.5q26 -6 25 -31v-52q-2 -26 -24 -26q-5 0 -8 1q-32 6 -63.5 10t-56.5 4q-48 0 -67 -18t-19 -52v-21q0 -27 12 -40.5t51 -26.5l88 -29q35 -12 59.5 -27t40 -36t22.5 -49.5t7 -66.5v-19q0 -90 -51.5 -138t-170.5 -48q-29 0 -65 5t-73 14
q-26 6 -26 31l1 54q0 26 22 26q6 0 9 -1q34 -9 68.5 -14t60.5 -5q59 0 82 18.5t23 53.5v26q0 26 -11.5 41t-40.5 25l-97 32q-37 12 -62 27t-40.5 35.5t-22 48.5t-6.5 67v10q0 90 48 137.5t156 47.5zM230 -56q61 0 61 -50v-24q0 -14 -2 -25.5t-6 -25.5l-19 -55
q-6 -19 -25 -19h-27q-21 0 -21 18q0 2 0.5 3.5t0.5 3.5l10 55q-30 11 -30 46v23q0 24 15.5 37t42.5 13z" />
    <glyph glyph-name="scommaaccent" unicode="&#x219;" horiz-adv-x="394" 
d="M203 523q23 0 50 -3t56 -8q24 -5 24 -28l-1 -46q0 -25 -21 -25q-2 0 -3.5 0.5t-3.5 0.5q-27 5 -52.5 8.5t-45.5 3.5q-35 0 -49 -12t-14 -35v-15q0 -17 9 -27t37 -18l71 -23q61 -18 85.5 -50.5t24.5 -91.5v-18q0 -71 -43 -109.5t-142 -38.5q-22 0 -53.5 3.5t-63.5 11.5
q-23 4 -23 29l1 48q0 24 21 24q5 0 8 -1q28 -7 54.5 -11.5t47.5 -4.5q47 0 64.5 12.5t17.5 35.5v19q0 18 -8.5 28t-31.5 17l-76 24q-31 10 -52.5 22.5t-34.5 29t-18.5 39t-5.5 51.5v11q0 70 40.5 108.5t130.5 38.5zM212 -56q61 0 61 -50v-24q0 -14 -2 -25.5t-6 -25.5
l-19 -55q-6 -19 -25 -19h-27q-21 0 -21 18q0 2 0.5 3.5t0.5 3.5l10 55q-30 11 -30 46v23q0 24 15.5 37t42.5 13z" />
    <glyph glyph-name="uni021A" unicode="&#x21a;" horiz-adv-x="522" 
d="M472 655q29 0 29 -28v-53q0 -29 -29 -29h-151v-517q0 -28 -29 -28h-62q-29 0 -29 28v517h-151q-29 0 -29 29v53q0 28 29 28h422zM259 -56q61 0 61 -50v-24q0 -14 -2 -25.5t-6 -25.5l-19 -55q-6 -19 -25 -19h-27q-21 0 -21 18q0 2 0.5 3.5t0.5 3.5l10 55q-30 11 -30 46v23
q0 24 15.5 37t42.5 13z" />
    <glyph glyph-name="uni021B" unicode="&#x21b;" horiz-adv-x="444" 
d="M397 511q26 0 26 -26v-47q0 -26 -26 -26h-119v-386q0 -26 -26 -26h-58q-26 0 -26 26v386h-120q-27 0 -27 26v47q0 26 27 26h349zM220 -56q61 0 61 -50v-24q0 -14 -2 -25.5t-6 -25.5l-19 -55q-6 -19 -25 -19h-27q-21 0 -21 18q0 2 0.5 3.5t0.5 3.5l10 55q-30 11 -30 46v23
q0 24 15.5 37t42.5 13z" />
    <glyph glyph-name="uni0237" unicode="&#x237;" horiz-adv-x="272" 
d="M189 511q27 0 27 -26v-346q0 -78 -34 -114.5t-105 -36.5q-10 0 -27 2t-29 4q-24 4 -24 28v43q0 24 20 24q2 0 3.5 -0.5t3.5 -0.5q8 -2 18.5 -3t19.5 -1q23 0 33 11.5t10 40.5v349q0 26 27 26h57z" />
    <glyph glyph-name="afii57929" unicode="&#x2bc;" horiz-adv-x="197" 
d="M105 695q62 0 62 -50v-24q0 -14 -2 -25.5t-7 -25.5l-19 -55q-6 -19 -25 -19h-27q-21 0 -21 18q0 2 0.5 3.5t0.5 3.5l10 55q-30 11 -30 46v23q0 24 15.5 37t42.5 13z" />
    <glyph glyph-name="circumflex" unicode="&#x2c6;" horiz-adv-x="312" 
d="M141 699q7 3 15 3q7 0 16 -3l93 -43q17 -8 17 -28v-35q0 -21 -17 -21q-2 0 -10 2l-99 38l-99 -38q-8 -2 -10 -2q-17 0 -17 21v35q0 20 17 28z" />
    <glyph glyph-name="caron" unicode="&#x2c7;" horiz-adv-x="312" 
d="M255 693q8 2 10 2q17 0 17 -21v-35q0 -20 -17 -28l-93 -43q-8 -4 -16 -4t-15 4l-94 43q-17 8 -17 28v35q0 21 17 21q2 0 10 -2l99 -38z" />
    <glyph glyph-name="uni02C9" unicode="&#x2c9;" horiz-adv-x="297" 
d="M244 687q23 0 23 -23v-49q0 -23 -23 -23h-191q-23 0 -23 23v49q0 23 23 23h191z" />
    <glyph glyph-name="breve" unicode="&#x2d8;" horiz-adv-x="310" 
d="M252 680q4 3 8 4t7 1q13 0 13 -19v-43q0 -18 -15 -28q-14 -11 -43 -23.5t-67 -12.5q-37 0 -66.5 12.5t-44.5 23.5q-14 10 -14 28v43q0 19 13 19q3 0 7 -1t8 -4q18 -11 44 -22.5t53 -11.5t52.5 11.5t44.5 22.5z" />
    <glyph glyph-name="dotaccent" unicode="&#x2d9;" horiz-adv-x="200" 
d="M100 716q70 0 70 -60v-27q0 -59 -70 -59q-33 0 -51.5 15t-18.5 44v27q0 29 18.5 44.5t51.5 15.5z" />
    <glyph glyph-name="ring" unicode="&#x2da;" horiz-adv-x="292" 
d="M146 735q53 0 84.5 -24.5t31.5 -76.5q0 -51 -31 -75.5t-85 -24.5q-53 0 -84.5 24.5t-31.5 75.5q0 52 31.5 76.5t84.5 24.5zM146 667q-31 0 -31 -31q0 -32 31 -32q32 0 32 32q0 31 -32 31z" />
    <glyph glyph-name="ogonek" unicode="&#x2db;" horiz-adv-x="232" 
d="M151 23q2 0 4 0.5t4 0.5q6 0 11.5 -2t11.5 -5q5 -3 5 -6q0 -7 -19 -16q-22 -12 -31.5 -28.5t-9.5 -33.5v-7q0 -31 31 -31q4 0 9.5 0.5t10.5 1.5h4q19 0 19 -22v-42q0 -21 -21 -25q-10 -3 -22 -4t-23 -1q-52 0 -78.5 23.5t-26.5 61.5v11q0 41 33.5 75.5t87.5 48.5z" />
    <glyph glyph-name="tilde" unicode="&#x2dc;" horiz-adv-x="310" 
d="M253 672q6 3 12 3q15 0 15 -20v-36q0 -10 -3 -16.5t-11 -11.5q-11 -6 -26 -11.5t-35 -5.5q-14 0 -27 3.5t-25 7.5t-24.5 7.5t-25.5 3.5q-11 0 -23 -3t-23 -7q-8 -3 -12 -3q-15 0 -15 20v36q0 20 14 28q11 6 26 11.5t35 5.5q18 0 31.5 -3.5t25 -7.5t22.5 -7.5t23 -3.5
q11 0 23 3t23 7z" />
    <glyph glyph-name="hungarumlaut" unicode="&#x2dd;" horiz-adv-x="379" 
d="M169 692q20 0 20 -15q0 -6 -4 -13l-55 -90q-10 -16 -28 -16h-39q-21 0 -21 15q0 6 3 12l42 90q8 17 28 17h54zM317 692q20 0 20 -14q0 -6 -5 -14l-54 -90q-10 -16 -28 -16h-40q-21 0 -21 15q0 6 3 12l43 90q8 17 28 17h54z" />
    <glyph glyph-name="uni0312" unicode="&#x312;" horiz-adv-x="0" 
d="M110 757q20 0 20 -19q0 -2 -0.5 -3.5t-0.5 -3.5l-10 -54q30 -12 30 -47v-23q0 -23 -15 -36.5t-43 -13.5q-31 0 -46 13.5t-15 36.5v24q0 14 2 25.5t7 25.5l19 56q6 19 25 19h27z" />
    <glyph glyph-name="uni0313" unicode="&#x313;" horiz-adv-x="0" 
d="M88 695q61 0 61 -50v-24q0 -14 -2 -25.5t-6 -25.5l-19 -55q-6 -19 -25 -19h-27q-21 0 -21 18q0 2 0.5 3.5t0.5 3.5l10 55q-30 11 -30 46v23q0 24 15.5 37t42.5 13z" />
    <glyph glyph-name="uni0326" unicode="&#x326;" horiz-adv-x="0" 
d="M88 -56q61 0 61 -50v-24q0 -14 -2 -25.5t-6 -25.5l-19 -55q-6 -19 -25 -19h-27q-21 0 -21 18q0 2 0.5 3.5t0.5 3.5l10 55q-30 11 -30 46v23q0 24 15.5 37t42.5 13z" />
    <glyph glyph-name="tonos" unicode="&#x384;" horiz-adv-x="227" 
d="M167 704q21 0 21 -16q0 -5 -3 -11l-51 -115q-8 -18 -27 -18h-50q-21 0 -21 18q0 5 1 8l28 114q5 20 25 20h77z" />
    <glyph glyph-name="dieresistonos" unicode="&#x385;" horiz-adv-x="388" 
d="M278 892q21 0 21 -16q0 -5 -3 -11l-49 -106q-5 -9 -10.5 -13t-16.5 -4h-50q-22 0 -22 18q0 5 1 8l27 104q4 20 25 20h77zM93 711q27 0 46 -16t19 -42v-22q0 -26 -19 -42t-46 -16q-26 0 -44.5 16t-18.5 42v22q0 26 18.5 42t44.5 16zM293 711q27 0 46 -16t19 -42v-22
q0 -26 -19 -42t-46 -16q-26 0 -44.5 16t-18.5 42v22q0 26 18.5 42t44.5 16z" />
    <glyph glyph-name="Alphatonos" unicode="&#x386;" horiz-adv-x="582" 
d="M360 655q24 0 32 -24l178 -599q2 -8 2 -11q0 -21 -26 -21h-70q-25 0 -31 24l-29 113h-209l-29 -113q-6 -24 -31 -24h-65q-25 0 -25 20q0 4 2 12l177 599q6 24 32 24h92zM231 239h161l-80 316zM166 655q20 0 20 -15q0 -6 -3 -12l-51 -116q-5 -9 -10.5 -13t-16.5 -4h-50
q-21 0 -21 17q0 6 1 9l28 114q5 20 25 20h78z" />
    <glyph glyph-name="anoteleia" unicode="&#x387;" horiz-adv-x="217" 
d="M108 336q72 0 72 -61v-27q0 -29 -18.5 -44.5t-53.5 -15.5q-34 0 -52 15.5t-18 44.5v27q0 61 70 61z" />
    <glyph glyph-name="Epsilontonos" unicode="&#x388;" horiz-adv-x="566" 
d="M491 655q29 0 29 -28v-53q0 -29 -29 -29h-217v-158h197q29 0 29 -28v-52q0 -29 -29 -29h-197v-168h217q29 0 29 -29v-53q0 -28 -29 -28h-308q-28 0 -28 28v599q0 28 28 28h308zM95 655q20 0 20 -15q0 -6 -3 -12l-51 -116q-5 -9 -10.5 -13t-16.5 -4h-50q-21 0 -21 17
q0 6 1 9l28 114q5 20 25 20h78z" />
    <glyph glyph-name="Etatonos" unicode="&#x389;" horiz-adv-x="658" 
d="M574 655q28 0 28 -28v-599q0 -28 -28 -28h-63q-28 0 -28 28v255h-207v-255q0 -28 -28 -28h-63q-28 0 -28 28v599q0 28 28 28h63q28 0 28 -28v-236h207v236q0 28 28 28h63zM95 655q20 0 20 -15q0 -6 -3 -12l-51 -116q-5 -9 -10.5 -13t-16.5 -4h-50q-21 0 -21 17q0 6 1 9
l28 114q5 20 25 20h78z" />
    <glyph glyph-name="Iotatonos" unicode="&#x38a;" horiz-adv-x="331" 
d="M246 655q28 0 28 -28v-599q0 -28 -28 -28h-63q-28 0 -28 28v599q0 28 28 28h63zM95 655q20 0 20 -15q0 -6 -3 -12l-51 -116q-5 -9 -10.5 -13t-16.5 -4h-50q-21 0 -21 17q0 6 1 9l28 114q5 20 25 20h78z" />
    <glyph glyph-name="Omicrontonos" unicode="&#x38c;" horiz-adv-x="629" 
d="M352 667q118 0 172 -57.5t54 -163.5v-237q0 -104 -54 -162.5t-172 -58.5q-59 0 -101.5 15t-70 43.5t-40.5 69.5t-13 93v237q0 106 53.5 163.5t171.5 57.5zM352 559q-106 0 -106 -104v-254q0 -105 106 -105t106 105v253q0 51 -26 78t-80 27zM115 655q20 0 20 -15
q0 -6 -3 -12l-51 -116q-5 -9 -10.5 -13t-16.5 -4h-50q-21 0 -21 17q0 6 1 9l28 114q5 20 25 20h78z" />
    <glyph glyph-name="Upsilontonos" unicode="&#x38e;" horiz-adv-x="699" 
d="M655 655q25 0 25 -20q0 -6 -3 -13l-175 -396v-198q0 -28 -28 -28h-63q-28 0 -28 28v198l-175 396q-3 7 -3 14q0 19 25 19h74q23 0 32 -23l107 -290l108 291q9 22 33 22h71zM139 655q20 0 20 -15q0 -6 -3 -12l-51 -116q-5 -9 -10.5 -13t-16.5 -4h-50q-21 0 -21 17q0 6 1 9
l28 114q5 20 25 20h78z" />
    <glyph glyph-name="Omegatonos" unicode="&#x38f;" horiz-adv-x="628" 
d="M352 667q115 0 170.5 -57t55.5 -161v-188q0 -49 -14.5 -86.5t-48.5 -64.5h44q28 0 28 -29v-53q0 -28 -28 -28h-149q-29 0 -29 30v64q0 11 9 11h1q31 1 49 29t18 77v247q0 51 -27.5 77t-78.5 26t-79 -26t-28 -77v-247q0 -49 19.5 -77.5t48.5 -28.5h1q9 0 9 -11v-64
q0 -30 -29 -30h-149q-29 0 -29 28v53q0 29 29 29h43q-34 27 -48 65t-14 86v188q0 104 55.5 161t170.5 57zM115 655q20 0 20 -15q0 -6 -3 -12l-51 -116q-5 -9 -10.5 -13t-16.5 -4h-50q-21 0 -21 17q0 6 1 9l28 114q5 20 25 20h78z" />
    <glyph glyph-name="iotadieresistonos" unicode="&#x390;" horiz-adv-x="222" 
d="M140 511q26 0 26 -26v-459q0 -26 -26 -26h-58q-26 0 -26 26v459q0 26 26 26h58zM196 892q21 0 21 -16q0 -5 -3 -11l-49 -106q-5 -9 -10.5 -13t-16.5 -4h-50q-22 0 -22 18q0 5 1 8l27 104q4 20 25 20h77zM11 711q27 0 46 -16t19 -42v-22q0 -26 -19 -42t-46 -16
q-26 0 -44.5 16t-18.5 42v22q0 26 18.5 42t44.5 16zM211 711q27 0 46 -16t19 -42v-22q0 -26 -19 -42t-46 -16q-26 0 -44.5 16t-18.5 42v22q0 26 18.5 42t44.5 16z" />
    <glyph glyph-name="Alpha" unicode="&#x391;" horiz-adv-x="536" 
d="M314 655q24 0 32 -24l178 -599q2 -8 2 -11q0 -21 -26 -21h-70q-25 0 -31 24l-29 113h-209l-29 -113q-6 -24 -31 -24h-65q-25 0 -25 20q0 4 2 12l177 599q6 24 32 24h92zM185 239h161l-80 316z" />
    <glyph glyph-name="Beta" unicode="&#x392;" horiz-adv-x="513" 
d="M240 667q56 0 98 -12.5t70 -34t42 -51.5t14 -65v-18q0 -49 -24 -86.5t-75 -57.5q58 -11 91.5 -50.5t33.5 -98.5v-20q0 -41 -14 -74.5t-43.5 -58.5t-76 -38.5t-110.5 -13.5h-36.5t-36.5 0.5t-40.5 1.5t-48.5 2q-28 2 -28 29v613q0 28 29 29q35 2 76.5 3t78.5 1zM232 563
h-27t-30 -2v-179h73q48 0 72.5 23t24.5 64v16q0 38 -26 58t-87 20zM175 282v-185q14 -1 23.5 -2t17.5 -1.5t15 -0.5h17q66 0 94 24t28 65v18q0 39 -27 60.5t-89 21.5h-79z" />
    <glyph glyph-name="Gamma" unicode="&#x393;" horiz-adv-x="438" 
d="M388 655q28 0 28 -28v-53q0 -29 -28 -29h-213v-517q0 -28 -28 -28h-63q-28 0 -28 28v599q0 28 28 28h304z" />
    <glyph glyph-name="Delta" unicode="&#x394;" horiz-adv-x="527" 
d="M308 655q24 0 32 -24l165 -539q4 -10 5 -17.5t1 -17.5v-28q0 -29 -29 -29h-437q-28 0 -28 29v27q0 10 1 17.5t4 16.5l164 541q7 24 33 24h89zM142 106h237l-116 449z" />
    <glyph glyph-name="Epsilon" unicode="&#x395;" horiz-adv-x="467" 
d="M392 655q29 0 29 -28v-53q0 -29 -29 -29h-217v-158h197q29 0 29 -28v-52q0 -29 -29 -29h-197v-168h217q29 0 29 -29v-53q0 -28 -29 -28h-308q-28 0 -28 28v599q0 28 28 28h308z" />
    <glyph glyph-name="Zeta" unicode="&#x396;" horiz-adv-x="476" 
d="M413 655q29 0 29 -28v-45q0 -18 -10 -35l-261 -438h242q29 0 29 -28v-53q0 -28 -29 -28h-356q-29 0 -29 28v44q0 19 10 35l261 439h-235q-29 0 -29 28v53q0 28 29 28h349z" />
    <glyph glyph-name="Eta" unicode="&#x397;" horiz-adv-x="557" 
d="M473 655q28 0 28 -28v-599q0 -28 -28 -28h-63q-28 0 -28 28v255h-207v-255q0 -28 -28 -28h-63q-28 0 -28 28v599q0 28 28 28h63q28 0 28 -28v-236h207v236q0 28 28 28h63z" />
    <glyph glyph-name="Theta" unicode="&#x398;" horiz-adv-x="553" 
d="M276 667q118 0 172 -57.5t54 -163.5v-237q0 -104 -54 -162.5t-172 -58.5q-59 0 -101.5 15t-70 43.5t-40.5 69.5t-13 93v237q0 106 53.5 163.5t171.5 57.5zM276 559q-106 0 -106 -104v-254q0 -105 106 -105t106 105v253q0 51 -26 78t-80 27zM314 380q28 0 28 -27v-41
q0 -28 -28 -28h-76q-27 0 -27 28v41q0 27 27 27h76z" />
    <glyph glyph-name="Iota" unicode="&#x399;" horiz-adv-x="231" 
d="M147 655q28 0 28 -28v-599q0 -28 -28 -28h-63q-28 0 -28 28v599q0 28 28 28h63z" />
    <glyph glyph-name="Kappa" unicode="&#x39a;" horiz-adv-x="533" 
d="M472 655q24 0 24 -17q0 -9 -6 -18l-213 -285l233 -300q7 -10 7 -18q0 -17 -24 -17h-80q-21 0 -35 18l-203 271v-261q0 -28 -28 -28h-63q-28 0 -28 28v599q0 28 28 28h63q28 0 28 -28v-267l200 277q12 18 35 18h62z" />
    <glyph glyph-name="Lambda" unicode="&#x39b;" horiz-adv-x="530" 
d="M311 655q25 0 31 -24l176 -599q2 -8 2 -11q0 -21 -26 -21h-69q-25 0 -31 25l-130 530l-131 -530q-6 -25 -31 -25h-66q-25 0 -25 21q0 3 2 11l174 599q7 24 32 24h92z" />
    <glyph glyph-name="Mu" unicode="&#x39c;" horiz-adv-x="680" 
d="M543 0q-29 0 -29 28l-5 428l-98 -359q-6 -25 -32 -25h-79q-25 0 -31 25l-98 359l-5 -428q-2 -28 -29 -28h-57q-28 0 -28 28l6 599q0 28 28 28h102q25 0 31 -24l122 -441l121 441q6 24 31 24h100q29 0 29 -28l6 -599q0 -28 -28 -28h-57z" />
    <glyph glyph-name="Nu" unicode="&#x39d;" horiz-adv-x="559" 
d="M368 0q-23 0 -32 23l-165 440v-435q0 -28 -28 -28h-59q-28 0 -28 28v599q0 28 28 28h111q24 0 33 -23l160 -440v435q0 28 28 28h59q28 0 28 -28v-599q0 -28 -28 -28h-107z" />
    <glyph glyph-name="Xi" unicode="&#x39e;" horiz-adv-x="472" 
d="M409 655q28 0 28 -28v-58q0 -28 -28 -28h-346q-29 0 -29 28v58q0 28 29 28h346zM345 389q28 0 28 -29v-55q0 -29 -28 -29h-219q-28 0 -28 29v55q0 29 28 29h219zM409 114q28 0 28 -28v-58q0 -28 -28 -28h-346q-29 0 -29 28v58q0 28 29 28h346z" />
    <glyph glyph-name="Omicron" unicode="&#x39f;" horiz-adv-x="553" 
d="M276 667q118 0 172 -57.5t54 -163.5v-237q0 -104 -54 -162.5t-172 -58.5q-59 0 -101.5 15t-70 43.5t-40.5 69.5t-13 93v237q0 106 53.5 163.5t171.5 57.5zM276 559q-106 0 -106 -104v-254q0 -105 106 -105t106 105v253q0 51 -26 78t-80 27z" />
    <glyph glyph-name="Pi" unicode="&#x3a0;" horiz-adv-x="557" 
d="M473 655q28 0 28 -28v-599q0 -28 -28 -28h-63q-28 0 -28 28v517h-207v-517q0 -28 -28 -28h-63q-28 0 -28 28v599q0 28 28 28h389z" />
    <glyph glyph-name="Rho" unicode="&#x3a1;" horiz-adv-x="499" 
d="M238 667q62 0 107 -13t74.5 -38t44 -60.5t14.5 -79.5v-22q0 -96 -56 -150t-171 -54q-16 0 -34 1.5t-42 5.5v-229q0 -28 -28 -28h-63q-28 0 -28 28v605q0 28 23 29q34 2 74 3t85 2zM238 563q-23 0 -36 -0.5t-27 -1.5v-199q23 -3 38.5 -4.5t29.5 -1.5q115 0 115 102v15
q0 44 -28 67t-92 23z" />
    <glyph glyph-name="Sigma" unicode="&#x3a3;" horiz-adv-x="456" 
d="M405 655q28 0 28 -28v-53q0 -29 -28 -29h-236l131 -175q11 -17 11 -33v-12q0 -18 -11 -33l-134 -182h239q28 0 28 -29v-53q0 -28 -28 -28h-350q-28 0 -28 28v42q0 23 11 38l158 223l-158 216q-11 15 -11 38v42q0 28 28 28h350z" />
    <glyph glyph-name="Tau" unicode="&#x3a4;" horiz-adv-x="522" 
d="M472 655q29 0 29 -28v-53q0 -29 -29 -29h-151v-517q0 -28 -29 -28h-62q-29 0 -29 28v517h-151q-29 0 -29 29v53q0 28 29 28h422z" />
    <glyph glyph-name="Upsilon" unicode="&#x3a5;" horiz-adv-x="513" 
d="M469 655q25 0 25 -20q0 -6 -3 -13l-175 -396v-198q0 -28 -28 -28h-63q-28 0 -28 28v198l-175 396q-3 7 -3 14q0 19 25 19h74q23 0 32 -23l107 -290l108 291q9 22 33 22h71z" />
    <glyph glyph-name="Phi" unicode="&#x3a6;" horiz-adv-x="720" 
d="M392 695q28 0 28 -28v-50q10 2 19.5 2h18.5q118 0 169.5 -50t51.5 -159v-137q0 -107 -51 -158t-169 -51q-8 0 -18 0.5t-21 1.5v-50q0 -28 -28 -28h-63q-28 0 -28 28v50q-11 -1 -21 -1.5t-19 -0.5q-114 0 -167 48t-53 161v137q0 52 11.5 91t37.5 65.5t68 39.5t104 13
q9 0 19 -0.5t20 -1.5v50q0 28 28 28h63zM262 515q-56 0 -78.5 -22t-22.5 -73v-157q0 -52 23.5 -74t77.5 -22h19.5t19.5 2v343q-20 3 -39 3zM458 515h-19.5t-18.5 -2v-344q9 -2 18.5 -2h19.5q55 0 78 22.5t23 73.5v157q0 52 -23.5 73.5t-77.5 21.5z" />
    <glyph glyph-name="Chi" unicode="&#x3a7;" horiz-adv-x="531" 
d="M479 655q25 0 25 -18q0 -6 -5 -16l-161 -286l171 -301q5 -10 5 -16q0 -18 -25 -18h-80q-23 0 -33 21l-112 218l-113 -218q-10 -21 -34 -21h-75q-24 0 -24 18q0 8 5 16l172 302l-162 285q-5 10 -5 15q0 19 25 19h78q23 0 34 -21l104 -202l104 202q10 21 33 21h73z" />
    <glyph glyph-name="Psi" unicode="&#x3a8;" horiz-adv-x="695" 
d="M617 655q28 0 28 -28v-279q0 -94 -46 -142t-136 -48h-55v-130q0 -28 -28 -28h-63q-28 0 -28 28v130h-56q-91 0 -137 48t-46 142v279q0 28 28 28h63q29 0 29 -28v-289q0 -37 17 -55t46 -18h56v362q0 28 28 28h63q28 0 28 -28v-362h55q29 0 46 18t17 55v289q0 28 28 28h63z
" />
    <glyph glyph-name="Omega" unicode="&#x3a9;" horiz-adv-x="554" 
d="M277 667q115 0 170.5 -57t55.5 -161v-188q0 -49 -14.5 -86.5t-48.5 -64.5h44q28 0 28 -29v-53q0 -28 -28 -28h-149q-29 0 -29 30v64q0 11 9 11h1q31 1 49 29t18 77v247q0 51 -27.5 77t-78.5 26t-79 -26t-28 -77v-247q0 -49 19.5 -77.5t48.5 -28.5h1q9 0 9 -11v-64
q0 -30 -29 -30h-149q-29 0 -29 28v53q0 29 29 29h43q-34 27 -48 65t-14 86v188q0 104 55.5 161t170.5 57z" />
    <glyph glyph-name="Iotadieresis" unicode="&#x3aa;" horiz-adv-x="231" 
d="M147 655q28 0 28 -28v-599q0 -28 -28 -28h-63q-28 0 -28 28v599q0 28 28 28h63zM21 847q32 0 49 -14.5t17 -42.5v-26q0 -26 -17 -41t-49 -15q-31 0 -48.5 15t-17.5 41v26q0 28 17.5 42.5t48.5 14.5zM211 847q67 0 67 -57v-26q0 -26 -17.5 -41t-49.5 -15q-30 0 -48 15
t-18 41v26q0 28 18 42.5t48 14.5z" />
    <glyph glyph-name="Upsilondieresis" unicode="&#x3ab;" horiz-adv-x="513" 
d="M469 655q25 0 25 -20q0 -6 -3 -13l-175 -396v-198q0 -28 -28 -28h-63q-28 0 -28 28v198l-175 396q-3 7 -3 14q0 19 25 19h74q23 0 32 -23l107 -290l108 291q9 22 33 22h71zM161 847q32 0 49 -14.5t17 -42.5v-26q0 -26 -17 -41t-49 -15q-31 0 -48.5 15t-17.5 41v26
q0 28 17.5 42.5t48.5 14.5zM351 847q67 0 67 -57v-26q0 -26 -17.5 -41t-49.5 -15q-30 0 -48 15t-18 41v26q0 28 18 42.5t48 14.5z" />
    <glyph glyph-name="alphatonos" unicode="&#x3ac;" horiz-adv-x="454" 
d="M269 511q23 0 30 -22l143 -459q1 -4 1 -10q0 -20 -23 -20h-64q-23 0 -29 23l-21 78h-162l-21 -78q-6 -23 -29 -23h-60q-23 0 -23 20q0 6 1 10l143 459q7 22 30 22h84zM164 191h121l-60 232z" />
    <glyph glyph-name="epsilontonos" unicode="&#x3ad;" horiz-adv-x="412" 
d="M339 511q27 0 27 -26v-47q0 -26 -27 -26h-173v-105h156q27 0 27 -26v-45q0 -26 -27 -26h-156v-111h173q27 0 27 -26v-47q0 -26 -27 -26h-257q-26 0 -26 26v459q0 26 26 26h257z" />
    <glyph glyph-name="etatonos" unicode="&#x3ae;" horiz-adv-x="486" 
d="M404 511q27 0 27 -26v-459q0 -26 -27 -26h-58q-26 0 -26 26v187h-154v-187q0 -26 -26 -26h-58q-26 0 -26 26v459q0 26 26 26h58q26 0 26 -26v-174h154v174q0 26 26 26h58z" />
    <glyph glyph-name="iotatonos" unicode="&#x3af;" horiz-adv-x="222" 
d="M140 511q26 0 26 -26v-459q0 -26 -26 -26h-58q-26 0 -26 26v459q0 26 26 26h58z" />
    <glyph glyph-name="upsilondieresistonos" unicode="&#x3b0;" horiz-adv-x="441" 
d="M400 511q23 0 23 -17q0 -4 -4 -14l-143 -304v-150q0 -26 -26 -26h-58q-27 0 -27 26v150l-143 304q-2 4 -3 7t-1 6q0 18 24 18h67q22 0 30 -21l83 -215l82 215q7 21 30 21h66zM304 892q21 0 21 -16q0 -5 -3 -11l-49 -106q-5 -9 -10.5 -13t-16.5 -4h-50q-22 0 -22 18
q0 5 1 8l27 104q4 20 25 20h77zM119 711q27 0 46 -16t19 -42v-22q0 -26 -19 -42t-46 -16q-26 0 -44.5 16t-18.5 42v22q0 26 18.5 42t44.5 16zM319 711q27 0 46 -16t19 -42v-22q0 -26 -19 -42t-46 -16q-26 0 -44.5 16t-18.5 42v22q0 26 18.5 42t44.5 16z" />
    <glyph glyph-name="alpha" unicode="&#x3b1;" horiz-adv-x="454" 
d="M269 511q23 0 30 -22l143 -459q1 -4 1 -10q0 -20 -23 -20h-64q-23 0 -29 23l-21 78h-162l-21 -78q-6 -23 -29 -23h-60q-23 0 -23 20q0 6 1 10l143 459q7 22 30 22h84zM164 191h121l-60 232z" />
    <glyph glyph-name="beta" unicode="&#x3b2;" horiz-adv-x="451" 
d="M217 522q93 0 138 -36t45 -90v-16q0 -38 -19.5 -68t-62.5 -44q48 -10 75.5 -41t27.5 -78v-13q0 -69 -48.5 -108.5t-155.5 -39.5q-30 0 -63.5 0.5t-71.5 2.5q-26 2 -26 27v472q0 28 26 29q28 2 67 2.5t68 0.5zM211 429h-18t-27 -2v-124h56q35 0 51.5 16t16.5 43v12
q0 27 -18.5 41t-60.5 14zM166 215v-130q20 -2 31 -2.5t25 -0.5q48 0 68.5 16.5t20.5 45.5v13q0 28 -19 43t-64 15h-62z" />
    <glyph glyph-name="gamma" unicode="&#x3b3;" horiz-adv-x="379" 
d="M331 511q27 0 27 -26v-47q0 -26 -27 -26h-165v-386q0 -26 -26 -26h-58q-26 0 -26 26v459q0 26 26 26h249z" />
    <glyph glyph-name="delta" unicode="&#x3b4;" horiz-adv-x="445" 
d="M263 511q23 0 30 -22l132 -409q5 -14 5 -32v-22q0 -26 -26 -26h-363q-26 0 -26 26v20q0 19 5 33l131 410q7 22 30 22h82zM132 96h178l-88 328z" />
    <glyph glyph-name="epsilon" unicode="&#x3b5;" horiz-adv-x="412" 
d="M339 511q27 0 27 -26v-47q0 -26 -27 -26h-173v-105h156q27 0 27 -26v-45q0 -26 -27 -26h-156v-111h173q27 0 27 -26v-47q0 -26 -27 -26h-257q-26 0 -26 26v459q0 26 26 26h257z" />
    <glyph glyph-name="zeta" unicode="&#x3b6;" horiz-adv-x="412" 
d="M351 511q26 0 26 -26v-39q0 -10 -2 -17.5t-7 -15.5l-205 -314h188q26 0 26 -26v-47q0 -26 -26 -26h-296q-27 0 -27 26v39q0 18 10 32l206 315h-183q-27 0 -27 26v47q0 26 27 26h290z" />
    <glyph glyph-name="eta" unicode="&#x3b7;" horiz-adv-x="486" 
d="M404 511q27 0 27 -26v-459q0 -26 -27 -26h-58q-26 0 -26 26v187h-154v-187q0 -26 -26 -26h-58q-26 0 -26 26v459q0 26 26 26h58q26 0 26 -26v-174h154v174q0 26 26 26h58z" />
    <glyph glyph-name="theta" unicode="&#x3b8;" horiz-adv-x="480" 
d="M240 523q96 0 143 -46t47 -134v-175q0 -86 -46 -133t-144 -47t-143.5 47t-45.5 133v175q0 88 47 134t142 46zM240 426q-39 0 -59 -19.5t-20 -54.5v-188q0 -38 19.5 -58.5t59.5 -20.5t59.5 20t19.5 55v187q0 79 -79 79zM265 294q23 0 23 -25v-19q0 -25 -23 -25h-49
q-24 0 -24 25v19q0 25 24 25h49z" />
    <glyph glyph-name="iota" unicode="&#x3b9;" horiz-adv-x="222" 
d="M140 511q26 0 26 -26v-459q0 -26 -26 -26h-58q-26 0 -26 26v459q0 26 26 26h58z" />
    <glyph glyph-name="kappa" unicode="&#x3ba;" horiz-adv-x="461" 
d="M409 511q23 0 23 -15q0 -7 -7 -17l-159 -215l175 -232q7 -8 7 -16q0 -16 -22 -16h-73q-19 0 -32 17l-155 207v-198q0 -26 -26 -26h-58q-26 0 -26 26v459q0 26 26 26h58q26 0 26 -26v-199l154 208q11 17 31 17h58z" />
    <glyph glyph-name="lambda" unicode="&#x3bb;" horiz-adv-x="453" 
d="M268 511q23 0 30 -22l143 -459q1 -4 1 -10q0 -20 -23 -20h-64q-23 0 -29 23l-101 398l-101 -398q-6 -23 -30 -23h-60q-23 0 -23 20q0 6 1 10l142 459q6 22 29 22h85z" />
    <glyph glyph-name="mu" unicode="&#x3bc;" horiz-adv-x="590" 
d="M506 511q27 0 27 -26l5 -459q0 -26 -27 -26h-54q-27 0 -27 26l-4 306l-73 -251q-6 -23 -29 -23h-60q-23 0 -29 23l-73 251l-4 -306q0 -26 -26 -26h-54q-26 0 -26 26l4 459q0 26 27 26h86q24 0 30 -22l96 -330l96 330q7 22 30 22h85z" />
    <glyph glyph-name="nu" unicode="&#x3bd;" horiz-adv-x="488" 
d="M406 511q26 0 26 -26v-459q0 -26 -26 -26h-83q-23 0 -30 21l-131 315v-310q0 -26 -26 -26h-54q-26 0 -26 26v459q0 26 26 26h88q22 0 30 -21l126 -309v304q0 26 26 26h54z" />
    <glyph glyph-name="xi" unicode="&#x3be;" horiz-adv-x="409" 
d="M348 511q27 0 27 -26v-51q0 -27 -27 -27h-287q-27 0 -27 27v51q0 26 27 26h287zM296 311q27 0 27 -26v-51q0 -27 -27 -27h-183q-27 0 -27 27v51q0 26 27 26h183zM348 104q27 0 27 -27v-51q0 -26 -27 -26h-287q-27 0 -27 26v51q0 27 27 27h287z" />
    <glyph glyph-name="omicron" unicode="&#x3bf;" horiz-adv-x="480" 
d="M240 523q96 0 143 -46t47 -134v-175q0 -86 -46 -133t-144 -47t-143.5 47t-45.5 133v175q0 88 47 134t142 46zM240 426q-39 0 -59 -19.5t-20 -54.5v-188q0 -38 19.5 -58.5t59.5 -20.5t59.5 20t19.5 55v187q0 79 -79 79z" />
    <glyph glyph-name="pi" unicode="&#x3c0;" horiz-adv-x="486" 
d="M404 511q27 0 27 -26v-459q0 -26 -27 -26h-58q-26 0 -26 26v386h-154v-386q0 -26 -26 -26h-58q-26 0 -26 26v459q0 26 26 26h322z" />
    <glyph glyph-name="rho" unicode="&#x3c1;" horiz-adv-x="433" 
d="M210 522q104 0 152.5 -41t48.5 -113v-20q0 -77 -46.5 -119.5t-134.5 -42.5q-12 0 -29 1.5t-35 4.5v-166q0 -26 -26 -26h-58q-26 0 -26 26v465q0 26 20 27q16 1 34 1.5l36 1t34.5 1t29.5 0.5zM211 429q-15 0 -24.5 -0.5t-20.5 -1.5v-143q16 -2 28.5 -3t21.5 -1q44 0 64 19
t20 54v10q0 31 -21.5 48.5t-67.5 17.5z" />
    <glyph glyph-name="sigma1" unicode="&#x3c2;" horiz-adv-x="393" 
d="M343 511q26 0 26 -26v-47q0 -26 -26 -26h-182l97 -119q6 -8 9 -14.5t3 -16.5v-7q0 -10 -3 -16.5t-9 -14.5l-101 -125h186q26 0 26 -26v-47q0 -26 -26 -26h-290q-26 0 -26 26v38q0 19 11 33l121 161l-121 156q-11 14 -11 34v37q0 26 26 26h290z" />
    <glyph glyph-name="sigma" unicode="&#x3c3;" horiz-adv-x="393" 
d="M343 511q26 0 26 -26v-47q0 -26 -26 -26h-182l97 -119q6 -8 9 -14.5t3 -16.5v-7q0 -10 -3 -16.5t-9 -14.5l-101 -125h186q26 0 26 -26v-47q0 -26 -26 -26h-290q-26 0 -26 26v38q0 19 11 33l121 161l-121 156q-11 14 -11 34v37q0 26 26 26h290z" />
    <glyph glyph-name="tau" unicode="&#x3c4;" horiz-adv-x="444" 
d="M397 511q26 0 26 -26v-47q0 -26 -26 -26h-119v-386q0 -26 -26 -26h-58q-26 0 -26 26v386h-120q-27 0 -27 26v47q0 26 27 26h349z" />
    <glyph glyph-name="upsilon" unicode="&#x3c5;" horiz-adv-x="441" 
d="M400 511q23 0 23 -17q0 -4 -4 -14l-143 -304v-150q0 -26 -26 -26h-58q-27 0 -27 26v150l-143 304q-2 4 -3 7t-1 6q0 18 24 18h67q22 0 30 -21l83 -215l82 215q7 21 30 21h66z" />
    <glyph glyph-name="phi" unicode="&#x3c6;" horiz-adv-x="618" 
d="M338 540q26 0 26 -27v-31q7 1 13.5 1.5t13.5 0.5q101 0 143.5 -41t42.5 -125v-107q0 -87 -43.5 -126t-142.5 -39h-27v-32q0 -26 -26 -26h-58q-26 0 -26 26v31q-7 0 -13.5 -0.5t-13.5 -0.5q-99 0 -142.5 40t-43.5 127v107q0 84 42.5 125t143.5 41q7 0 13.5 -0.5t13.5 -0.5
v30q0 27 26 27h58zM229 388q-43 0 -60 -14t-17 -49v-122q0 -35 17.5 -50t62.5 -15h12t12 1v248q-7 1 -13.5 1h-13.5zM389 388h-13.5t-13.5 -1v-248q6 -1 11.5 -1h12.5q45 0 62.5 15t17.5 50v122q0 35 -17 49t-60 14z" />
    <glyph glyph-name="chi" unicode="&#x3c7;" horiz-adv-x="444" 
d="M397 511q23 0 23 -17q0 -7 -5 -15l-130 -218l137 -229q5 -8 5 -15q0 -17 -23 -17h-67q-22 0 -31 19l-83 158l-84 -158q-10 -19 -31 -19h-68q-23 0 -23 16q0 7 6 16l137 229l-130 218q-5 8 -5 15q0 17 23 17h68q21 0 31 -19l76 -147l77 147q9 19 31 19h66z" />
    <glyph glyph-name="psi" unicode="&#x3c8;" horiz-adv-x="599" 
d="M523 511q26 0 26 -26v-212q0 -151 -154 -151h-40v-96q0 -26 -26 -26h-57q-27 0 -27 26v96h-40q-155 0 -155 151v212q0 26 26 26h57q27 0 27 -26v-220q0 -23 12 -35.5t32 -12.5h41v268q0 26 27 26h57q26 0 26 -26v-268h41q20 0 32 12.5t12 35.5v220q0 26 26 26h57z" />
    <glyph glyph-name="omega" unicode="&#x3c9;" horiz-adv-x="481" 
d="M240 523q97 0 144 -46t47 -128v-129q0 -80 -50 -121h31q26 0 26 -26v-47q0 -26 -26 -26h-121q-26 0 -26 26v58q0 10 9 10h1q19 0 31.5 17.5t12.5 52.5v190q0 35 -20.5 53.5t-58.5 18.5q-37 0 -57.5 -18.5t-20.5 -53.5v-190q0 -35 13 -52.5t32 -17.5h1q9 0 9 -10v-58
q0 -26 -27 -26h-120q-27 0 -27 26v47q0 26 27 26h30q-24 20 -36.5 51t-12.5 70v129q0 82 46 128t143 46z" />
    <glyph glyph-name="iotadieresis" unicode="&#x3ca;" horiz-adv-x="222" 
d="M140 511q26 0 26 -26v-459q0 -26 -26 -26h-58q-26 0 -26 26v459q0 26 26 26h58zM16 710q32 0 49 -14t17 -42v-26q0 -26 -17 -40.5t-49 -14.5q-30 0 -47.5 14.5t-17.5 40.5v26q0 28 17.5 42t47.5 14zM207 710q66 0 66 -56v-26q0 -26 -17 -40.5t-49 -14.5q-30 0 -47.5 14.5
t-17.5 40.5v26q0 28 17.5 42t47.5 14z" />
    <glyph glyph-name="upsilondieresis" unicode="&#x3cb;" horiz-adv-x="441" 
d="M400 511q23 0 23 -17q0 -4 -4 -14l-143 -304v-150q0 -26 -26 -26h-58q-27 0 -27 26v150l-143 304q-2 4 -3 7t-1 6q0 18 24 18h67q22 0 30 -21l83 -215l82 215q7 21 30 21h66zM124 710q32 0 49 -14t17 -42v-26q0 -26 -17 -40.5t-49 -14.5q-30 0 -47.5 14.5t-17.5 40.5v26
q0 28 17.5 42t47.5 14zM315 710q66 0 66 -56v-26q0 -26 -17 -40.5t-49 -14.5q-30 0 -47.5 14.5t-17.5 40.5v26q0 28 17.5 42t47.5 14z" />
    <glyph glyph-name="omicrontonos" unicode="&#x3cc;" horiz-adv-x="480" 
d="M240 523q96 0 143 -46t47 -134v-175q0 -86 -46 -133t-144 -47t-143.5 47t-45.5 133v175q0 88 47 134t142 46zM240 426q-39 0 -59 -19.5t-20 -54.5v-188q0 -38 19.5 -58.5t59.5 -20.5t59.5 20t19.5 55v187q0 79 -79 79z" />
    <glyph glyph-name="upsilontonos" unicode="&#x3cd;" horiz-adv-x="441" 
d="M400 511q23 0 23 -17q0 -4 -4 -14l-143 -304v-150q0 -26 -26 -26h-58q-27 0 -27 26v150l-143 304q-2 4 -3 7t-1 6q0 18 24 18h67q22 0 30 -21l83 -215l82 215q7 21 30 21h66z" />
    <glyph glyph-name="omegatonos" unicode="&#x3ce;" horiz-adv-x="481" 
d="M240 523q97 0 144 -46t47 -128v-129q0 -80 -50 -121h31q26 0 26 -26v-47q0 -26 -26 -26h-121q-26 0 -26 26v58q0 10 9 10h1q19 0 31.5 17.5t12.5 52.5v190q0 35 -20.5 53.5t-58.5 18.5q-37 0 -57.5 -18.5t-20.5 -53.5v-190q0 -35 13 -52.5t32 -17.5h1q9 0 9 -10v-58
q0 -26 -27 -26h-120q-27 0 -27 26v47q0 26 27 26h30q-24 20 -36.5 51t-12.5 70v129q0 82 46 128t143 46z" />
    <glyph glyph-name="afii10023" unicode="&#x401;" horiz-adv-x="467" 
d="M392 655q29 0 29 -28v-53q0 -29 -29 -29h-217v-158h197q29 0 29 -28v-52q0 -29 -29 -29h-197v-168h217q29 0 29 -29v-53q0 -28 -29 -28h-308q-28 0 -28 28v599q0 28 28 28h308zM144 847q32 0 49 -14.5t17 -42.5v-26q0 -26 -17 -41t-49 -15q-31 0 -48.5 15t-17.5 41v26
q0 28 17.5 42.5t48.5 14.5zM334 847q67 0 67 -57v-26q0 -26 -17.5 -41t-49.5 -15q-30 0 -48 15t-18 41v26q0 28 18 42.5t48 14.5z" />
    <glyph glyph-name="afii10051" unicode="&#x402;" horiz-adv-x="680" 
d="M472 655q28 0 28 -28v-53q0 -29 -28 -29h-151v-118q24 4 49 6.5t53 2.5q106 0 163 -53.5t57 -165.5v-51q0 -91 -40 -134.5t-124 -43.5q-11 0 -24.5 1.5t-25.5 3.5q-25 4 -25 30v47q0 28 20 28q2 0 3 -0.5t3 -0.5q11 -2 20 -2.5t21 -0.5q25 0 38.5 14t13.5 49v69
q0 53 -26.5 79t-74.5 26q-32 0 -58 -2t-43 -5v-296q0 -28 -29 -28h-62q-29 0 -29 28v517h-151q-29 0 -29 29v53q0 28 29 28h422z" />
    <glyph glyph-name="afii10052" unicode="&#x403;" horiz-adv-x="438" 
d="M388 655q28 0 28 -28v-53q0 -29 -28 -29h-213v-517q0 -28 -28 -28h-63q-28 0 -28 28v599q0 28 28 28h304zM328 844q20 0 20 -14q0 -8 -5 -14l-70 -94q-11 -14 -28 -14h-46q-20 0 -20 15q0 5 3 13l51 92q9 16 28 16h67z" />
    <glyph glyph-name="afii10053" unicode="&#x404;" horiz-adv-x="464" 
d="M269 667q30 0 61 -3.5t66 -11.5q25 -6 25 -31v-50q0 -27 -23 -27q-5 0 -8 1q-25 5 -52.5 9.5t-55.5 4.5q-63 0 -87.5 -23.5t-24.5 -84.5v-64h184q29 0 29 -29v-52q0 -28 -29 -28h-184v-73q0 -60 25 -83.5t86 -23.5q29 0 56.5 4.5t51.5 9.5q3 1 8 1q21 0 23 -26l1 -53
q1 -25 -26 -31q-31 -6 -63 -10.5t-64 -4.5q-60 0 -101.5 13t-67 39.5t-37 65.5t-11.5 91v261q0 106 49.5 157.5t168.5 51.5z" />
    <glyph glyph-name="afii10054" unicode="&#x405;" horiz-adv-x="459" 
d="M237 667q26 0 60 -3.5t69 -10.5q26 -6 25 -31v-52q-2 -26 -24 -26q-5 0 -8 1q-32 6 -63.5 10t-56.5 4q-48 0 -67 -18t-19 -52v-21q0 -27 12 -40.5t51 -26.5l88 -29q35 -12 59.5 -27t40 -36t22.5 -49.5t7 -66.5v-19q0 -90 -51.5 -138t-170.5 -48q-29 0 -65 5t-73 14
q-26 6 -26 31l1 54q0 26 22 26q6 0 9 -1q34 -9 68.5 -14t60.5 -5q59 0 82 18.5t23 53.5v26q0 26 -11.5 41t-40.5 25l-97 32q-37 12 -62 27t-40.5 35.5t-22 48.5t-6.5 67v10q0 90 48 137.5t156 47.5z" />
    <glyph glyph-name="afii10055" unicode="&#x406;" horiz-adv-x="231" 
d="M147 655q28 0 28 -28v-599q0 -28 -28 -28h-63q-28 0 -28 28v599q0 28 28 28h63z" />
    <glyph glyph-name="afii10056" unicode="&#x407;" horiz-adv-x="231" 
d="M147 655q28 0 28 -28v-599q0 -28 -28 -28h-63q-28 0 -28 28v599q0 28 28 28h63zM21 847q32 0 49 -14.5t17 -42.5v-26q0 -26 -17 -41t-49 -15q-31 0 -48.5 15t-17.5 41v26q0 28 17.5 42.5t48.5 14.5zM211 847q67 0 67 -57v-26q0 -26 -17.5 -41t-49.5 -15q-30 0 -48 15
t-18 41v26q0 28 18 42.5t48 14.5z" />
    <glyph glyph-name="afii10057" unicode="&#x408;" horiz-adv-x="303" 
d="M219 655q28 0 28 -28v-461q0 -91 -40 -134.5t-123 -43.5q-11 0 -29.5 1.5t-32.5 4.5q-25 6 -25 31v46q0 28 23 28q2 0 3.5 -0.5t3.5 -0.5q11 -2 22.5 -3t24.5 -1q26 0 39.5 14.5t13.5 51.5v467q0 28 29 28h63z" />
    <glyph glyph-name="afii10058" unicode="&#x409;" horiz-adv-x="833" 
d="M381 560q-20 2 -35.5 2.5t-37.5 0.5q-48 0 -74.5 -26t-27.5 -80l-4 -259q-2 -108 -41 -159t-109 -51q-9 0 -18.5 1t-19.5 4q-22 6 -22 29v46q0 31 20 28q11 -2 15.5 -2h9.5q20 0 32.5 19.5t13.5 70.5l3 265q3 218 219 218q47 0 88 -1.5t80 -5.5q27 -2 27 -30v-234
q25 3 47 5t37 2q108 0 166 -49.5t58 -144.5v-25q0 -89 -57.5 -142.5t-179.5 -53.5q-35 0 -80 2t-83 7q-27 3 -27 31v532zM566 298q-14 0 -32.5 -1.5t-33.5 -3.5v-196q23 -3 38.5 -4t28.5 -1q65 0 93.5 25t28.5 70v21q0 44 -29 67t-94 23z" />
    <glyph glyph-name="afii10059" unicode="&#x40a;" horiz-adv-x="834" 
d="M382 283h-207v-255q0 -28 -28 -28h-63q-28 0 -28 28v599q0 28 28 28h63q28 0 28 -28v-236h207v236q0 28 28 28h63q28 0 28 -28v-231q25 3 47 5t37 2q108 0 166 -49.5t58 -144.5v-25q0 -89 -57.5 -142.5t-179.5 -53.5q-35 0 -80 2t-83 7q-27 3 -27 31v255zM567 298
q-14 0 -32.5 -1.5t-33.5 -3.5v-196q23 -3 38.5 -4t28.5 -1q65 0 93.5 25t28.5 70v21q0 44 -29 67t-94 23z" />
    <glyph glyph-name="afii10060" unicode="&#x40b;" horiz-adv-x="676" 
d="M472 655q29 0 29 -28v-53q0 -29 -29 -29h-151v-113q23 3 46.5 5.5t51.5 2.5q106 0 163 -53.5t57 -165.5v-193q0 -28 -28 -28h-64q-28 0 -28 28v203q0 52 -26.5 78.5t-74.5 26.5q-32 0 -56 -2.5t-41 -5.5v-300q0 -28 -29 -28h-62q-29 0 -29 28v517h-151q-29 0 -29 29v53
q0 28 29 28h422z" />
    <glyph glyph-name="afii10061" unicode="&#x40c;" horiz-adv-x="546" 
d="M481 655q26 0 26 -18q0 -7 -6 -16l-177 -274l203 -313q6 -9 6 -17q0 -17 -24 -17h-80q-21 0 -34 19l-166 264h-54v-255q0 -28 -28 -28h-63q-28 0 -28 28v599q0 28 28 28h63q28 0 28 -28v-244h52l159 253q12 19 34 19h61zM366 844q20 0 20 -14q0 -8 -5 -14l-70 -94
q-11 -14 -28 -14h-46q-20 0 -20 15q0 5 3 13l51 92q9 16 28 16h67z" />
    <glyph glyph-name="afii10062" unicode="&#x40e;" horiz-adv-x="503" 
d="M467 655q25 0 25 -19q0 -7 -3 -14l-266 -600q-9 -22 -32 -22h-64q-25 0 -25 20q0 5 3 13l88 198l-172 391q-3 7 -3 14q0 19 24 19h76q25 0 32 -22l105 -283l111 283q9 22 33 22h68zM372 837q8 5 15 5q13 0 13 -19v-46q0 -20 -14 -28q-9 -6 -22 -14t-30 -14.5t-37 -11.5
t-42 -5q-23 0 -43.5 5t-37.5 11.5t-30 14t-21 13.5q-14 10 -14 28v47q0 19 13 19q6 0 15 -6q20 -13 51 -27t67 -14q35 0 66 14t51 28z" />
    <glyph glyph-name="afii10145" unicode="&#x40f;" horiz-adv-x="557" 
d="M473 655q28 0 28 -28v-599q0 -28 -28 -28h-138v-102q0 -28 -28 -28h-57q-28 0 -28 28v102h-138q-28 0 -28 28v599q0 28 28 28h63q28 0 28 -28v-518h207v518q0 28 28 28h63z" />
    <glyph glyph-name="afii10017" unicode="&#x410;" horiz-adv-x="536" 
d="M314 655q24 0 32 -24l178 -599q2 -8 2 -11q0 -21 -26 -21h-70q-25 0 -31 24l-29 113h-209l-29 -113q-6 -24 -31 -24h-65q-25 0 -25 20q0 4 2 12l177 599q6 24 32 24h92zM185 239h161l-80 316z" />
    <glyph glyph-name="afii10018" unicode="&#x411;" horiz-adv-x="508" 
d="M388 655q28 0 28 -28v-53q0 -29 -29 -29h-212v-149q26 3 47.5 5t36.5 2q109 0 166.5 -49.5t57.5 -144.5v-25q0 -89 -57.5 -142.5t-178.5 -53.5q-36 0 -81 2t-83 7q-27 3 -27 31v599q0 28 28 28h304zM241 298q-14 0 -32.5 -1.5t-33.5 -3.5v-196q23 -3 38.5 -4t29.5 -1
q64 0 92.5 25t28.5 70v21q0 44 -29 67t-94 23z" />
    <glyph glyph-name="afii10019" unicode="&#x412;" horiz-adv-x="513" 
d="M240 667q56 0 98 -12.5t70 -34t42 -51.5t14 -65v-18q0 -49 -24 -86.5t-75 -57.5q58 -11 91.5 -50.5t33.5 -98.5v-20q0 -41 -14 -74.5t-43.5 -58.5t-76 -38.5t-110.5 -13.5h-36.5t-36.5 0.5t-40.5 1.5t-48.5 2q-28 2 -28 29v613q0 28 29 29q35 2 76.5 3t78.5 1zM232 563
h-27t-30 -2v-179h73q48 0 72.5 23t24.5 64v16q0 38 -26 58t-87 20zM175 282v-185q14 -1 23.5 -2t17.5 -1.5t15 -0.5h17q66 0 94 24t28 65v18q0 39 -27 60.5t-89 21.5h-79z" />
    <glyph glyph-name="afii10020" unicode="&#x413;" horiz-adv-x="438" 
d="M388 655q28 0 28 -28v-53q0 -29 -28 -29h-213v-517q0 -28 -28 -28h-63q-28 0 -28 28v599q0 28 28 28h304z" />
    <glyph glyph-name="afii10021" unicode="&#x414;" horiz-adv-x="577" 
d="M309 667q46 0 90 -2.5t77 -5.5q31 -3 31 -35v-515h32q29 0 29 -28v-183q0 -28 -29 -28h-56q-28 0 -28 28v102h-333v-102q0 -28 -28 -28h-56q-29 0 -29 28v183q0 28 29 28h33v336q0 112 55.5 167t182.5 55zM304 564q-60 0 -87 -26t-27 -80v-349h197v450q-25 3 -44 4t-39 1
z" />
    <glyph glyph-name="afii10022" unicode="&#x415;" horiz-adv-x="467" 
d="M392 655q29 0 29 -28v-53q0 -29 -29 -29h-217v-158h197q29 0 29 -28v-52q0 -29 -29 -29h-197v-168h217q29 0 29 -29v-53q0 -28 -29 -28h-308q-28 0 -28 28v599q0 28 28 28h308z" />
    <glyph glyph-name="afii10024" unicode="&#x416;" horiz-adv-x="800" 
d="M742 655q25 0 25 -19q0 -7 -4 -15l-139 -281l148 -306q4 -10 4 -15q0 -19 -25 -19h-75q-23 0 -33 21l-121 262h-62v-255q0 -28 -29 -28h-62q-29 0 -29 28v255h-64l-120 -262q-11 -21 -34 -21h-73q-25 0 -25 19q0 5 4 15l148 305l-139 282q-4 8 -4 15q0 19 25 19h66
q22 0 33 -21l120 -251h63v244q0 28 29 28h62q29 0 29 -28v-244h65l121 251q10 21 33 21h63z" />
    <glyph glyph-name="afii10025" unicode="&#x417;" horiz-adv-x="458" 
d="M187 667q116 0 169 -43.5t53 -124.5v-17q0 -44 -25 -81t-74 -57q54 -15 85 -55.5t31 -96.5v-24q0 -82 -58 -131t-182 -49q-31 0 -64.5 4t-65.5 10q-25 4 -25 31v50q0 26 23 26q5 0 8 -1q29 -6 61 -10t61 -4q68 0 95.5 20.5t27.5 59.5v27q0 42 -27 63t-90 21h-66
q-29 0 -29 28v48q0 28 29 28h66q51 0 75.5 21.5t24.5 59.5v19q0 35 -24.5 54t-81.5 19q-29 0 -61 -4t-61 -9q-3 -1 -8 -1q-21 0 -23 26l-1 49q-1 25 32 31q32 5 66 9t59 4z" />
    <glyph glyph-name="afii10026" unicode="&#x418;" horiz-adv-x="557" 
d="M473 655q28 0 28 -28v-599q0 -28 -28 -28h-63q-28 0 -28 28v403l-204 -410q-11 -21 -33 -21h-61q-28 0 -28 28v599q0 28 28 28h63q28 0 28 -28v-404l204 411q10 21 33 21h61z" />
    <glyph glyph-name="afii10027" unicode="&#x419;" horiz-adv-x="557" 
d="M473 655q28 0 28 -28v-599q0 -28 -28 -28h-63q-28 0 -28 28v403l-204 -410q-11 -21 -33 -21h-61q-28 0 -28 28v599q0 28 28 28h63q28 0 28 -28v-404l204 411q10 21 33 21h61zM396 837q8 5 15 5q13 0 13 -19v-46q0 -20 -14 -28q-9 -6 -22 -14t-30 -14.5t-37 -11.5t-42 -5
q-23 0 -43.5 5t-37.5 11.5t-30 14t-21 13.5q-14 10 -14 28v47q0 19 13 19q6 0 15 -6q20 -13 51 -27t67 -14q35 0 66 14t51 28z" />
    <glyph glyph-name="afii10028" unicode="&#x41a;" horiz-adv-x="546" 
d="M481 655q26 0 26 -18q0 -7 -6 -16l-177 -274l203 -313q6 -9 6 -17q0 -17 -24 -17h-80q-21 0 -34 19l-166 264h-54v-255q0 -28 -28 -28h-63q-28 0 -28 28v599q0 28 28 28h63q28 0 28 -28v-244h52l159 253q12 19 34 19h61z" />
    <glyph glyph-name="afii10029" unicode="&#x41b;" horiz-adv-x="556" 
d="M305 667q47 0 88 -1.5t80 -5.5q27 -2 27 -31v-601q0 -28 -28 -28h-63q-28 0 -28 28v532q-20 2 -35.5 2.5t-37.5 0.5q-48 0 -74.5 -26t-27.5 -80l-4 -259q-2 -108 -41 -159t-109 -51q-9 0 -18.5 1t-19.5 4q-22 6 -22 29v46q0 31 20 28q11 -2 15.5 -2h9.5q20 0 32.5 19.5
t13.5 70.5l3 265q3 218 219 218z" />
    <glyph glyph-name="afii10030" unicode="&#x41c;" horiz-adv-x="680" 
d="M543 0q-29 0 -29 28l-5 428l-98 -359q-6 -25 -32 -25h-79q-25 0 -31 25l-98 359l-5 -428q-2 -28 -29 -28h-57q-28 0 -28 28l6 599q0 28 28 28h102q25 0 31 -24l122 -441l121 441q6 24 31 24h100q29 0 29 -28l6 -599q0 -28 -28 -28h-57z" />
    <glyph glyph-name="afii10031" unicode="&#x41d;" horiz-adv-x="557" 
d="M473 655q28 0 28 -28v-599q0 -28 -28 -28h-63q-28 0 -28 28v255h-207v-255q0 -28 -28 -28h-63q-28 0 -28 28v599q0 28 28 28h63q28 0 28 -28v-236h207v236q0 28 28 28h63z" />
    <glyph glyph-name="afii10032" unicode="&#x41e;" horiz-adv-x="553" 
d="M276 667q118 0 172 -57.5t54 -163.5v-237q0 -104 -54 -162.5t-172 -58.5q-59 0 -101.5 15t-70 43.5t-40.5 69.5t-13 93v237q0 106 53.5 163.5t171.5 57.5zM276 559q-106 0 -106 -104v-254q0 -105 106 -105t106 105v253q0 51 -26 78t-80 27z" />
    <glyph glyph-name="afii10033" unicode="&#x41f;" horiz-adv-x="557" 
d="M473 655q28 0 28 -28v-599q0 -28 -28 -28h-63q-28 0 -28 28v517h-207v-517q0 -28 -28 -28h-63q-28 0 -28 28v599q0 28 28 28h389z" />
    <glyph glyph-name="afii10034" unicode="&#x420;" horiz-adv-x="499" 
d="M238 667q62 0 107 -13t74.5 -38t44 -60.5t14.5 -79.5v-22q0 -96 -56 -150t-171 -54q-16 0 -34 1.5t-42 5.5v-229q0 -28 -28 -28h-63q-28 0 -28 28v605q0 28 23 29q34 2 74 3t85 2zM238 563q-23 0 -36 -0.5t-27 -1.5v-199q23 -3 38.5 -4.5t29.5 -1.5q115 0 115 102v15
q0 44 -28 67t-92 23z" />
    <glyph glyph-name="afii10035" unicode="&#x421;" horiz-adv-x="464" 
d="M272 667q30 0 61 -3.5t66 -11.5q25 -6 25 -31v-50q0 -27 -23 -27q-5 0 -8 1q-25 5 -52.5 9.5t-55.5 4.5q-33 0 -55 -5.5t-35.5 -18t-19 -33.5t-5.5 -51v-246q0 -60 25.5 -83.5t89.5 -23.5q28 0 55 4.5t53 9.5q3 1 8 1q21 0 23 -26l1 -53q0 -25 -26 -31q-32 -6 -64 -10.5
t-63 -4.5q-62 0 -104 13t-68 39.5t-37.5 65.5t-11.5 91v261q0 53 11.5 92t38 65t68.5 39t103 13z" />
    <glyph glyph-name="afii10036" unicode="&#x422;" horiz-adv-x="522" 
d="M472 655q29 0 29 -28v-53q0 -29 -29 -29h-151v-517q0 -28 -29 -28h-62q-29 0 -29 28v517h-151q-29 0 -29 29v53q0 28 29 28h422z" />
    <glyph glyph-name="afii10037" unicode="&#x423;" horiz-adv-x="503" 
d="M467 655q25 0 25 -19q0 -7 -3 -14l-266 -600q-9 -22 -32 -22h-64q-25 0 -25 20q0 5 3 13l88 198l-172 391q-3 7 -3 14q0 19 24 19h76q25 0 32 -22l105 -283l111 283q9 22 33 22h68z" />
    <glyph glyph-name="afii10038" unicode="&#x424;" horiz-adv-x="740" 
d="M402 695q28 0 28 -28v-26q8 1 17 1.5t17 0.5q60 0 102.5 -13t69.5 -41.5t40 -73.5t13 -108v-159q0 -63 -12.5 -108t-39.5 -73.5t-70 -42t-103 -13.5q-8 0 -17 0.5t-17 1.5v-25q0 -29 -28 -29h-63q-28 0 -28 29v25q-9 -1 -18 -1.5t-17 -0.5q-60 0 -103 13.5t-70 42
t-39.5 73.5t-12.5 108v159q0 63 13 108t40 73.5t69.5 41.5t102.5 13q8 0 17 -0.5t18 -1.5v26q0 28 28 28h63zM276 539q-56 0 -80.5 -26t-24.5 -96v-180q0 -69 24.5 -95.5t80.5 -26.5h17t18 1v421q-9 1 -18 1.5t-17 0.5zM464 539q-8 0 -17 -0.5t-17 -1.5v-421q8 -1 17 -1h17
q57 0 81.5 26.5t24.5 95.5v180q0 70 -25 96t-81 26z" />
    <glyph glyph-name="afii10039" unicode="&#x425;" horiz-adv-x="531" 
d="M479 655q25 0 25 -18q0 -6 -5 -16l-161 -286l171 -301q5 -10 5 -16q0 -18 -25 -18h-80q-23 0 -33 21l-112 218l-113 -218q-10 -21 -34 -21h-75q-24 0 -24 18q0 8 5 16l172 302l-162 285q-5 10 -5 15q0 19 25 19h78q23 0 34 -21l104 -202l104 202q10 21 33 21h73z" />
    <glyph glyph-name="afii10040" unicode="&#x426;" horiz-adv-x="563" 
d="M465 655q28 0 28 -28v-518h33q28 0 28 -28v-183q0 -28 -28 -28h-57q-28 0 -28 28v102h-357q-28 0 -28 28v599q0 28 28 28h63q28 0 28 -28v-518h199v518q0 28 28 28h63z" />
    <glyph glyph-name="afii10041" unicode="&#x427;" horiz-adv-x="536" 
d="M452 655q29 0 29 -28v-599q0 -28 -29 -28h-63q-28 0 -28 28v195q-26 -4 -51.5 -6t-48.5 -2q-216 0 -216 212v200q0 28 28 28h63q29 0 29 -28v-203q0 -105 102 -105q27 0 50.5 1.5t43.5 5.5v301q0 28 28 28h63z" />
    <glyph glyph-name="afii10042" unicode="&#x428;" horiz-adv-x="732" 
d="M647 655q29 0 29 -28v-599q0 -28 -29 -28h-563q-28 0 -28 28v599q0 28 28 28h63q28 0 28 -28v-518h131v518q0 28 28 28h63q29 0 29 -28v-518h131v518q0 28 28 28h62z" />
    <glyph glyph-name="afii10043" unicode="&#x429;" horiz-adv-x="746" 
d="M647 655q29 0 29 -28v-518h32q29 0 29 -28v-183q0 -28 -29 -28h-56q-28 0 -28 28v102h-540q-28 0 -28 28v599q0 28 28 28h63q28 0 28 -28v-518h131v518q0 28 28 28h63q29 0 29 -28v-518h131v518q0 28 28 28h62z" />
    <glyph glyph-name="afii10044" unicode="&#x42a;" horiz-adv-x="648" 
d="M287 655q28 0 28 -28v-231q25 3 47 5t37 2q109 0 166.5 -49.5t57.5 -144.5v-25q0 -89 -57.5 -142.5t-178.5 -53.5q-36 0 -81 2t-83 7q-27 3 -27 31v515h-152q-28 0 -28 29v55q0 28 28 28h243zM381 298q-14 0 -32.5 -1.5t-33.5 -3.5v-196q23 -3 38.5 -4t29.5 -1
q64 0 92.5 25t28.5 70v21q0 44 -29 67t-94 23z" />
    <glyph glyph-name="afii10045" unicode="&#x42b;" horiz-adv-x="712" 
d="M147 655q28 0 28 -28v-231q26 3 47.5 5t36.5 2q109 0 166.5 -49.5t57.5 -144.5v-25q0 -89 -57.5 -142.5t-178.5 -53.5q-36 0 -81 2t-83 7q-27 3 -27 31v599q0 28 28 28h63zM628 655q29 0 29 -28v-599q0 -28 -29 -28h-63q-28 0 -28 28v599q0 28 28 28h63zM241 298
q-14 0 -32.5 -1.5t-33.5 -3.5v-196q23 -3 38.5 -4t29.5 -1q64 0 92.5 25t28.5 70v21q0 44 -29 67t-94 23z" />
    <glyph glyph-name="afii10046" unicode="&#x42c;" horiz-adv-x="508" 
d="M147 655q28 0 28 -28v-231q26 3 47.5 5t36.5 2q109 0 166.5 -49.5t57.5 -144.5v-25q0 -89 -57.5 -142.5t-178.5 -53.5q-36 0 -81 2t-83 7q-27 3 -27 31v599q0 28 28 28h63zM241 298q-14 0 -32.5 -1.5t-33.5 -3.5v-196q23 -3 38.5 -4t29.5 -1q64 0 92.5 25t28.5 70v21
q0 44 -29 67t-94 23z" />
    <glyph glyph-name="afii10047" unicode="&#x42d;" horiz-adv-x="469" 
d="M199 667q117 0 168.5 -50t51.5 -159v-261q0 -53 -11.5 -92t-38 -65t-68.5 -39t-102 -13q-29 0 -62.5 4t-65.5 11q-26 5 -25 30l1 49q2 27 22 27q6 0 9 -1q25 -7 53.5 -10.5t54.5 -3.5q32 0 54 6t35 19t18.5 33.5t5.5 49.5v76h-197q-29 0 -29 28v52q0 14 9 21.5t20 7.5
h197v67q0 59 -24.5 83t-88.5 24q-26 0 -54.5 -3.5t-54.5 -8.5q-3 -1 -8 -1q-21 0 -23 26l-1 44q-1 30 34 36q33 6 62.5 9.5t57.5 3.5z" />
    <glyph glyph-name="afii10048" unicode="&#x42e;" horiz-adv-x="748" 
d="M486 667q105 0 158 -55t53 -163v-242q0 -107 -52.5 -163t-158.5 -56t-158.5 56t-52.5 163v74h-100v-253q0 -28 -28 -28h-63q-28 0 -28 28v599q0 28 28 28h63q28 0 28 -28v-237h100v59q0 107 53 162.5t158 55.5zM486 563q-43 0 -67 -25.5t-24 -76.5v-266q0 -52 24.5 -77.5
t66.5 -25.5q43 0 67.5 25.5t24.5 77.5v265q0 52 -24.5 77.5t-67.5 25.5z" />
    <glyph glyph-name="afii10049" unicode="&#x42f;" horiz-adv-x="521" 
d="M268 667h42t40 -1t41 -2t46 -3q28 -2 28 -31v-602q0 -28 -28 -28h-63q-29 0 -29 28v236q-22 -2 -40 -2.5t-47 -0.5l-109 -239q-10 -22 -33 -22h-71q-24 0 -24 19q0 7 4 15l120 247q-55 23 -81.5 67.5t-26.5 108.5v15q0 46 13 82t41 61t72 38.5t105 13.5zM268 563
q-57 0 -84 -22.5t-27 -64.5v-21q0 -43 27 -66.5t84 -23.5q23 0 38.5 0.5t38.5 2.5v192q-24 2 -39 2.5t-38 0.5z" />
    <glyph glyph-name="afii10065" unicode="&#x430;" horiz-adv-x="454" 
d="M269 511q23 0 30 -22l143 -459q1 -4 1 -10q0 -20 -23 -20h-64q-23 0 -29 23l-21 78h-162l-21 -78q-6 -23 -29 -23h-60q-23 0 -23 20q0 6 1 10l143 459q7 22 30 22h84zM164 191h121l-60 232z" />
    <glyph glyph-name="afii10066" unicode="&#x431;" horiz-adv-x="441" 
d="M331 511q27 0 27 -26v-47q0 -26 -27 -26h-165v-94q19 2 34.5 3.5t26.5 1.5q96 0 142.5 -40.5t46.5 -115.5v-23q0 -69 -48 -112.5t-151 -43.5q-29 0 -62 0.5t-74 4.5q-25 3 -25 28v464q0 26 26 26h249zM214 229q-24 0 -48 -3v-141q17 -2 27.5 -2.5t20.5 -0.5q50 0 70.5 17
t20.5 47v16q0 32 -21.5 49.5t-69.5 17.5z" />
    <glyph glyph-name="afii10067" unicode="&#x432;" horiz-adv-x="451" 
d="M217 522q93 0 138 -36t45 -90v-16q0 -38 -19.5 -68t-62.5 -44q48 -10 75.5 -41t27.5 -78v-13q0 -69 -48.5 -108.5t-155.5 -39.5q-30 0 -63.5 0.5t-71.5 2.5q-26 2 -26 27v472q0 28 26 29q28 2 67 2.5t68 0.5zM211 429h-18t-27 -2v-124h56q35 0 51.5 16t16.5 43v12
q0 27 -18.5 41t-60.5 14zM166 215v-130q20 -2 31 -2.5t25 -0.5q48 0 68.5 16.5t20.5 45.5v13q0 28 -19 43t-64 15h-62z" />
    <glyph glyph-name="afii10068" unicode="&#x433;" horiz-adv-x="379" 
d="M331 511q27 0 27 -26v-47q0 -26 -27 -26h-165v-386q0 -26 -26 -26h-58q-26 0 -26 26v459q0 26 26 26h249z" />
    <glyph glyph-name="afii10069" unicode="&#x434;" horiz-adv-x="500" 
d="M267 523q32 0 69.5 -2.5t72.5 -5.5q25 -1 25 -28v-388h24q27 0 27 -26v-177q0 -26 -27 -26h-51q-26 0 -26 26v104h-263v-104q0 -26 -26 -26h-51q-26 0 -26 26v177q0 26 26 26h25v245q0 88 46.5 133.5t154.5 45.5zM263 429q-45 0 -65.5 -18.5t-20.5 -56.5v-255h146v327
q-19 2 -32 2.5t-28 0.5z" />
    <glyph glyph-name="afii10070" unicode="&#x435;" horiz-adv-x="412" 
d="M339 511q27 0 27 -26v-47q0 -26 -27 -26h-173v-105h156q27 0 27 -26v-45q0 -26 -27 -26h-156v-111h173q27 0 27 -26v-47q0 -26 -27 -26h-257q-26 0 -26 26v459q0 26 26 26h257z" />
    <glyph glyph-name="afii10072" unicode="&#x436;" horiz-adv-x="673" 
d="M615 511q24 0 24 -18q0 -3 -1 -6t-3 -7l-108 -211l119 -238q2 -4 3 -7t1 -6q0 -18 -24 -18h-60q-22 0 -32 20l-99 201h-46v-195q0 -26 -26 -26h-53q-26 0 -26 26v195h-47l-99 -201q-9 -20 -31 -20h-60q-23 0 -23 17q0 4 4 14l119 237l-108 212q-4 7 -4 14q0 17 23 17h54
q22 0 31 -20l96 -185h45v179q0 26 26 26h53q26 0 26 -26v-179h45l96 186q9 19 31 19h54z" />
    <glyph glyph-name="afii10073" unicode="&#x437;" horiz-adv-x="405" 
d="M165 523q99 0 144 -35.5t45 -95.5v-14q0 -35 -20.5 -65t-62.5 -45q46 -12 71.5 -45t25.5 -77v-16q0 -32 -11 -58t-35.5 -45t-63.5 -29t-96 -10q-22 0 -47.5 2.5t-59.5 8.5q-24 4 -24 29v42q0 25 21 25q5 0 8 -1q26 -5 53.5 -8.5t48.5 -3.5q54 0 74.5 14.5t20.5 42.5v16
q0 29 -20 44.5t-70 15.5h-55q-26 0 -26 26v42q0 27 26 27h57q38 0 56.5 14.5t18.5 39.5v14q0 24 -19 37.5t-64 13.5q-25 0 -51.5 -3.5t-49.5 -7.5q-2 0 -3 -0.5t-3 -0.5q-21 0 -23 25l-1 42q-1 23 23 28q25 5 55.5 8t56.5 3z" />
    <glyph glyph-name="afii10074" unicode="&#x438;" horiz-adv-x="486" 
d="M404 511q27 0 27 -26v-459q0 -26 -27 -26h-58q-26 0 -26 26v283l-152 -290q-10 -19 -31 -19h-55q-26 0 -26 26v459q0 26 26 26h58q26 0 26 -26v-287l153 294q10 19 31 19h54z" />
    <glyph glyph-name="afii10075" unicode="&#x439;" horiz-adv-x="486" 
d="M404 511q27 0 27 -26v-459q0 -26 -27 -26h-58q-26 0 -26 26v283l-152 -290q-10 -19 -31 -19h-55q-26 0 -26 26v459q0 26 26 26h58q26 0 26 -26v-287l153 294q10 19 31 19h54zM340 680q4 3 8 4t7 1q13 0 13 -19v-43q0 -18 -15 -28q-14 -11 -43 -23.5t-67 -12.5
q-37 0 -66.5 12.5t-44.5 23.5q-14 10 -14 28v43q0 19 13 19q3 0 7 -1t8 -4q18 -11 44 -22.5t53 -11.5t52.5 11.5t44.5 22.5z" />
    <glyph glyph-name="afii10076" unicode="&#x43a;" horiz-adv-x="476" 
d="M419 511q23 0 23 -16q0 -7 -6 -16l-140 -209l161 -238q7 -11 7 -17q0 -15 -23 -15h-70q-21 0 -32 17l-133 199h-40v-190q0 -26 -26 -26h-58q-26 0 -26 26v459q0 26 26 26h58q26 0 26 -26v-181h38l124 190q11 17 32 17h59z" />
    <glyph glyph-name="afii10077" unicode="&#x43b;" horiz-adv-x="475" 
d="M254 523q37 0 71.5 -2t68.5 -4q25 -3 25 -29v-462q0 -26 -26 -26h-59q-26 0 -26 26v400q-14 2 -25.5 2.5t-27.5 0.5q-35 0 -55 -20t-21 -58l-3 -196q-2 -87 -35 -127t-92 -40q-22 0 -34 3q-23 5 -23 29v45q0 13 4.5 17t12.5 3q10 -1 13 -1h8q17 0 26 13.5t10 48.5l3 199
q2 87 47 132.5t138 45.5z" />
    <glyph glyph-name="afii10078" unicode="&#x43c;" horiz-adv-x="590" 
d="M506 511q27 0 27 -26l5 -459q0 -26 -27 -26h-54q-27 0 -27 26l-4 306l-73 -251q-6 -23 -29 -23h-60q-23 0 -29 23l-73 251l-4 -306q0 -26 -26 -26h-54q-26 0 -26 26l4 459q0 26 27 26h86q24 0 30 -22l96 -330l96 330q7 22 30 22h85z" />
    <glyph glyph-name="afii10079" unicode="&#x43d;" horiz-adv-x="486" 
d="M404 511q27 0 27 -26v-459q0 -26 -27 -26h-58q-26 0 -26 26v187h-154v-187q0 -26 -26 -26h-58q-26 0 -26 26v459q0 26 26 26h58q26 0 26 -26v-174h154v174q0 26 26 26h58z" />
    <glyph glyph-name="afii10080" unicode="&#x43e;" horiz-adv-x="480" 
d="M240 523q96 0 143 -46t47 -134v-175q0 -86 -46 -133t-144 -47t-143.5 47t-45.5 133v175q0 88 47 134t142 46zM240 426q-39 0 -59 -19.5t-20 -54.5v-188q0 -38 19.5 -58.5t59.5 -20.5t59.5 20t19.5 55v187q0 79 -79 79z" />
    <glyph glyph-name="afii10081" unicode="&#x43f;" horiz-adv-x="486" 
d="M404 511q27 0 27 -26v-459q0 -26 -27 -26h-58q-26 0 -26 26v386h-154v-386q0 -26 -26 -26h-58q-26 0 -26 26v459q0 26 26 26h322z" />
    <glyph glyph-name="afii10082" unicode="&#x440;" horiz-adv-x="433" 
d="M210 522q104 0 152.5 -41t48.5 -113v-20q0 -77 -46.5 -119.5t-134.5 -42.5q-12 0 -29 1.5t-35 4.5v-166q0 -26 -26 -26h-58q-26 0 -26 26v465q0 26 20 27q16 1 34 1.5l36 1t34.5 1t29.5 0.5zM211 429q-15 0 -24.5 -0.5t-20.5 -1.5v-143q16 -2 28.5 -3t21.5 -1q44 0 64 19
t20 54v10q0 31 -21.5 48.5t-67.5 17.5z" />
    <glyph glyph-name="afii10083" unicode="&#x441;" horiz-adv-x="406" 
d="M235 523q47 0 107 -12q25 -4 25 -29l-1 -44q-2 -24 -22 -24q-6 0 -9 1q-20 5 -43 8t-42 3q-51 0 -70 -18t-19 -64v-177q0 -45 19.5 -62.5t70.5 -17.5q20 0 42.5 3t42.5 7q3 1 8 1q19 0 21 -24l1 -46q1 -23 -24 -29q-27 -5 -54.5 -8t-50.5 -3q-100 0 -143 40.5t-43 128.5
v197q0 87 42 128t142 41z" />
    <glyph glyph-name="afii10084" unicode="&#x442;" horiz-adv-x="444" 
d="M397 511q26 0 26 -26v-47q0 -26 -26 -26h-119v-386q0 -26 -26 -26h-58q-26 0 -26 26v386h-120q-27 0 -27 26v47q0 26 27 26h349z" />
    <glyph glyph-name="afii10085" unicode="&#x443;" horiz-adv-x="429" 
d="M399 511q24 0 24 -18q0 -3 -1 -6t-3 -7l-218 -460q-9 -20 -31 -20h-58q-24 0 -24 18q0 3 1 6t3 7l69 148l-140 301q-2 4 -3 7t-1 6q0 18 24 18h69q22 0 30 -21l78 -205l88 206q9 20 30 20h63z" />
    <glyph glyph-name="afii10086" unicode="&#x444;" horiz-adv-x="636" 
d="M347 544q26 0 26 -27v-14q6 1 11.5 1.5t12.5 0.5q52 0 88 -11t58.5 -35t32.5 -63t10 -94v-99q0 -53 -10 -90.5t-32.5 -61.5t-58.5 -35t-88 -11h-12.5t-11.5 1v-15q0 -26 -26 -26h-58q-26 0 -26 26v15q-6 -1 -12 -1h-11q-53 0 -89 11.5t-58.5 35.5t-32 62.5t-9.5 92.5v95
q0 54 9.5 92.5t31.5 63t58.5 36t89.5 11.5q5 0 11 -0.5t12 -1.5v14q0 27 26 27h58zM243 410q-46 0 -64 -17.5t-18 -62.5v-141q0 -53 18 -71.5t64 -18.5h11t11 1v309q-5 0 -11 0.5t-11 0.5zM393 410q-6 0 -11.5 -0.5t-10.5 -0.5v-310h22q48 0 65 19t17 65v147
q0 45 -17.5 62.5t-64.5 17.5z" />
    <glyph glyph-name="afii10087" unicode="&#x445;" horiz-adv-x="444" 
d="M397 511q23 0 23 -17q0 -7 -5 -15l-130 -218l137 -229q5 -8 5 -15q0 -17 -23 -17h-67q-22 0 -31 19l-83 158l-84 -158q-10 -19 -31 -19h-68q-23 0 -23 16q0 7 6 16l137 229l-130 218q-5 8 -5 15q0 17 23 17h68q21 0 31 -19l76 -147l77 147q9 19 31 19h66z" />
    <glyph glyph-name="afii10088" unicode="&#x446;" horiz-adv-x="490" 
d="M397 511q27 0 27 -26v-386h24q27 0 27 -26v-177q0 -26 -27 -26h-50q-27 0 -27 26v104h-289q-26 0 -26 26v459q0 26 26 26h58q26 0 26 -26v-386h147v386q0 26 26 26h58z" />
    <glyph glyph-name="afii10089" unicode="&#x447;" horiz-adv-x="463" 
d="M381 511q27 0 27 -26v-459q0 -26 -27 -26h-57q-27 0 -27 26v143q-38 -7 -77 -7q-88 0 -133 42.5t-45 130.5v150q0 26 26 26h58q27 0 27 -26v-154q0 -75 73 -75q22 0 39.5 1.5t31.5 3.5v224q0 26 27 26h57z" />
    <glyph glyph-name="afii10090" unicode="&#x448;" horiz-adv-x="631" 
d="M549 511q27 0 27 -26v-459q0 -26 -27 -26h-467q-26 0 -26 26v459q0 26 26 26h57q27 0 27 -26v-386h94v386q0 26 27 26h57q27 0 27 -26v-386h94v386q0 26 27 26h57z" />
    <glyph glyph-name="afii10091" unicode="&#x449;" horiz-adv-x="642" 
d="M549 511q27 0 27 -26v-386h24q26 0 26 -26v-177q0 -26 -26 -26h-51q-26 0 -26 26v104h-441q-26 0 -26 26v459q0 26 26 26h57q27 0 27 -26v-386h94v386q0 26 27 26h57q27 0 27 -26v-386h94v386q0 26 27 26h57z" />
    <glyph glyph-name="afii10092" unicode="&#x44a;" horiz-adv-x="551" 
d="M166 409h-124q-26 0 -26 27v49q0 26 26 26h208q27 0 27 -26v-167q18 2 33.5 3.5t26.5 1.5q96 0 143 -40.5t47 -115.5v-23q0 -69 -48.5 -112.5t-150.5 -43.5q-30 0 -63 0.5t-73 4.5q-26 3 -26 28v388zM324 229q-11 0 -23.5 -0.5t-23.5 -2.5v-141q17 -2 27.5 -2.5
t20.5 -0.5q49 0 70 17t21 47v16q0 32 -22 49.5t-70 17.5z" />
    <glyph glyph-name="afii10093" unicode="&#x44b;" horiz-adv-x="622" 
d="M140 511q26 0 26 -26v-167q19 2 34.5 3.5t26.5 1.5q96 0 142.5 -40.5t46.5 -115.5v-23q0 -69 -48 -112.5t-151 -43.5q-29 0 -62 0.5t-74 4.5q-25 3 -25 28v464q0 26 26 26h58zM540 511q27 0 27 -26v-459q0 -26 -27 -26h-58q-26 0 -26 26v459q0 26 26 26h58zM214 229
q-24 0 -48 -3v-141q17 -2 27.5 -2.5t20.5 -0.5q50 0 70.5 17t20.5 47v16q0 32 -21.5 49.5t-69.5 17.5z" />
    <glyph glyph-name="afii10094" unicode="&#x44c;" horiz-adv-x="441" 
d="M140 511q26 0 26 -26v-167q19 2 34.5 3.5t26.5 1.5q96 0 142.5 -40.5t46.5 -115.5v-23q0 -69 -48 -112.5t-151 -43.5q-29 0 -62 0.5t-74 4.5q-25 3 -25 28v464q0 26 26 26h58zM214 229q-24 0 -48 -3v-141q17 -2 27.5 -2.5t20.5 -0.5q50 0 70.5 17t20.5 47v16
q0 32 -21.5 49.5t-69.5 17.5z" />
    <glyph glyph-name="afii10095" unicode="&#x44d;" horiz-adv-x="412" 
d="M175 523q99 0 142.5 -41t43.5 -129v-195q0 -87 -43 -128.5t-143 -41.5q-24 0 -52 3t-55 8q-25 6 -24 29v43q2 24 22 24q5 0 8 -1q20 -4 43 -7t43 -3q49 0 69.5 18t20.5 63v45h-158q-26 0 -26 26v44q0 27 26 27h158v41q0 45 -20.5 62t-69.5 17q-20 0 -43 -3t-44 -7
q-2 0 -3 -0.5t-3 -0.5q-21 0 -23 25v41q0 24 32 30q28 6 52.5 8.5t46.5 2.5z" />
    <glyph glyph-name="afii10096" unicode="&#x44e;" horiz-adv-x="644" 
d="M415 523q88 0 133 -45.5t45 -132.5v-179q0 -86 -44.5 -132t-133.5 -46q-88 0 -132.5 46t-44.5 132v46h-72v-186q0 -26 -27 -26h-57q-26 0 -26 26v459q0 26 26 26h57q27 0 27 -26v-174h72v34q0 87 44.5 132.5t132.5 45.5zM415 429q-31 0 -48.5 -18.5t-17.5 -53.5v-203
q0 -34 17 -52.5t49 -18.5q33 0 50.5 18.5t17.5 52.5v203q0 35 -18 53.5t-50 18.5z" />
    <glyph glyph-name="afii10097" unicode="&#x44f;" horiz-adv-x="462" 
d="M232 522q37 0 70 -1t78 -4q26 0 26 -27v-464q0 -26 -26 -26h-57q-26 0 -26 26v176q-16 -2 -30 -2h-28h-13l-87 -180q-9 -20 -31 -20h-64q-24 0 -24 18q0 3 1 6t3 7l97 189q-87 37 -87 135v14q0 70 47 111.5t151 41.5zM232 436q-46 0 -67.5 -18.5t-21.5 -45.5v-15
q0 -32 23.5 -51t65.5 -19q18 0 30 0.5t35 2.5v144q-21 2 -33 2h-32z" />
    <glyph glyph-name="afii10071" unicode="&#x451;" horiz-adv-x="412" 
d="M339 511q27 0 27 -26v-47q0 -26 -27 -26h-173v-105h156q27 0 27 -26v-45q0 -26 -27 -26h-156v-111h173q27 0 27 -26v-47q0 -26 -27 -26h-257q-26 0 -26 26v459q0 26 26 26h257zM113 710q32 0 49 -14t17 -42v-26q0 -26 -17 -40.5t-49 -14.5q-30 0 -47.5 14.5t-17.5 40.5
v26q0 28 17.5 42t47.5 14zM304 710q66 0 66 -56v-26q0 -26 -17 -40.5t-49 -14.5q-30 0 -47.5 14.5t-17.5 40.5v26q0 28 17.5 42t47.5 14z" />
    <glyph glyph-name="afii10099" unicode="&#x452;" horiz-adv-x="573" 
d="M397 511q26 0 26 -26v-47q0 -26 -26 -26h-119v-87q36 6 77 6q94 0 138.5 -44t45.5 -125v-32q0 -142 -135 -142q-19 0 -38 4q-24 4 -24 28v49q0 18 15 18h4q13 -3 26 -3q41 0 41 45v38q0 69 -73 69q-23 0 -42.5 -1.5t-34.5 -3.5v-205q0 -26 -26 -26h-58q-26 0 -26 26v386
h-120q-27 0 -27 26v47q0 26 27 26h349z" />
    <glyph glyph-name="afii10100" unicode="&#x453;" horiz-adv-x="379" 
d="M331 511q27 0 27 -26v-47q0 -26 -27 -26h-165v-386q0 -26 -26 -26h-58q-26 0 -26 26v459q0 26 26 26h249zM291 688q20 0 20 -14q0 -7 -6 -14l-66 -88q-10 -14 -28 -14h-39q-21 0 -21 15q0 6 4 13l47 86q10 16 28 16h61z" />
    <glyph glyph-name="afii10101" unicode="&#x454;" horiz-adv-x="411" 
d="M237 523q23 0 49.5 -3t56.5 -8q25 -4 25 -29l-1 -43q-2 -24 -21 -24q-5 0 -8 1q-20 4 -42.5 6.5t-44.5 2.5q-52 0 -71 -18.5t-19 -63.5v-37h146q26 0 26 -27v-44q0 -26 -26 -26h-146v-42q0 -45 19.5 -63t70.5 -18q22 0 44.5 3t42.5 7q2 0 3.5 0.5t3.5 0.5q20 0 22 -24
l1 -46q0 -25 -25 -29q-27 -5 -55 -8t-51 -3q-51 0 -86.5 11t-57.5 32.5t-32 53t-10 73.5v195q0 85 42 127.5t144 42.5z" />
    <glyph glyph-name="afii10102" unicode="&#x455;" horiz-adv-x="394" 
d="M203 523q23 0 50 -3t56 -8q24 -5 24 -28l-1 -46q0 -25 -21 -25q-2 0 -3.5 0.5t-3.5 0.5q-27 5 -52.5 8.5t-45.5 3.5q-35 0 -49 -12t-14 -35v-15q0 -17 9 -27t37 -18l71 -23q61 -18 85.5 -50.5t24.5 -91.5v-18q0 -71 -43 -109.5t-142 -38.5q-22 0 -53.5 3.5t-63.5 11.5
q-23 4 -23 29l1 48q0 24 21 24q5 0 8 -1q28 -7 54.5 -11.5t47.5 -4.5q47 0 64.5 12.5t17.5 35.5v19q0 18 -8.5 28t-31.5 17l-76 24q-31 10 -52.5 22.5t-34.5 29t-18.5 39t-5.5 51.5v11q0 70 40.5 108.5t130.5 38.5z" />
    <glyph glyph-name="afii10103" unicode="&#x456;" horiz-adv-x="222" 
d="M140 511q26 0 26 -26v-459q0 -26 -26 -26h-58q-26 0 -26 26v459q0 26 26 26h58z" />
    <glyph glyph-name="afii10104" unicode="&#x457;" horiz-adv-x="222" 
d="M140 511q26 0 26 -26v-459q0 -26 -26 -26h-58q-26 0 -26 26v459q0 26 26 26h58zM16 710q32 0 49 -14t17 -42v-26q0 -26 -17 -40.5t-49 -14.5q-30 0 -47.5 14.5t-17.5 40.5v26q0 28 17.5 42t47.5 14zM207 710q66 0 66 -56v-26q0 -26 -17 -40.5t-49 -14.5q-30 0 -47.5 14.5
t-17.5 40.5v26q0 28 17.5 42t47.5 14z" />
    <glyph glyph-name="afii10105" unicode="&#x458;" horiz-adv-x="272" 
d="M189 511q27 0 27 -26v-346q0 -78 -34 -114.5t-105 -36.5q-10 0 -27 2t-29 4q-24 4 -24 28v43q0 24 20 24q2 0 3.5 -0.5t3.5 -0.5q8 -2 18.5 -3t19.5 -1q23 0 33 11.5t10 40.5v349q0 26 27 26h57z" />
    <glyph glyph-name="afii10106" unicode="&#x459;" horiz-adv-x="693" 
d="M254 523q37 0 71.5 -2t68.5 -4q25 -3 25 -29v-170q19 2 34.5 3.5t26.5 1.5q96 0 142.5 -40.5t46.5 -115.5v-23q0 -69 -48.5 -112.5t-150.5 -43.5q-29 0 -62 0.5t-74 4.5q-25 3 -25 28v405q-14 2 -26 2.5t-28 0.5q-35 0 -55 -20t-21 -58l-3 -196q-2 -87 -35 -127t-92 -40
q-22 0 -34 3q-23 5 -23 29v45q0 13 4.5 17t12.5 3q10 -1 13 -1h8q17 0 26 13.5t10 48.5l3 199q2 87 47 132.5t138 45.5zM466 229q-11 0 -23.5 -0.5t-23.5 -2.5v-141q17 -2 27.5 -2.5t20.5 -0.5q49 0 70 17t21 47v16q0 32 -22 49.5t-70 17.5z" />
    <glyph glyph-name="afii10107" unicode="&#x45a;" horiz-adv-x="705" 
d="M404 511q27 0 27 -26v-167q18 2 33.5 3.5t26.5 1.5q96 0 143 -40.5t47 -115.5v-23q0 -69 -48.5 -112.5t-150.5 -43.5q-30 0 -63 0.5t-73 4.5q-26 3 -26 28v192h-154v-187q0 -26 -26 -26h-58q-26 0 -26 26v459q0 26 26 26h58q26 0 26 -26v-174h154v174q0 26 27 26h57z
M478 229q-11 0 -23.5 -0.5t-23.5 -2.5v-141q17 -2 27.5 -2.5t20.5 -0.5q49 0 70 17t21 47v16q0 32 -22 49.5t-70 17.5z" />
    <glyph glyph-name="afii10108" unicode="&#x45b;" horiz-adv-x="573" 
d="M397 511q26 0 26 -26v-47q0 -26 -26 -26h-119v-87q37 6 80 6q92 0 136.5 -44.5t44.5 -128.5v-132q0 -26 -26 -26h-57q-27 0 -27 26v139q0 71 -76 71q-22 0 -42 -1.5t-33 -4.5v-204q0 -26 -26 -26h-58q-26 0 -26 26v386h-120q-27 0 -27 26v47q0 26 27 26h349z" />
    <glyph glyph-name="afii10109" unicode="&#x45c;" horiz-adv-x="476" 
d="M419 511q23 0 23 -16q0 -7 -6 -16l-140 -209l161 -238q7 -11 7 -17q0 -15 -23 -15h-70q-21 0 -32 17l-133 199h-40v-190q0 -26 -26 -26h-58q-26 0 -26 26v459q0 26 26 26h58q26 0 26 -26v-181h38l124 190q11 17 32 17h59zM335 688q20 0 20 -14q0 -7 -6 -14l-66 -88
q-10 -14 -28 -14h-39q-21 0 -21 15q0 6 4 13l47 86q10 16 28 16h61z" />
    <glyph glyph-name="afii10110" unicode="&#x45e;" horiz-adv-x="429" 
d="M399 511q24 0 24 -18q0 -3 -1 -6t-3 -7l-218 -460q-9 -20 -31 -20h-58q-24 0 -24 18q0 3 1 6t3 7l69 148l-140 301q-2 4 -3 7t-1 6q0 18 24 18h69q22 0 30 -21l78 -205l88 206q9 20 30 20h63zM316 680q4 3 8 4t7 1q13 0 13 -19v-43q0 -18 -15 -28q-14 -11 -43 -23.5
t-67 -12.5q-37 0 -66.5 12.5t-44.5 23.5q-14 10 -14 28v43q0 19 13 19q3 0 7 -1t8 -4q18 -11 44 -22.5t53 -11.5t52.5 11.5t44.5 22.5z" />
    <glyph glyph-name="afii10193" unicode="&#x45f;" horiz-adv-x="480" 
d="M397 511q27 0 27 -26v-459q0 -26 -27 -26h-105v-104q0 -26 -27 -26h-51q-26 0 -26 26v104h-106q-26 0 -26 26v459q0 26 26 26h58q26 0 26 -26v-386h147v386q0 26 26 26h58z" />
    <glyph glyph-name="afii10146" unicode="&#x462;" horiz-adv-x="653" 
d="M472 655q29 0 29 -28v-53q0 -29 -29 -29h-151v-149q25 3 47 5t36 2q109 0 167 -49.5t58 -144.5v-25q0 -89 -57.5 -142.5t-179.5 -53.5q-36 0 -80.5 2t-82.5 7q-28 3 -28 31v517h-151q-29 0 -29 29v53q0 28 29 28h422zM386 298q-14 0 -32 -1.5t-33 -3.5v-196
q23 -3 38.5 -4t28.5 -1q64 0 92.5 25t28.5 70v21q0 44 -29 67t-94 23z" />
    <glyph glyph-name="afii10194" unicode="&#x463;" horiz-adv-x="552" 
d="M397 511q26 0 26 -26v-47q0 -26 -26 -26h-119v-94q19 2 34.5 3.5t26.5 1.5q96 0 142.5 -40.5t46.5 -115.5v-23q0 -69 -48.5 -112.5t-150.5 -43.5q-29 0 -62 0.5t-74 4.5q-25 3 -25 28v391h-120q-27 0 -27 26v47q0 26 27 26h349zM325 229q-11 0 -23.5 -0.5t-23.5 -2.5
v-141q17 -2 27.5 -2.5t20.5 -0.5q49 0 70 17t21 47v16q0 32 -22 49.5t-70 17.5z" />
    <glyph glyph-name="afii10147" unicode="&#x472;" horiz-adv-x="553" 
d="M276 667q118 0 172 -57.5t54 -163.5v-237q0 -104 -54 -162.5t-172 -58.5q-59 0 -101.5 15t-70 43.5t-40.5 69.5t-13 93v237q0 106 53.5 163.5t171.5 57.5zM276 559q-106 0 -106 -104v-72h212v71q0 51 -26 78t-80 27zM170 283v-82q0 -105 106 -105t106 105v82h-212z" />
    <glyph glyph-name="afii10195" unicode="&#x473;" horiz-adv-x="480" 
d="M240 523q96 0 143 -46t47 -134v-175q0 -86 -46 -133t-144 -47t-143.5 47t-45.5 133v175q0 88 47 134t142 46zM240 426q-39 0 -59 -19.5t-20 -54.5v-48h158v43q0 79 -79 79zM161 216v-52q0 -38 19.5 -58.5t59.5 -20.5t59.5 20t19.5 55v56h-158z" />
    <glyph glyph-name="afii10148" unicode="&#x474;" horiz-adv-x="579" 
d="M520 667q11 0 23.5 -1t24.5 -3q26 -5 26 -31v-42q0 -30 -29 -27q-17 3 -27 3q-11 0 -19 -2.5t-14 -9t-11 -19t-11 -32.5l-135 -479q-8 -24 -32 -24h-93q-26 0 -32 24l-175 599q-1 4 -1 10q0 22 25 22h68q26 0 32 -24l129 -525l95 389q12 52 25.5 85.5t31.5 53t42 26.5
t57 7z" />
    <glyph glyph-name="afii10196" unicode="&#x475;" horiz-adv-x="486" 
d="M433 523q10 0 22 -1.5t24 -3.5q23 -5 23 -28v-40q0 -26 -19 -26q-2 0 -3 0.5t-3 0.5q-15 4 -26 4q-17 0 -26 -9t-18 -36l-107 -362q-6 -22 -29 -22h-84q-23 0 -30 22l-141 459q-1 4 -1 10q0 20 23 20h63q23 0 29 -23l99 -395l70 287q10 42 21 69.5t26.5 44t36.5 23
t50 6.5z" />
    <glyph glyph-name="afii10050" unicode="&#x490;" horiz-adv-x="438" 
d="M388 785q28 0 28 -28v-183q0 -29 -28 -29h-213v-517q0 -28 -28 -28h-63q-28 0 -28 28v599q0 28 28 28h219v102q0 28 29 28h56z" />
    <glyph glyph-name="afii10098" unicode="&#x491;" horiz-adv-x="379" 
d="M331 641q27 0 27 -27v-176q0 -26 -27 -26h-165v-386q0 -26 -26 -26h-58q-26 0 -26 26v459q0 26 26 26h172v103q0 27 27 27h50z" />
    <glyph glyph-name="uni0492" unicode="&#x492;" horiz-adv-x="453" 
d="M404 655q28 0 28 -28v-53q0 -29 -28 -29h-213v-158h94q27 0 27 -29v-43q0 -29 -27 -29h-94v-258q0 -28 -28 -28h-63q-29 0 -29 28v258h-40q-27 0 -27 29v43q0 29 27 29h40v240q0 28 29 28h304z" />
    <glyph glyph-name="uni0493" unicode="&#x493;" horiz-adv-x="389" 
d="M341 511q26 0 26 -26v-47q0 -26 -26 -26h-165v-107h66q27 0 27 -27v-36q0 -26 -27 -26h-66v-190q0 -26 -27 -26h-58q-26 0 -26 26v190h-30q-26 0 -26 26v36q0 27 26 27h30v180q0 26 26 26h250z" />
    <glyph glyph-name="uni0496" unicode="&#x496;" horiz-adv-x="806" 
d="M742 655q25 0 25 -19q0 -7 -4 -15l-139 -281l109 -231h37q28 0 28 -28v-183q0 -28 -28 -28h-57q-28 0 -28 28v102h-10q-24 0 -34 21l-119 262h-62v-255q0 -28 -29 -28h-62q-29 0 -29 28v255h-64l-120 -262q-11 -21 -34 -21h-73q-25 0 -25 19q0 5 4 15l148 305l-139 282
q-4 8 -4 15q0 19 25 19h65q23 0 32 -21l121 -251h64v244q0 28 29 28h62q29 0 29 -28v-244h65l121 251q10 21 33 21h63z" />
    <glyph glyph-name="uni0497" unicode="&#x497;" horiz-adv-x="672" 
d="M615 511q24 0 24 -18q0 -3 -1 -6t-3 -7l-108 -211l85 -170h26q26 0 26 -26v-177q0 -26 -26 -26h-51q-26 0 -26 26v104h-1q-16 0 -26 20l-99 201h-46v-195q0 -26 -26 -26h-53q-26 0 -26 26v195h-47l-99 -201q-9 -20 -31 -20h-60q-23 0 -23 17q0 4 4 14l119 237l-108 212
q-4 7 -4 14q0 17 23 17h54q22 0 31 -20l96 -185h45v179q0 26 26 26h53q26 0 26 -26v-179h45l96 186q9 19 31 19h54z" />
    <glyph glyph-name="uni0498" unicode="&#x498;" horiz-adv-x="458" 
d="M310 344q54 -15 85 -55.5t31 -96.5v-24q0 -70 -41.5 -116.5t-132.5 -59.5l-9 -27h9q27 0 42.5 -18.5t15.5 -45.5v-17q0 -38 -24 -59.5t-80 -21.5q-10 0 -23 1t-23 3q-12 3 -16.5 8.5t-4.5 16.5v23q0 21 14 21h4q7 -2 16 -3t14 -1q29 0 29 23v8q0 12 -6 18t-23 6h-15
q-17 0 -17 16q0 7 3 18l9 27q-27 2 -56 5.5t-55 8.5q-25 4 -25 31v50q0 26 23 26q5 0 8 -1q29 -6 61 -10t61 -4q68 0 95.5 20.5t27.5 59.5v27q0 42 -27 63t-90 21h-66q-29 0 -29 28v48q0 28 29 28h66q51 0 75.5 21.5t24.5 59.5v19q0 35 -24.5 54t-81.5 19q-29 0 -61 -4
t-61 -9q-3 -1 -8 -1q-21 0 -23 26l-1 49q-1 25 32 31q32 5 66 9t59 4q116 0 169 -43.5t53 -124.5v-17q0 -44 -25 -81t-74 -57z" />
    <glyph glyph-name="uni0499" unicode="&#x499;" horiz-adv-x="405" 
d="M271 268q46 -12 71.5 -45t25.5 -77v-16q0 -54 -32 -90.5t-107 -47.5l-9 -27h9q27 0 42.5 -18.5t15.5 -45.5v-17q0 -38 -24 -59.5t-80 -21.5q-10 0 -23 1t-23 3q-12 3 -16.5 8.5t-4.5 16.5v23q0 21 14 21h4q7 -2 16 -3t14 -1q29 0 29 23v8q0 24 -29 24h-15q-17 0 -17 16
q0 7 3 18l9 28q-20 0 -42 2.5t-47 7.5q-24 4 -24 29v42q0 25 21 25q5 0 8 -1q26 -5 53.5 -8.5t48.5 -3.5q54 0 74.5 14.5t20.5 42.5v16q0 29 -20 44.5t-70 15.5h-55q-26 0 -26 26v42q0 27 26 27h57q38 0 56.5 14.5t18.5 39.5v14q0 24 -19 37.5t-64 13.5q-25 0 -51.5 -3.5
t-49.5 -7.5q-2 0 -3 -0.5t-3 -0.5q-21 0 -23 25l-1 42q-1 23 23 28q25 5 55.5 8t56.5 3q99 0 144 -35.5t45 -95.5v-14q0 -35 -20.5 -65t-62.5 -45z" />
    <glyph glyph-name="uni049A" unicode="&#x49a;" horiz-adv-x="550" 
d="M481 655q26 0 26 -18q0 -7 -6 -16l-177 -274l155 -238h40q28 0 28 -28v-183q0 -28 -28 -28h-56q-29 0 -29 28v102h-9q-17 0 -30 19l-166 264h-54v-255q0 -28 -28 -28h-63q-28 0 -28 28v599q0 28 28 28h63q28 0 28 -28v-244h52l159 253q12 19 34 19h61z" />
    <glyph glyph-name="uni049B" unicode="&#x49b;" horiz-adv-x="480" 
d="M419 511q23 0 23 -16q0 -7 -6 -16l-140 -209l117 -171h42q27 0 27 -26v-177q0 -26 -27 -26h-50q-27 0 -27 26v104h-7q-21 0 -32 17l-133 199h-40v-190q0 -26 -26 -26h-58q-26 0 -26 26v459q0 26 26 26h58q26 0 26 -26v-181h38l124 190q11 17 32 17h59z" />
    <glyph glyph-name="uni049C" unicode="&#x49c;" horiz-adv-x="585" 
d="M525 655q24 0 24 -18q0 -9 -5 -16l-164 -278l185 -309q6 -9 6 -16q0 -18 -25 -18h-77q-23 0 -34 20l-151 258h-16v-143q0 -25 -27 -25h-15q-27 0 -27 25v143h-24v-250q0 -28 -28 -28h-63q-28 0 -28 28v599q0 28 28 28h63q28 0 28 -28v-240h24v106q0 14 6.5 19t20.5 5h15
q14 0 20.5 -5t6.5 -19v-106h11l145 248q10 20 33 20h68z" />
    <glyph glyph-name="uni049D" unicode="&#x49d;" horiz-adv-x="511" 
d="M456 511q23 0 23 -17q0 -7 -5 -15l-135 -208l155 -239q5 -10 5 -15q0 -17 -23 -17h-71q-21 0 -31 18l-122 196h-15v-122q0 -17 -17 -17h-14q-17 0 -17 17v122h-23v-188q0 -26 -26 -26h-58q-26 0 -26 26v459q0 26 26 26h58q26 0 26 -26v-180h23v89q0 18 17 18h14
q17 0 17 -18v-89h12l117 188q10 18 31 18h59z" />
    <glyph glyph-name="uni04A0" unicode="&#x4a0;" horiz-adv-x="686" 
d="M621 655q26 0 26 -18q0 -7 -6 -16l-177 -274l203 -313q6 -9 6 -17q0 -17 -24 -17h-80q-21 0 -34 19l-166 264h-54v-255q0 -28 -28 -28h-63q-28 0 -28 28v515h-152q-28 0 -28 29v55q0 28 28 28h243q28 0 28 -28v-244h52l159 253q12 19 34 19h61z" />
    <glyph glyph-name="uni04A1" unicode="&#x4a1;" horiz-adv-x="586" 
d="M528 511q24 0 24 -16q0 -7 -6 -16l-140 -209l161 -238q7 -11 7 -17q0 -15 -23 -15h-70q-21 0 -32 17l-133 199h-40v-190q0 -26 -26 -26h-58q-26 0 -26 26v383h-124q-26 0 -26 27v49q0 26 26 26h208q26 0 26 -26v-181h38l124 190q11 17 32 17h58z" />
    <glyph glyph-name="uni04A2" unicode="&#x4a2;" horiz-adv-x="571" 
d="M473 655q28 0 28 -28v-518h33q28 0 28 -28v-183q0 -28 -28 -28h-57q-28 0 -28 28v102h-39q-28 0 -28 28v255h-207v-255q0 -28 -28 -28h-63q-28 0 -28 28v599q0 28 28 28h63q28 0 28 -28v-236h207v236q0 28 28 28h63z" />
    <glyph glyph-name="uni04A3" unicode="&#x4a3;" horiz-adv-x="497" 
d="M404 511q27 0 27 -26v-386h24q26 0 26 -26v-177q0 -26 -26 -26h-51q-26 0 -26 26v104h-32q-26 0 -26 26v187h-154v-187q0 -26 -26 -26h-58q-26 0 -26 26v459q0 26 26 26h58q26 0 26 -26v-174h154v174q0 26 26 26h58z" />
    <glyph glyph-name="uni04AA" unicode="&#x4aa;" horiz-adv-x="464" 
d="M272 667q30 0 61 -3.5t66 -11.5q25 -6 25 -31v-50q0 -27 -23 -27q-5 0 -8 1q-25 5 -52.5 9.5t-55.5 4.5q-33 0 -55 -5.5t-35.5 -18t-19 -33.5t-5.5 -51v-246q0 -30 6 -50.5t19.5 -33t36 -18t54.5 -5.5q26 0 53.5 4.5t53.5 9.5q3 1 8 1q21 0 23 -27l1 -54q0 -22 -25 -31
q-26 -11 -38 -31t-12 -37v-7q0 -31 31 -31q3 0 8.5 0.5t10.5 1.5h5q19 0 19 -22v-42q0 -21 -21 -25q-11 -3 -22.5 -4t-22.5 -1q-52 0 -78.5 23.5t-28.5 61.5l1 11q1 26 13 49t36 41q-7 0 -14 -0.5t-14 -0.5q-62 0 -104.5 13t-68.5 39.5t-37.5 65.5t-11.5 91v261
q0 53 11.5 92t38 65t68.5 39t103 13z" />
    <glyph glyph-name="uni04AB" unicode="&#x4ab;" horiz-adv-x="406" 
d="M235 523q47 0 107 -12q25 -4 25 -29l-1 -44q-2 -24 -22 -24q-6 0 -9 1q-20 5 -43 8t-42 3q-51 0 -70 -18t-19 -64v-177q0 -45 19.5 -62.5t70.5 -17.5q20 0 42.5 3t42.5 7q3 1 8 1q19 0 21 -24l1 -46q1 -23 -24 -29l-16 -3q-20 -11 -30.5 -29t-10.5 -34v-7q0 -31 32 -31
q3 0 8.5 0.5t10.5 1.5h4q20 0 20 -22v-42q0 -21 -22 -25q-10 -3 -22 -4t-23 -1q-52 0 -78.5 23.5t-26.5 61.5v11q0 25 13 48t36 41q-51 1 -86.5 11.5t-57.5 31t-32 52t-10 74.5v197q0 87 42 128t142 41z" />
    <glyph glyph-name="uni04AE" unicode="&#x4ae;" horiz-adv-x="513" 
d="M469 655q25 0 25 -20q0 -6 -3 -13l-175 -396v-198q0 -28 -28 -28h-63q-28 0 -28 28v198l-175 396q-3 7 -3 14q0 19 25 19h74q23 0 32 -23l107 -290l108 291q9 22 33 22h71z" />
    <glyph glyph-name="uni04AF" unicode="&#x4af;" horiz-adv-x="441" 
d="M400 511q23 0 23 -17q0 -4 -4 -14l-143 -304v-150q0 -26 -26 -26h-58q-27 0 -27 26v150l-143 304q-2 4 -3 7t-1 6q0 18 24 18h67q22 0 30 -21l83 -215l82 215q7 21 30 21h66z" />
    <glyph glyph-name="uni04B0" unicode="&#x4b0;" horiz-adv-x="513" 
d="M469 655q25 0 25 -20q0 -6 -3 -13l-156 -348h50q26 0 26 -29v-52q0 -28 -26 -28h-69v-137q0 -28 -28 -28h-63q-28 0 -28 28v137h-69q-26 0 -26 28v52q0 29 26 29h49l-155 348q-3 7 -3 14q0 19 25 19h74q23 0 32 -23l107 -290l108 291q9 22 33 22h71z" />
    <glyph glyph-name="uni04B1" unicode="&#x4b1;" horiz-adv-x="441" 
d="M399 511q23 0 23 -17q0 -7 -4 -14l-121 -257h31q26 0 26 -26v-34q0 -27 -26 -27h-52v-110q0 -26 -27 -26h-58q-26 0 -26 26v110h-49q-26 0 -26 27v34q0 26 26 26h27l-121 257q-2 4 -3 7t-1 6q0 18 24 18h67q21 0 29 -21l83 -215l83 215q7 21 30 21h65z" />
    <glyph glyph-name="uni04B2" unicode="&#x4b2;" horiz-adv-x="545" 
d="M479 655q25 0 25 -18q0 -6 -5 -16l-161 -286l127 -226h57q28 0 28 -28v-183q0 -28 -28 -28h-57q-28 0 -28 28v102h-26q-25 0 -35 21l-112 218l-113 -218q-10 -21 -34 -21h-75q-24 0 -24 18q0 8 5 16l172 302l-162 285q-5 10 -5 15q0 19 25 19h78q23 0 34 -21l104 -202
l104 202q10 21 33 21h73z" />
    <glyph glyph-name="uni04B3" unicode="&#x4b3;" horiz-adv-x="460" 
d="M397 511q23 0 23 -17q0 -7 -5 -15l-130 -218l96 -162h57q27 0 27 -26v-177q0 -26 -27 -26h-50q-27 0 -27 26v104h-24q-22 0 -31 19l-83 158l-84 -158q-10 -19 -31 -19h-68q-23 0 -23 16q0 7 6 16l137 229l-130 218q-5 8 -5 15q0 17 23 17h68q21 0 31 -19l76 -147l77 147
q9 19 31 19h66z" />
    <glyph glyph-name="uni04B8" unicode="&#x4b8;" horiz-adv-x="536" 
d="M452 655q29 0 29 -28v-599q0 -28 -29 -28h-63q-28 0 -28 28v195l-30 -4t-30 -3v-100q0 -14 -6 -19t-20 -5h-16q-14 0 -20 5t-6 19v99q-188 14 -188 212v200q0 28 28 28h63q29 0 29 -28v-203q0 -87 68 -100v151q0 14 6 19t20 5h16q14 0 20 -5t6 -19v-156q17 1 32 3t28 4
v301q0 28 28 28h63z" />
    <glyph glyph-name="uni04B9" unicode="&#x4b9;" horiz-adv-x="463" 
d="M381 511q27 0 27 -26v-459q0 -26 -27 -26h-57q-27 0 -27 26v143q-23 -5 -49 -7v-75q0 -17 -17 -17h-14q-17 0 -17 17v75q-78 5 -118 48t-40 125v150q0 26 26 26h58q27 0 27 -26v-154q0 -60 47 -72v156q0 18 17 18h14q17 0 17 -18v-159q26 0 49 5v224q0 26 27 26h57z" />
    <glyph glyph-name="uni04BA" unicode="&#x4ba;" horiz-adv-x="531" 
d="M147 655q28 0 28 -28v-195q23 3 47 5.5t52 2.5q106 0 163 -53.5t57 -165.5v-193q0 -28 -29 -28h-63q-28 0 -28 28v203q0 52 -26.5 78.5t-75.5 26.5q-32 0 -56 -2.5t-41 -5.5v-300q0 -28 -28 -28h-63q-28 0 -28 28v599q0 28 28 28h63z" />
    <glyph glyph-name="uni04BB" unicode="&#x4bb;" horiz-adv-x="462" 
d="M140 511q26 0 26 -26v-143q39 6 80 6q92 0 136.5 -44.5t44.5 -128.5v-149q0 -26 -26 -26h-58q-26 0 -26 26v156q0 35 -19.5 53t-55.5 18q-23 0 -42.5 -1.5t-33.5 -4.5v-221q0 -26 -26 -26h-58q-26 0 -26 26v459q0 26 26 26h58z" />
    <glyph glyph-name="uni04C0" unicode="&#x4c0;" horiz-adv-x="231" 
d="M147 655q28 0 28 -28v-599q0 -28 -28 -28h-63q-28 0 -28 28v599q0 28 28 28h63z" />
    <glyph glyph-name="uni04CB" unicode="&#x4cb;" horiz-adv-x="551" 
d="M452 655q29 0 29 -28v-518h32q28 0 28 -28v-183q0 -28 -28 -28h-56q-29 0 -29 28v102h-39q-28 0 -28 28v195q-26 -4 -51.5 -6t-48.5 -2q-216 0 -216 212v200q0 28 28 28h63q29 0 29 -28v-203q0 -105 102 -105q27 0 50.5 1.5t43.5 5.5v301q0 28 28 28h63z" />
    <glyph glyph-name="uni04CC" unicode="&#x4cc;" horiz-adv-x="482" 
d="M381 511q27 0 27 -26v-386h24q26 0 26 -26v-177q0 -26 -26 -26h-51q-26 0 -26 26v104h-31q-27 0 -27 26v143q-38 -7 -77 -7q-88 0 -133 42.5t-45 130.5v150q0 26 26 26h58q27 0 27 -26v-154q0 -75 73 -75q22 0 39.5 1.5t31.5 3.5v224q0 26 27 26h57z" />
    <glyph glyph-name="uni04CF" unicode="&#x4cf;" horiz-adv-x="222" 
d="M140 511q26 0 26 -26v-459q0 -26 -26 -26h-58q-26 0 -26 26v459q0 26 26 26h58z" />
    <glyph glyph-name="uni04D8" unicode="&#x4d8;" horiz-adv-x="543" 
d="M254 667q67 0 112.5 -11.5t73.5 -36.5t40.5 -65t12.5 -96v-249q0 -106 -53.5 -163.5t-167.5 -57.5t-167.5 58.5t-53.5 162.5v147q0 31 31 31h291v79q0 28 -5.5 46.5t-19.5 29.5t-37 16t-59 5q-30 0 -64.5 -4.5t-65.5 -9.5q-3 -1 -8 -1q-23 0 -23 27l-1 47q-1 25 32 31
q35 7 68.5 10.5t63.5 3.5zM170 278v-77q0 -51 26 -78t76 -27t75.5 27t25.5 78v77h-203z" />
    <glyph glyph-name="afii10846" unicode="&#x4d9;" horiz-adv-x="473" 
d="M222 523q56 0 94.5 -9.5t62 -30t33.5 -52.5t10 -78v-186q0 -82 -44.5 -130.5t-140.5 -48.5q-97 0 -141.5 46t-44.5 131v116q0 28 27 28h234v49q0 39 -19 55t-74 16q-22 0 -50.5 -3t-54.5 -7h-5q-23 0 -24 24l-1 42q0 24 32 29q28 4 55.5 6.5t50.5 2.5zM161 218v-59
q0 -35 19.5 -54.5t56.5 -19.5t56 19.5t19 54.5v59h-151z" />
    <glyph glyph-name="uni04E2" unicode="&#x4e2;" horiz-adv-x="557" 
d="M473 655q28 0 28 -28v-599q0 -28 -28 -28h-63q-28 0 -28 28v403l-204 -410q-11 -21 -33 -21h-61q-28 0 -28 28v599q0 28 28 28h63q28 0 28 -28v-404l204 411q10 21 33 21h61zM383 806q23 0 23 -23v-48q0 -24 -23 -24h-211q-23 0 -23 24v48q0 23 23 23h211z" />
    <glyph glyph-name="uni04E3" unicode="&#x4e3;" horiz-adv-x="486" 
d="M404 511q27 0 27 -26v-459q0 -26 -27 -26h-58q-26 0 -26 26v283l-152 -290q-10 -19 -31 -19h-55q-26 0 -26 26v459q0 26 26 26h58q26 0 26 -26v-287l153 294q10 19 31 19h54zM331 660q24 0 24 -23v-44q0 -23 -24 -23h-176q-23 0 -23 23v44q0 23 23 23h176z" />
    <glyph glyph-name="uni04E8" unicode="&#x4e8;" horiz-adv-x="553" 
d="M276 667q118 0 172 -57.5t54 -163.5v-237q0 -104 -54 -162.5t-172 -58.5q-59 0 -101.5 15t-70 43.5t-40.5 69.5t-13 93v237q0 106 53.5 163.5t171.5 57.5zM276 559q-106 0 -106 -104v-72h212v71q0 51 -26 78t-80 27zM170 283v-82q0 -105 106 -105t106 105v82h-212z" />
    </font>
</defs>
</svg>
